<svg width="147" height="40" viewBox="0 0 147 40" fill="none" xmlns="http://www.w3.org/2000/svg">
<path d="M24.7586 21.3723C24.7172 16.8804 28.5275 14.695 28.7017 14.5933C26.5438 11.5229 23.1991 11.1034 22.0237 11.0699C19.2145 10.7814 16.4896 12.7103 15.0586 12.7103C13.599 12.7103 11.3954 11.0978 9.02035 11.1452C5.9641 11.1912 3.10494 12.918 1.53683 15.5995C-1.69937 21.0671 0.714214 29.1019 3.81473 33.5214C5.36571 35.6858 7.17804 38.1025 9.5502 38.0175C11.8709 37.9241 12.7378 36.5736 15.5384 36.5736C18.3133 36.5736 19.1274 38.0175 21.5467 37.9631C24.0374 37.9241 25.6055 35.7889 27.1022 33.605C28.8945 31.1242 29.6143 28.681 29.6429 28.5555C29.5843 28.536 24.8057 26.7562 24.7586 21.3723Z" fill="#050020"/>
<path d="M20.1883 8.16278C21.4365 6.63945 22.2905 4.56699 22.0535 2.46387C20.2468 2.54192 17.9875 3.68337 16.6865 5.17326C15.5354 6.48614 14.5071 8.63804 14.7727 10.6617C16.8021 10.8095 18.8858 9.66243 20.1883 8.16278Z" fill="#050020"/>
<path d="M57.0618 34.9909H54.0805L52.4473 29.9829H46.7708L45.2151 34.9909H42.3125L47.9365 17.9414H51.4102L57.0618 34.9909ZM51.955 27.8818L50.4781 23.4298C50.3219 22.975 50.0292 21.904 49.5972 20.218H49.5447C49.3727 20.9431 49.0957 22.0142 48.715 23.4298L47.2644 27.8818H51.955Z" fill="#525D7B"/>
<path d="M71.5261 28.693C71.5261 30.7838 70.9472 32.4365 69.7893 33.6498C68.7522 34.7298 67.4643 35.2691 65.927 35.2691C64.2677 35.2691 63.0756 34.6875 62.3496 33.5242H62.2971V40.0004H59.4982V26.7444C59.4982 25.4299 59.4628 24.0809 59.3945 22.6972H61.856L62.0123 24.6458H62.0648C62.9982 23.1776 64.4147 22.4448 66.3156 22.4448C67.8017 22.4448 69.0423 23.0175 70.0348 24.1641C71.0299 25.312 71.5261 26.8212 71.5261 28.693ZM68.6747 28.7929C68.6747 27.5963 68.399 26.6098 67.845 25.8335C67.2398 25.0238 66.4272 24.6189 65.4085 24.6189C64.7179 24.6189 64.0904 24.8444 63.5299 25.289C62.968 25.7374 62.6004 26.3229 62.4284 27.048C62.3418 27.3862 62.2984 27.6629 62.2984 27.8807V29.9306C62.2984 30.8248 62.5794 31.5794 63.1413 32.1957C63.7031 32.8119 64.4331 33.1194 65.331 33.1194C66.3852 33.1194 67.2057 32.7222 67.7925 31.9305C68.3807 31.1374 68.6747 30.092 68.6747 28.7929Z" fill="#525D7B"/>
<path d="M86.017 28.693C86.017 30.7838 85.4381 32.4365 84.2789 33.6498C83.2431 34.7298 81.9552 35.2691 80.4179 35.2691C78.7585 35.2691 77.5665 34.6875 76.8418 33.5242H76.7893V40.0004H73.9904V26.7444C73.9904 25.4299 73.955 24.0809 73.8867 22.6972H76.3482L76.5045 24.6458H76.557C77.489 23.1776 78.9056 22.4448 80.8078 22.4448C82.2926 22.4448 83.5332 23.0175 84.5283 24.1641C85.5195 25.312 86.017 26.8212 86.017 28.693ZM83.1656 28.7929C83.1656 27.5963 82.8886 26.6098 82.3346 25.8335C81.7294 25.0238 80.9194 24.6189 79.8994 24.6189C79.2075 24.6189 78.5813 24.8444 78.0194 25.289C77.4575 25.7374 77.0913 26.3229 76.9193 27.048C76.834 27.3862 76.7893 27.6629 76.7893 27.8807V29.9306C76.7893 30.8248 77.0703 31.5794 77.6295 32.1957C78.1914 32.8106 78.9213 33.1194 79.8219 33.1194C80.8761 33.1194 81.6966 32.7222 82.2834 31.9305C82.8715 31.1374 83.1656 30.092 83.1656 28.7929Z" fill="#525D7B"/>
<path d="M102.214 30.2095C102.214 31.6598 101.698 32.8397 100.662 33.7506C99.5236 34.7461 97.939 35.2432 95.9029 35.2432C94.0229 35.2432 92.5158 34.8896 91.375 34.1811L92.0235 31.9045C93.2523 32.6296 94.6006 32.9935 96.0696 32.9935C97.1238 32.9935 97.9443 32.7603 98.5337 32.2965C99.1205 31.8327 99.4133 31.2101 99.4133 30.4337C99.4133 29.7419 99.1717 29.159 98.6873 28.6862C98.2055 28.2135 97.4008 27.7741 96.277 27.3679C93.2182 26.2546 91.6901 24.6237 91.6901 22.4791C91.6901 21.0775 92.2257 19.9283 93.2983 19.0341C94.3669 18.1385 95.7926 17.6914 97.5754 17.6914C99.1652 17.6914 100.486 17.9617 101.54 18.5011L100.84 20.7277C99.8557 20.205 98.7425 19.9437 97.4966 19.9437C96.512 19.9437 95.7427 20.1807 95.1913 20.6521C94.7253 21.0736 94.4916 21.5874 94.4916 22.1959C94.4916 22.8698 94.7581 23.4271 95.2937 23.8653C95.7598 24.2701 96.6065 24.7083 97.8353 25.181C99.3385 25.7716 100.443 26.4622 101.153 27.2539C101.86 28.0431 102.214 29.0309 102.214 30.2095Z" fill="#525D7B"/>
<path d="M111.469 24.7473H108.384V30.7162C108.384 32.2344 108.927 32.9928 110.017 32.9928C110.517 32.9928 110.932 32.9505 111.26 32.866L111.338 34.9402C110.786 35.1413 110.06 35.2425 109.161 35.2425C108.056 35.2425 107.192 34.9133 106.568 34.256C105.947 33.5975 105.635 32.4932 105.635 30.9417V24.7448H103.797V22.6949H105.635V20.444L108.384 19.6343V22.6949H111.469V24.7473Z" fill="#525D7B"/>
<path d="M125.39 28.7431C125.39 30.6328 124.836 32.1843 123.73 33.3976C122.571 34.6467 121.033 35.2693 119.115 35.2693C117.266 35.2693 115.795 34.671 114.697 33.4744C113.6 32.2778 113.051 30.7674 113.051 28.9468C113.051 27.0418 113.615 25.4813 114.748 24.2681C115.879 23.0536 117.404 22.4463 119.322 22.4463C121.17 22.4463 122.658 23.0446 123.78 24.2425C124.854 25.4045 125.39 26.9047 125.39 28.7431ZM122.486 28.8315C122.486 27.6977 122.238 26.7253 121.735 25.9144C121.148 24.933 120.309 24.4436 119.222 24.4436C118.097 24.4436 117.243 24.9343 116.656 25.9144C116.153 26.7266 115.905 27.7144 115.905 28.8828C115.905 30.0166 116.153 30.989 116.656 31.7987C117.261 32.78 118.106 33.2694 119.197 33.2694C120.266 33.2694 121.105 32.7698 121.71 31.7731C122.226 30.9467 122.486 29.9641 122.486 28.8315Z" fill="#525D7B"/>
<path d="M134.486 25.0994C134.209 25.0494 133.914 25.0238 133.604 25.0238C132.619 25.0238 131.858 25.3863 131.322 26.1128C130.856 26.7533 130.622 27.563 130.622 28.5405V34.9911H127.825L127.851 26.5688C127.851 25.1519 127.816 23.8618 127.746 22.6985H130.184L130.286 25.0507H130.364C130.659 24.2423 131.125 23.5915 131.763 23.1033C132.387 22.6639 133.06 22.4448 133.786 22.4448C134.045 22.4448 134.279 22.4628 134.486 22.4948V25.0994Z" fill="#525D7B"/>
<path d="M147.004 28.2626C147.004 28.752 146.971 29.1646 146.902 29.5015H138.505C138.538 30.716 138.944 31.6449 139.723 32.2854C140.431 32.8581 141.346 33.1451 142.47 33.1451C143.713 33.1451 144.847 32.9516 145.867 32.5635L146.306 34.4596C145.114 34.9669 143.706 35.2193 142.082 35.2193C140.129 35.2193 138.596 34.6581 137.48 33.5371C136.367 32.4161 135.809 30.9108 135.809 29.0224C135.809 27.1685 136.327 25.6247 137.366 24.3936C138.453 23.0791 139.922 22.4219 141.77 22.4219C143.586 22.4219 144.96 23.0791 145.894 24.3936C146.633 25.4377 147.004 26.7291 147.004 28.2626ZM144.335 27.5542C144.354 26.7445 144.171 26.045 143.792 25.4544C143.307 24.6946 142.563 24.3154 141.561 24.3154C140.646 24.3154 139.902 24.6857 139.333 25.4287C138.867 26.0193 138.59 26.7278 138.505 27.5529L144.335 27.5542Z" fill="#525D7B"/>
<path d="M42.3624 2.42541H43.7396V11.1069H42.3624V2.42541ZM42.5317 1.23708C42.3853 1.09145 42.3125 0.921938 42.3125 0.727378C42.3125 0.525536 42.3853 0.353692 42.5317 0.212432C42.6773 0.0711718 42.8509 0.000103951 43.0512 0.000103951C43.2596 0.000103951 43.437 0.0711718 43.5835 0.212432C43.7291 0.353692 43.8025 0.525536 43.8025 0.727378C43.8025 0.921938 43.7291 1.09145 43.5835 1.23708C43.437 1.38271 43.2596 1.45523 43.0512 1.45523C42.8509 1.45523 42.6773 1.38271 42.5317 1.23708Z" fill="#525D7B"/>
<path d="M46.0039 2.42541H47.6316L51.6885 8.80308H51.7637L51.6885 7.12981V2.42541H53.0534V11.1069H51.626L47.3687 4.40159H47.2936L47.3687 6.07487V11.1069H46.0039V2.42541Z" fill="#525D7B"/>
<path d="M58.1537 9.84579C59.1724 9.84579 59.9634 9.57317 60.5267 9.02764C61.09 8.48212 61.3716 7.72805 61.3716 6.76603C61.3716 5.80429 61.09 5.05022 60.5267 4.5047C59.9634 3.95888 59.1724 3.68626 58.1537 3.68626H56.7014V9.84579H58.1537ZM55.3242 2.42541H58.1913C59.118 2.42541 59.9258 2.60715 60.6142 2.97064C61.303 3.33471 61.8329 3.84587 62.2044 4.5047C62.5758 5.16382 62.7614 5.9173 62.7614 6.76603C62.7614 7.61475 62.5758 8.36882 62.2044 9.02764C61.8329 9.68647 61.303 10.1976 60.6142 10.5614C59.9258 10.9252 59.118 11.1069 58.1913 11.1069H55.3242V2.42541Z" fill="#525D7B"/>
<path d="M64.5382 2.42541H65.9154V11.1069H64.5382V2.42541ZM64.7072 1.23708C64.5611 1.09145 64.4883 0.921938 64.4883 0.727378C64.4883 0.525536 64.5611 0.353692 64.7072 0.212432C64.8528 0.0711718 65.0266 0.000103951 65.2269 0.000103951C65.4354 0.000103951 65.6128 0.0711718 65.759 0.212432C65.9049 0.353692 65.9782 0.525536 65.9782 0.727378C65.9782 0.921938 65.9049 1.09145 65.759 1.23708C65.6128 1.38271 65.4354 1.45523 65.2269 1.45523C65.0266 1.45523 64.8528 1.38271 64.7072 1.23708Z" fill="#525D7B"/>
<path d="M71.2889 6.47506C71.7229 6.47506 72.088 6.34166 72.3848 6.07487C72.6808 5.80837 72.829 5.47284 72.829 5.06857C72.829 4.69664 72.6934 4.3713 72.4221 4.09228C72.1508 3.81354 71.7899 3.67432 71.3391 3.67432H69.561V6.47506H71.2889ZM68.1838 2.42541H71.3265C71.869 2.42541 72.3596 2.53842 72.7978 2.76472C73.236 2.99103 73.5821 3.30646 73.8372 3.71073C74.0913 4.115 74.2188 4.5714 74.2188 5.08081C74.2188 5.66274 74.0249 6.17827 73.6369 6.62651C73.2486 7.07505 72.7623 7.37679 72.1779 7.52999L72.1653 7.59057L74.6321 11.0341V11.1069H73.042L70.6504 7.6998H69.561V11.1069H68.1838V2.42541Z" fill="#525D7B"/>
<path d="M76.0577 2.42541H77.4352V11.1069H76.0577V2.42541ZM76.2271 1.23708C76.0809 1.09145 76.0078 0.921938 76.0078 0.727378C76.0078 0.525536 76.0809 0.353692 76.2271 0.212432C76.3726 0.0711718 76.5462 0.000103951 76.7465 0.000103951C76.9552 0.000103951 77.1326 0.0711718 77.2788 0.212432C77.4244 0.353692 77.4978 0.525536 77.4978 0.727378C77.4978 0.921938 77.4244 1.09145 77.2788 1.23708C77.1326 1.38271 76.9552 1.45523 76.7465 1.45523C76.5462 1.45523 76.3726 1.38271 76.2271 1.23708Z" fill="#525D7B"/>
<path d="M79.6992 2.42541H81.3269L85.3835 8.80308H85.4587L85.3835 7.12981V2.42541H86.7484V11.1069H85.321L81.0641 4.40159H80.9889L81.0641 6.07487V11.1069H79.6992V2.42541Z" fill="#525D7B"/>
</svg>
