<svg width="86" height="23" viewBox="0 0 86 23" fill="none" xmlns="http://www.w3.org/2000/svg">
<path d="M14.4849 12.2885C14.4607 9.70558 16.6899 8.449 16.7918 8.39049C15.5293 6.62502 13.5725 6.3838 12.8848 6.36457C11.2413 6.19868 9.64715 7.30781 8.80994 7.30781C7.95603 7.30781 6.6668 6.3806 5.27731 6.40784C3.48927 6.43429 1.81653 7.42722 0.899114 8.9691C-0.994205 12.113 0.417847 16.733 2.23179 19.2742C3.13918 20.5188 4.19947 21.9084 5.58729 21.8595C6.94503 21.8058 7.4522 21.0293 9.09068 21.0293C10.7141 21.0293 11.1904 21.8595 12.6058 21.8283C14.0629 21.8058 14.9804 20.5781 15.856 19.3223C16.9046 17.8958 17.3257 16.491 17.3424 16.4189C17.3082 16.4077 14.5125 15.3843 14.4849 12.2885Z" fill="#050020"/>
<path d="M11.81 4.69292C12.5403 3.81699 13.0399 2.62532 12.9012 1.41602C11.8443 1.46089 10.5225 2.11724 9.76129 2.97393C9.08785 3.72884 8.48626 4.9662 8.64167 6.12982C9.82896 6.21477 11.048 5.55522 11.81 4.69292Z" fill="#050020"/>
<path d="M33.379 20.1195H31.6348L30.6793 17.2399H27.3583L26.4482 20.1195H24.75L28.0403 10.3159H30.0726L33.379 20.1195ZM30.3913 16.0317L29.5273 13.4718C29.4359 13.2103 29.2646 12.5944 29.0119 11.625H28.9812C28.8806 12.0419 28.7185 12.6578 28.4958 13.4718L27.6471 16.0317H30.3913Z" fill="#525D7B"/>
<path d="M41.8436 16.498C41.8436 17.7002 41.5049 18.6505 40.8275 19.3482C40.2207 19.9692 39.4673 20.2793 38.5679 20.2793C37.5971 20.2793 36.8997 19.9449 36.475 19.276H36.4442V22.9998H34.8068V15.3775C34.8068 14.6217 34.786 13.846 34.7461 13.0504H36.1862L36.2776 14.1709H36.3083C36.8544 13.3266 37.6831 12.9053 38.7952 12.9053C39.6647 12.9053 40.3905 13.2346 40.9711 13.8939C41.5533 14.5539 41.8436 15.4217 41.8436 16.498ZM40.1754 16.5555C40.1754 15.8674 40.0141 15.3002 39.69 14.8538C39.3359 14.3882 38.8605 14.1554 38.2645 14.1554C37.8605 14.1554 37.4934 14.2851 37.1654 14.5407C36.8367 14.7985 36.6217 15.1352 36.5211 15.5521C36.4704 15.7466 36.445 15.9057 36.445 16.031V17.2096C36.445 17.7238 36.6094 18.1577 36.9381 18.512C37.2668 18.8664 37.6939 19.0432 38.2192 19.0432C38.8359 19.0432 39.316 18.8148 39.6593 18.3596C40.0034 17.9036 40.1754 17.3024 40.1754 16.5555Z" fill="#525D7B"/>
<path d="M50.3194 16.498C50.3194 17.7002 49.9807 18.6505 49.3025 19.3482C48.6965 19.9692 47.9431 20.2793 47.0437 20.2793C46.0729 20.2793 45.3755 19.9449 44.9515 19.276H44.9208V22.9998H43.2833V15.3775C43.2833 14.6217 43.2626 13.846 43.2227 13.0504H44.6627L44.7541 14.1709H44.7849C45.3302 13.3266 46.1589 12.9053 47.2718 12.9053C48.1405 12.9053 48.8663 13.2346 49.4485 13.8939C50.0283 14.5539 50.3194 15.4217 50.3194 16.498ZM48.6512 16.5555C48.6512 15.8674 48.4892 15.3002 48.165 14.8538C47.811 14.3882 47.3371 14.1554 46.7403 14.1554C46.3356 14.1554 45.9692 14.2851 45.6405 14.5407C45.3117 14.7985 45.0975 15.1352 44.9968 15.5521C44.9469 15.7466 44.9208 15.9057 44.9208 16.031V17.2096C44.9208 17.7238 45.0852 18.1577 45.4124 18.512C45.7411 18.8656 46.1681 19.0432 46.695 19.0432C47.3117 19.0432 47.7918 18.8148 48.1351 18.3596C48.4792 17.9036 48.6512 17.3024 48.6512 16.5555Z" fill="#525D7B"/>
<path d="M59.7941 17.3694C59.7941 18.2033 59.4923 18.8817 58.8863 19.4055C58.2204 19.9779 57.2934 20.2637 56.1021 20.2637C55.0023 20.2637 54.1206 20.0604 53.4531 19.653L53.8325 18.344C54.5514 18.7609 55.3402 18.9701 56.1997 18.9701C56.8164 18.9701 57.2964 18.8361 57.6413 18.5694C57.9846 18.3027 58.1559 17.9447 58.1559 17.4983C58.1559 17.1005 58.0146 16.7653 57.7312 16.4935C57.4493 16.2216 56.9785 15.969 56.321 15.7354C54.5315 15.0953 53.6375 14.1575 53.6375 12.9243C53.6375 12.1184 53.9508 11.4576 54.5783 10.9434C55.2035 10.4285 56.0376 10.1714 57.0806 10.1714C58.0107 10.1714 58.7834 10.3268 59.4001 10.637L58.9908 11.9173C58.4147 11.6167 57.7634 11.4664 57.0345 11.4664C56.4585 11.4664 56.0084 11.6027 55.6858 11.8738C55.4132 12.1162 55.2765 12.4116 55.2765 12.7615C55.2765 13.149 55.4324 13.4694 55.7457 13.7214C56.0184 13.9542 56.5138 14.2061 57.2327 14.4779C58.1121 14.8175 58.758 15.2146 59.1736 15.6699C59.5875 16.1237 59.7941 16.6916 59.7941 17.3694Z" fill="#525D7B"/>
<path d="M65.2111 14.2286H63.4062V17.6607C63.4062 18.5337 63.7242 18.9698 64.3617 18.9698C64.6543 18.9698 64.897 18.9455 65.089 18.8969L65.1343 20.0895C64.8117 20.2052 64.387 20.2634 63.8609 20.2634C63.2142 20.2634 62.7088 20.0741 62.344 19.6962C61.9807 19.3175 61.7979 18.6825 61.7979 17.7904V14.2271H60.7227V13.0485H61.7979V11.7541L63.4062 11.2886V13.0485H65.2111V14.2286Z" fill="#525D7B"/>
<path d="M73.3556 16.5265C73.3556 17.6131 73.0315 18.5052 72.3848 19.2028C71.7066 19.921 70.8065 20.2791 69.6843 20.2791C68.6029 20.2791 67.7419 19.935 67.0998 19.247C66.4578 18.5589 66.1367 17.6904 66.1367 16.6436C66.1367 15.5482 66.467 14.6509 67.1298 13.9533C67.7911 13.2549 68.6836 12.9058 69.8057 12.9058C70.8871 12.9058 71.7573 13.2498 72.414 13.9386C73.0422 14.6067 73.3556 15.4694 73.3556 16.5265ZM71.6567 16.5773C71.6567 15.9254 71.5115 15.3662 71.2174 14.8999C70.874 14.3356 70.3833 14.0542 69.7473 14.0542C69.0891 14.0542 68.5891 14.3364 68.2458 14.8999C67.9516 15.367 67.8065 15.9349 67.8065 16.6068C67.8065 17.2587 67.9516 17.8179 68.2458 18.2834C68.5999 18.8477 69.0945 19.1291 69.7327 19.1291C70.3579 19.1291 70.8487 18.8418 71.2028 18.2687C71.5046 17.7935 71.6567 17.2285 71.6567 16.5773Z" fill="#525D7B"/>
<path d="M78.6736 14.4316C78.5116 14.4029 78.3388 14.3882 78.1575 14.3882C77.5815 14.3882 77.136 14.5967 76.8226 15.0144C76.55 15.3827 76.4133 15.8483 76.4133 16.4103V20.1195H74.7765L74.7919 15.2766C74.7919 14.4619 74.7712 13.72 74.7305 13.0511H76.1567L76.2166 14.4037H76.262C76.4348 13.9388 76.7074 13.5646 77.0807 13.2839C77.4455 13.0312 77.8395 12.9053 78.2643 12.9053C78.4156 12.9053 78.5523 12.9156 78.6736 12.934V14.4316Z" fill="#525D7B"/>
<path d="M85.9991 16.2506C85.9991 16.532 85.9799 16.7692 85.9392 16.9629H81.0268C81.046 17.6613 81.2833 18.1954 81.7395 18.5637C82.1535 18.893 82.6888 19.058 83.3463 19.058C84.0736 19.058 84.7372 18.9468 85.334 18.7235L85.5905 19.8138C84.8931 20.1055 84.0698 20.2507 83.1197 20.2507C81.9769 20.2507 81.0798 19.928 80.4269 19.2834C79.7756 18.6388 79.4492 17.7732 79.4492 16.6874C79.4492 15.6214 79.7526 14.7338 80.3601 14.0258C80.9961 13.27 81.8555 12.8921 82.9369 12.8921C83.9991 12.8921 84.8033 13.27 85.3494 14.0258C85.7818 14.6262 85.9991 15.3688 85.9991 16.2506ZM84.4377 15.8432C84.4484 15.3776 84.3417 14.9754 84.1197 14.6358C83.8363 14.1989 83.4008 13.9809 82.8148 13.9809C82.2795 13.9809 81.844 14.1938 81.5114 14.621C81.2388 14.9607 81.0767 15.368 81.0268 15.8424L84.4377 15.8432Z" fill="#525D7B"/>
<path d="M24.7792 1.39431H25.5851V6.38623H24.7792V1.39431ZM24.8783 0.711018C24.7926 0.62728 24.75 0.52981 24.75 0.417937C24.75 0.301877 24.7926 0.203066 24.8783 0.121841C24.9635 0.0406156 25.065 -0.000248909 25.1823 -0.000248909C25.3042 -0.000248909 25.4081 0.0406156 25.4938 0.121841C25.579 0.203066 25.6219 0.301877 25.6219 0.417937C25.6219 0.52981 25.579 0.62728 25.4938 0.711018C25.4081 0.794755 25.3042 0.836456 25.1823 0.836456C25.065 0.836456 24.9635 0.794755 24.8783 0.711018Z" fill="#525D7B"/>
<path d="M26.9102 1.39431H27.8624L30.2359 5.0615H30.2799L30.2359 4.09936V1.39431H31.0344V6.38623H30.1993L27.7086 2.53063H27.6647L27.7086 3.49277V6.38623H26.9102V1.39431Z" fill="#525D7B"/>
<path d="M34.0184 5.66106C34.6144 5.66106 35.0772 5.50431 35.4067 5.19063C35.7363 4.87695 35.901 4.44336 35.901 3.89019C35.901 3.33719 35.7363 2.90359 35.4067 2.58991C35.0772 2.27607 34.6144 2.11931 34.0184 2.11931H33.1687V5.66106H34.0184ZM32.363 1.39431H34.0404C34.5826 1.39431 35.0552 1.49882 35.4579 1.70782C35.8609 1.91717 36.1709 2.21109 36.3882 2.58991C36.6055 2.96891 36.7141 3.40217 36.7141 3.89019C36.7141 4.37821 36.6055 4.8118 36.3882 5.19063C36.1709 5.56946 35.8609 5.86337 35.4579 6.07255C35.0552 6.28172 34.5826 6.38623 34.0404 6.38623H32.363V1.39431Z" fill="#525D7B"/>
<path d="M37.7555 1.39431H38.5615V6.38623H37.7555V1.39431ZM37.8545 0.711018C37.7689 0.62728 37.7263 0.52981 37.7263 0.417937C37.7263 0.301877 37.7689 0.203066 37.8545 0.121841C37.9396 0.0406156 38.0414 -0.000248909 38.1586 -0.000248909C38.2806 -0.000248909 38.3844 0.0406156 38.4699 0.121841C38.5553 0.203066 38.5983 0.301877 38.5983 0.417937C38.5983 0.52981 38.5553 0.62728 38.4699 0.711018C38.3844 0.794755 38.2806 0.836456 38.1586 0.836456C38.0414 0.836456 37.9396 0.794755 37.8545 0.711018Z" fill="#525D7B"/>
<path d="M41.7072 3.72288C41.9611 3.72288 42.1747 3.64618 42.3484 3.49277C42.5215 3.33953 42.6083 3.1466 42.6083 2.91415C42.6083 2.70028 42.5289 2.51321 42.3702 2.35277C42.2115 2.1925 42.0003 2.11244 41.7366 2.11244H40.6963V3.72288H41.7072ZM39.8906 1.39431H41.7292C42.0466 1.39431 42.3336 1.45929 42.59 1.58942C42.8463 1.71955 43.0489 1.90092 43.1981 2.13338C43.3468 2.36583 43.4214 2.62827 43.4214 2.92118C43.4214 3.25579 43.3079 3.55222 43.0809 3.80997C42.8537 4.06788 42.5692 4.24138 42.2273 4.32947L42.2199 4.36431L43.6631 6.34436V6.38623H42.7329L41.3336 4.42711H40.6963V6.38623H39.8906V1.39431Z" fill="#525D7B"/>
<path d="M44.4902 1.39431H45.2963V6.38623H44.4902V1.39431ZM44.5892 0.711018C44.5037 0.62728 44.4609 0.52981 44.4609 0.417937C44.4609 0.301877 44.5037 0.203066 44.5892 0.121841C44.6744 0.0406156 44.776 -0.000248909 44.8932 -0.000248909C45.0154 -0.000248909 45.1192 0.0406156 45.2047 0.121841C45.2899 0.203066 45.3329 0.301877 45.3329 0.417937C45.3329 0.52981 45.2899 0.62728 45.2047 0.711018C45.1192 0.794755 45.0154 0.836456 44.8932 0.836456C44.776 0.836456 44.6744 0.794755 44.5892 0.711018Z" fill="#525D7B"/>
<path d="M46.625 1.39431H47.5773L49.9506 5.0615H49.9946L49.9506 4.09936V1.39431H50.7491V6.38623H49.914L47.4235 2.53063H47.3795L47.4235 3.49277V6.38623H46.625V1.39431Z" fill="#525D7B"/>
</svg>
