<svg width="28" height="28" viewBox="0 0 28 28" fill="none" xmlns="http://www.w3.org/2000/svg">
<path d="M14.0007 2.33301C20.4442 2.33301 25.6673 7.55618 25.6673 13.9997C25.6673 20.4432 20.4442 25.6663 14.0007 25.6663C7.55715 25.6663 2.33398 20.4432 2.33398 13.9997C2.33398 7.55618 7.55715 2.33301 14.0007 2.33301ZM14.0007 4.66634C11.5253 4.66634 9.15133 5.64967 7.40099 7.40001C5.65065 9.15035 4.66732 11.5243 4.66732 13.9997C4.66732 16.475 5.65065 18.849 7.40099 20.5993C9.15133 22.3497 11.5253 23.333 14.0007 23.333C16.476 23.333 18.85 22.3497 20.6003 20.5993C22.3507 18.849 23.334 16.475 23.334 13.9997C23.334 11.5243 22.3507 9.15035 20.6003 7.40001C18.85 5.64967 16.476 4.66634 14.0007 4.66634ZM11.5262 9.87434L14.0007 12.35L16.4752 9.87434C16.5835 9.76595 16.7122 9.67996 16.8539 9.6213C16.9955 9.56264 17.1473 9.53244 17.3006 9.53244C17.4539 9.53244 17.6057 9.56264 17.7473 9.6213C17.8889 9.67996 18.0176 9.76595 18.126 9.87434C18.2344 9.98274 18.3204 10.1114 18.379 10.253C18.4377 10.3947 18.4679 10.5465 18.4679 10.6998C18.4679 10.8531 18.4377 11.0048 18.379 11.1465C18.3204 11.2881 18.2344 11.4168 18.126 11.5252L15.6503 13.9985L18.126 16.4742C18.3449 16.6931 18.4679 16.99 18.4679 17.2996C18.4679 17.6092 18.3449 17.9061 18.126 18.125C17.9071 18.3439 17.6102 18.4669 17.3006 18.4669C16.991 18.4669 16.6941 18.3439 16.4752 18.125L14.0007 15.6493L11.5262 18.125C11.3072 18.3439 11.0103 18.4669 10.7007 18.4669C10.3911 18.4669 10.0942 18.3439 9.87532 18.125C9.6564 17.9061 9.53342 17.6092 9.53342 17.2996C9.53342 16.99 9.6564 16.6931 9.87532 16.4742L12.351 13.9997L9.87648 11.5252C9.65757 11.3064 9.53452 11.0097 9.53442 10.7002C9.53431 10.3907 9.65714 10.0938 9.8759 9.87493C10.0947 9.65601 10.3914 9.53296 10.7009 9.53286C11.0104 9.53275 11.3072 9.65558 11.5262 9.87434Z" fill="#525D7B"/>
</svg>
