<svg width="44" height="44" viewBox="0 0 44 44" fill="none" xmlns="http://www.w3.org/2000/svg">
<g clip-path="url(#clip0_1056_33587)">
<path d="M24.3823 5.77173L40.2113 33.1874C40.4527 33.6054 40.5797 34.0797 40.5797 34.5624C40.5797 35.0451 40.4527 35.5193 40.2113 35.9374C39.97 36.3554 39.6228 36.7026 39.2048 36.9439C38.7867 37.1853 38.3125 37.3124 37.8298 37.3124H6.17181C5.68909 37.3124 5.21487 37.1853 4.79683 36.9439C4.37879 36.7026 4.03164 36.3554 3.79029 35.9374C3.54893 35.5193 3.42187 35.0451 3.42188 34.5624C3.42188 34.0797 3.54895 33.6054 3.79031 33.1874L19.6193 5.77173C20.6771 3.9384 23.3226 3.9384 24.3823 5.77173ZM22.0008 8.98006L7.75947 33.6457H36.2421L22.0008 8.98006ZM22.0008 27.5004C22.487 27.5004 22.9534 27.6936 23.2972 28.0374C23.641 28.3812 23.8341 28.8475 23.8341 29.3337C23.8341 29.82 23.641 30.2863 23.2972 30.6301C22.9534 30.9739 22.487 31.1671 22.0008 31.1671C21.5146 31.1671 21.0483 30.9739 20.7044 30.6301C20.3606 30.2863 20.1675 29.82 20.1675 29.3337C20.1675 28.8475 20.3606 28.3812 20.7044 28.0374C21.0483 27.6936 21.5146 27.5004 22.0008 27.5004ZM22.0008 14.6671C22.487 14.6671 22.9534 14.8602 23.2972 15.204C23.641 15.5479 23.8341 16.0142 23.8341 16.5004V23.8337C23.8341 24.32 23.641 24.7863 23.2972 25.1301C22.9534 25.4739 22.487 25.6671 22.0008 25.6671C21.5146 25.6671 21.0483 25.4739 20.7044 25.1301C20.3606 24.7863 20.1675 24.32 20.1675 23.8337V16.5004C20.1675 16.0142 20.3606 15.5479 20.7044 15.204C21.0483 14.8602 21.5146 14.6671 22.0008 14.6671Z" fill="#002B4B"/>
</g>
<defs>
<clipPath id="clip0_1056_33587">
<rect width="44" height="44" fill="white"/>
</clipPath>
</defs>
</svg>
