<svg width="44" height="44" viewBox="0 0 44 44" fill="none" xmlns="http://www.w3.org/2000/svg">
<path d="M21.9099 43.5604C19.0112 43.5604 16.1993 42.9906 13.5521 41.8664C10.9952 40.7805 8.69908 39.226 6.72675 37.246C4.75443 35.266 3.20628 32.9599 2.1248 30.393C1.00521 27.7354 0.437744 24.9119 0.437744 22.0009C0.437744 19.0898 1.00521 16.2668 2.1248 13.6088C3.20628 11.0414 4.75443 8.73575 6.72675 6.75531C8.69908 4.77487 10.9952 3.22035 13.5521 2.13443C16.1988 1.01023 19.0107 0.44043 21.9099 0.44043C24.809 0.44043 27.6204 1.01023 30.2676 2.13443C32.8245 3.22035 35.1206 4.77487 37.093 6.75531C39.0653 8.73575 40.6134 11.0414 41.6949 13.6088C42.8145 16.2664 43.382 19.0898 43.382 22.0009C43.382 24.9119 42.8145 27.7349 41.6949 30.393C40.6134 32.9604 39.0653 35.266 37.093 37.246C35.1206 39.226 32.8245 40.7809 30.2676 41.8664C27.6209 42.9906 24.809 43.5604 21.9099 43.5604Z" fill="#002B4B"/>
<path d="M21.9101 0.880488C24.7501 0.880488 27.5046 1.43885 30.097 2.53973C32.6017 3.60321 34.851 5.12649 36.783 7.06645C38.715 9.00641 40.2316 11.2649 41.2911 13.78C42.3875 16.383 42.9436 19.1488 42.9436 22.0005C42.9436 24.8521 42.3875 27.618 41.2911 30.221C40.232 32.736 38.715 34.9946 36.783 36.9345C34.851 38.8745 32.6017 40.3973 30.097 41.4613C27.5046 42.5621 24.7501 43.1205 21.9101 43.1205C19.0702 43.1205 16.3156 42.5621 13.7233 41.4613C11.2185 40.3978 8.96927 38.8745 7.03726 36.9345C5.10524 34.9946 3.58864 32.736 2.52908 30.221C1.43271 27.618 0.876639 24.8521 0.876639 22.0005C0.876639 19.1488 1.43271 16.383 2.52908 13.78C3.5882 11.2649 5.10524 9.00641 7.03726 7.06645C8.96927 5.12649 11.2185 3.60365 13.7233 2.53973C16.3156 1.43885 19.0702 0.880488 21.9101 0.880488ZM21.9101 0.000488281C9.80973 0.000488281 0.000244141 9.85033 0.000244141 22.0005C0.000244141 34.1507 9.80973 44.0005 21.9101 44.0005C34.0105 44.0005 43.82 34.1507 43.82 22.0005C43.82 9.85033 34.0105 0.000488281 21.9101 0.000488281Z" fill="url(#paint0_linear_1304_41155)"/>
<path d="M20.1147 18.9369C20.1147 19.0698 20.0075 19.1773 19.8755 19.1773C19.7435 19.1773 19.6363 19.0698 19.6363 18.9369C19.6363 18.8041 19.7435 18.6966 19.8755 18.6966C20.0075 18.6966 20.1147 18.8041 20.1147 18.9369Z" fill="#F8C875" stroke="url(#paint1_linear_1304_41155)" stroke-width="0.0611811"/>
<path d="M30.2183 27.6115C32.9799 19.4167 33.2094 14.1556 32.5717 12.6595C32.5647 12.643 32.551 12.6319 32.5338 12.6269L32.3676 12.5783M32.3676 12.5783L29.0894 11.6232C29.06 11.6146 29.0289 11.6291 29.0164 11.657L27.634 14.7487M32.3676 12.5783L28.8405 20.65L28.8399 20.6506M28.1706 26.1414C28.6931 26.3331 29.2786 26.6292 29.7711 27.0869C29.9418 27.246 30.0911 27.4217 30.2177 27.6115C30.7164 28.3579 30.8614 29.3089 30.6044 30.1948L29.579 33.7321C29.3857 34.398 28.6919 34.7807 28.0287 34.5872L27.07 34.3071M27.07 34.3071C26.6013 35.3625 25.4064 35.9664 24.2342 35.6236L14.7682 32.8566M27.07 34.3071C27.1648 34.0945 27.2296 33.8648 27.2596 33.6209L29.0277 19.1141C29.2272 17.4757 28.6814 15.8963 27.6346 14.7487C27.0889 14.1504 26.4079 13.67 25.6242 13.3591C25.467 13.2964 25.3049 13.2412 25.1397 13.1926L22.95 12.5525C22.7683 12.499 22.5847 12.456 22.4018 12.4229C21.5912 12.2742 20.7774 12.3147 20.0133 12.5212C18.5168 12.9248 17.2118 13.9636 16.5046 15.4534L13.4712 21.8436M20.5065 9.11472L17.1789 8.13855M17.1789 8.13855L16.9855 8.08203M17.1789 8.13855L15.8408 16.8503V16.8509M16.9855 8.08263C15.6606 8.96116 13.0439 13.4883 10.9872 21.8597C10.9751 21.909 11.0247 21.9525 11.072 21.9339C11.2457 21.8659 11.4272 21.8144 11.6144 21.7797C12.2745 21.6593 12.9267 21.7244 13.47 21.8442M20.0121 12.5212L20.5064 9.11472M25.6236 13.3591C25.8047 13.157 25.9448 12.9113 26.025 12.633C26.3125 11.6414 25.7448 10.6032 24.7573 10.3145C23.7698 10.0258 22.7359 10.5959 22.4483 11.5874C22.3669 11.8681 22.3541 12.1526 22.4 12.4223M28.6202 22.3645C28.6202 22.3645 27.787 23.9593 26.8338 23.6804L21.4168 22.0973L21.3299 22.0721L15.9129 20.489C14.9597 20.2101 15.109 18.4156 15.109 18.4156M21.1194 19.0183C20.95 19.6026 21.2846 20.2144 21.8665 20.3846C22.4483 20.5548 23.0577 20.2187 23.2271 19.6345M23.571 17.0248L27.0999 18.0563M26.3211 18.7886L26.5774 17.9039M18.3883 15.5099L21.9173 16.5413M13.087 30.0952C18.2489 27.7024 23.9075 29.4434 23.6799 29.4361C19.5478 29.2966 16.4434 31.2158 14.753 32.8192M11.169 25.1364C11.3263 25.0786 11.4841 25.0227 11.6413 24.9693C12.6233 24.6357 13.3409 24.4969 14.4465 24.3875C18.1174 24.022 22.14 24.699 24.3193 25.1309C24.531 25.1726 24.5151 25.4221 24.2997 25.4325C20.4092 25.6156 16.6967 27.676 13.0864 30.0959" stroke="url(#paint2_linear_1304_41155)" stroke-width="0.917717" stroke-miterlimit="10" stroke-linecap="round"/>
<defs>
<linearGradient id="paint0_linear_1304_41155" x1="0.000167871" y1="21.9993" x2="43.8211" y2="21.9993" gradientUnits="userSpaceOnUse">
<stop stop-color="#C58537"/>
<stop offset="0.02" stop-color="#C8893B"/>
<stop offset="0.04" stop-color="#D39747"/>
<stop offset="0.07" stop-color="#E6AF5B"/>
<stop offset="0.09" stop-color="#FFCE77"/>
<stop offset="0.14" stop-color="#EFBF71"/>
<stop offset="0.24" stop-color="#C69B61"/>
<stop offset="0.28" stop-color="#B1885A"/>
<stop offset="0.52" stop-color="#FFCE77"/>
<stop offset="0.57" stop-color="#EFC071"/>
<stop offset="0.67" stop-color="#C69E62"/>
<stop offset="0.72" stop-color="#B08C5A"/>
<stop offset="0.76" stop-color="#C09960"/>
<stop offset="0.83" stop-color="#ECBE70"/>
<stop offset="0.85" stop-color="#FFCE77"/>
<stop offset="0.89" stop-color="#F2BE69"/>
<stop offset="0.97" stop-color="#D19545"/>
<stop offset="1" stop-color="#C58537"/>
</linearGradient>
<linearGradient id="paint1_linear_1304_41155" x1="19.6057" y1="18.9369" x2="20.1453" y2="18.9369" gradientUnits="userSpaceOnUse">
<stop stop-color="#C58537"/>
<stop offset="0.02" stop-color="#C8893B"/>
<stop offset="0.04" stop-color="#D39747"/>
<stop offset="0.07" stop-color="#E6AF5B"/>
<stop offset="0.09" stop-color="#FFCE77"/>
<stop offset="0.14" stop-color="#EFBF71"/>
<stop offset="0.24" stop-color="#C69B61"/>
<stop offset="0.28" stop-color="#B1885A"/>
<stop offset="0.52" stop-color="#FFCE77"/>
<stop offset="0.57" stop-color="#EFC071"/>
<stop offset="0.67" stop-color="#C69E62"/>
<stop offset="0.72" stop-color="#B08C5A"/>
<stop offset="0.76" stop-color="#C09960"/>
<stop offset="0.83" stop-color="#ECBE70"/>
<stop offset="0.85" stop-color="#FFCE77"/>
<stop offset="0.89" stop-color="#F2BE69"/>
<stop offset="0.97" stop-color="#D19545"/>
<stop offset="1" stop-color="#C58537"/>
</linearGradient>
<linearGradient id="paint2_linear_1304_41155" x1="10.9572" y1="21.9002" x2="32.8677" y2="21.9002" gradientUnits="userSpaceOnUse">
<stop stop-color="#C58537"/>
<stop offset="0.02" stop-color="#C8893B"/>
<stop offset="0.04" stop-color="#D39747"/>
<stop offset="0.07" stop-color="#E6AF5B"/>
<stop offset="0.09" stop-color="#FFCE77"/>
<stop offset="0.14" stop-color="#EFBF71"/>
<stop offset="0.24" stop-color="#C69B61"/>
<stop offset="0.28" stop-color="#B1885A"/>
<stop offset="0.52" stop-color="#FFCE77"/>
<stop offset="0.57" stop-color="#EFC071"/>
<stop offset="0.67" stop-color="#C69E62"/>
<stop offset="0.72" stop-color="#B08C5A"/>
<stop offset="0.76" stop-color="#C09960"/>
<stop offset="0.83" stop-color="#ECBE70"/>
<stop offset="0.85" stop-color="#FFCE77"/>
<stop offset="0.89" stop-color="#F2BE69"/>
<stop offset="0.97" stop-color="#D19545"/>
<stop offset="1" stop-color="#C58537"/>
</linearGradient>
</defs>
</svg>
