<svg width="78" height="77" viewBox="0 0 78 77" fill="none" xmlns="http://www.w3.org/2000/svg">
<path d="M38.9971 75.9766C33.9256 75.9766 29.0059 74.9827 24.3745 73.0219C19.901 71.1279 15.8836 68.4165 12.4329 64.963C8.98212 61.5095 6.27349 57.4874 4.38135 53.0101C2.42252 48.3748 1.42969 43.4501 1.42969 38.3727C1.42969 33.2953 2.42252 28.3714 4.38135 23.7353C6.27349 19.2573 8.98212 15.2359 12.4329 11.7817C15.8836 8.3274 19.901 5.61603 24.3745 3.72198C29.0052 1.76117 33.9249 0.767334 38.9971 0.767334C44.0694 0.767334 48.9883 1.76117 53.6198 3.72198C58.0933 5.61603 62.1106 8.3274 65.5613 11.7817C69.0121 15.2359 71.7207 19.2573 73.6129 23.7353C75.5717 28.3707 76.5646 33.2953 76.5646 38.3727C76.5646 43.4501 75.5717 48.374 73.6129 53.0101C71.7207 57.4881 69.0121 61.5095 65.5613 64.963C62.1106 68.4165 58.0933 71.1286 53.6198 73.0219C48.9891 74.9827 44.0694 75.9766 38.9971 75.9766Z" fill="#FFFEFD"/>
<path d="M38.9974 1.53488C43.9662 1.53488 48.7854 2.50877 53.321 4.4289C57.7033 6.28381 61.6386 8.94069 65.0188 12.3243C68.399 15.708 71.0525 19.6473 72.9063 24.034C74.8245 28.5741 75.7974 33.3983 75.7974 38.3721C75.7974 43.3458 74.8245 48.17 72.9063 52.7102C71.0533 57.0969 68.399 61.0361 65.0188 64.4198C61.6386 67.8034 57.7033 70.4595 53.321 72.3152C48.7854 74.2354 43.9662 75.2092 38.9974 75.2092C34.0286 75.2092 29.2094 74.2354 24.6738 72.3152C20.2915 70.4603 16.3562 67.8034 12.976 64.4198C9.59573 61.0361 6.94229 57.0969 5.08849 52.7102C3.17029 48.17 2.1974 43.3458 2.1974 38.3721C2.1974 33.3983 3.17029 28.5741 5.08849 24.034C6.94153 19.6473 9.59573 15.708 12.976 12.3243C16.3562 8.94069 20.2915 6.28458 24.6738 4.4289C29.2094 2.50877 34.0286 1.53488 38.9974 1.53488ZM38.9974 0C17.8267 0 0.664062 17.1799 0.664062 38.3721C0.664062 59.5642 17.8267 76.7441 38.9974 76.7441C60.1681 76.7441 77.3307 59.5642 77.3307 38.3721C77.3307 17.1799 60.1681 0 38.9974 0Z" fill="#002B4B"/>
<path d="M26.4498 57.3797L43.0747 62.2242C45.1334 62.8244 47.232 61.7671 48.055 59.9192C48.2216 59.5471 48.3355 59.1448 48.3881 58.7178L49.9892 45.6224L51.1647 36.0087L51.4935 33.3186C51.8438 30.45 50.8853 27.6847 49.0468 25.6754C48.0884 24.6278 46.8924 23.7867 45.516 23.2424C45.2398 23.1327 44.9551 23.0359 44.665 22.9509L40.8193 21.8302C40.5002 21.7366 40.1778 21.6613 39.8565 21.6032C38.4328 21.3429 37.0037 21.4139 35.6616 21.7753C33.0334 22.482 30.7414 24.3008 29.4993 26.9092L28.3345 29.354L24.1719 38.0975" stroke="#002B4B" stroke-width="1.61177" stroke-miterlimit="10" stroke-linecap="round"/>
<path d="M45.5164 23.2423C45.8345 22.8884 46.0806 22.4582 46.2213 21.9709C46.7263 20.2349 45.7292 18.4172 43.9949 17.9116C42.2607 17.4061 40.4447 18.4043 39.9397 20.1403C39.7968 20.6318 39.7742 21.1298 39.8548 21.602" stroke="#002B4B" stroke-width="1.61177" stroke-miterlimit="10" stroke-linecap="round"/>
<path d="M35.6562 21.7752L36.5245 15.811" stroke="#002B4B" stroke-width="1.61177" stroke-miterlimit="10" stroke-linecap="round"/>
<path d="M30.682 14.1018L28.332 29.3549V29.3559" stroke="#002B4B" stroke-width="1.61177" stroke-miterlimit="10" stroke-linecap="round"/>
<path d="M36.5237 15.811L30.6794 14.1019L30.3398 14.0029" stroke="#002B4B" stroke-width="1.61177" stroke-miterlimit="10" stroke-linecap="round"/>
<path d="M19.7539 38.3394C23.3739 23.5457 28.0029 15.5497 30.3411 14.004" stroke="#002B4B" stroke-width="1.61177" stroke-miterlimit="10" stroke-linecap="round"/>
<path d="M51.509 20.1769L49.043 25.6753" stroke="#002B4B" stroke-width="1.61177" stroke-miterlimit="10" stroke-linecap="round"/>
<path d="M51.1602 36.0087L51.1612 36.0076L57.3558 21.8754" stroke="#002B4B" stroke-width="1.61177" stroke-miterlimit="10" stroke-linecap="round"/>
<path d="M57.6948 21.9742L57.3553 21.8752L51.5078 20.1769" stroke="#002B4B" stroke-width="1.61177" stroke-miterlimit="10" stroke-linecap="round"/>
<path d="M57.6961 21.9741C58.8394 24.534 58.4591 33.768 53.5818 48.1961" stroke="#002B4B" stroke-width="1.61177" stroke-miterlimit="10" stroke-linecap="round"/>
<path d="M49.9877 45.6223C50.9053 45.9579 51.9336 46.4763 52.7986 47.2777C53.0984 47.5562 53.3606 47.8639 53.583 48.1962C54.4587 49.5031 54.7134 51.1681 54.2621 52.7191L52.4612 58.9124C52.1217 60.0783 50.9032 60.7484 49.7384 60.4096L48.0546 59.9192" stroke="#002B4B" stroke-width="1.61177" stroke-miterlimit="10" stroke-linecap="round"/>
<path d="M19.7578 38.3389C20.1231 38.1777 20.51 38.0595 20.9118 37.9854C22.0712 37.7748 23.2167 37.8887 24.1708 38.0982" stroke="#002B4B" stroke-width="1.61177" stroke-miterlimit="10" stroke-linecap="round"/>
<path d="M50.7796 39.0096C50.7796 39.0096 49.3161 41.8019 47.642 41.3136L38.1283 38.5418L37.9757 38.4977L28.462 35.7258C26.7879 35.2375 27.0501 32.0957 27.0501 32.0957" stroke="#002B4B" stroke-width="1.61177" stroke-miterlimit="10" stroke-linecap="round"/>
<path d="M37.6047 33.151C37.307 34.1739 37.8948 35.2452 38.9167 35.5431C39.9385 35.8411 41.0087 35.2527 41.3064 34.2298" stroke="#002B4B" stroke-width="1.61177" stroke-miterlimit="10" stroke-linecap="round"/>
<path d="M41.9102 29.6608L48.1079 31.4667" stroke="#002B4B" stroke-width="1.61177" stroke-miterlimit="10" stroke-linecap="round"/>
<path d="M46.7422 32.7487L47.1924 31.1998" stroke="#002B4B" stroke-width="1.61177" stroke-miterlimit="10" stroke-linecap="round"/>
<path d="M32.8086 27.0082L39.0064 28.8141" stroke="#002B4B" stroke-width="1.61177" stroke-miterlimit="10" stroke-linecap="round"/>
<path d="M35.419 33.4813C35.6807 33.4813 35.8928 33.2691 35.8928 33.0074C35.8928 32.7457 35.6807 32.5336 35.419 32.5336C35.1573 32.5336 34.9451 32.7457 34.9451 33.0074C34.9451 33.2691 35.1573 33.4813 35.419 33.4813Z" fill="#002B4B"/>
<path d="M23.5 52.5449C32.5657 48.3555 42.5038 51.4037 42.1041 51.3908C34.8468 51.1467 29.3948 54.5068 26.4259 57.3141" stroke="#002B4B" stroke-width="1.61177" stroke-linecap="round"/>
<path d="M20.1328 43.8628C20.409 43.7617 20.6862 43.6638 20.9623 43.5702C22.6869 42.9862 23.9473 42.7431 25.889 42.5516C32.336 41.9117 39.401 43.097 43.2284 43.8531C43.6001 43.9263 43.5722 44.3629 43.194 44.3812C36.3612 44.7018 29.841 48.3093 23.5003 52.5461" stroke="#002B4B" stroke-width="1.61177" stroke-linecap="round"/>
</svg>
