<svg width="86" height="21" viewBox="0 0 86 21" fill="none" xmlns="http://www.w3.org/2000/svg">
<path d="M71.9828 18.0403H73.368V8.96044H71.9828V18.0403ZM84.4594 12.231L82.8716 16.1679H82.8241L81.176 12.231H79.6839L82.1552 17.7331L80.7462 20.7939H82.1909L85.9999 12.231H84.4594ZM76.6038 17.0089C76.1496 17.0089 75.5171 16.7867 75.5171 16.2377C75.5171 15.5367 76.3047 15.2686 76.9854 15.2686C77.5942 15.2686 77.8807 15.3972 78.2512 15.5722C78.1435 16.4134 77.4034 17.0089 76.6038 17.0089ZM76.7709 12.0328C75.7679 12.0328 74.7287 12.465 74.2988 13.4223L75.5289 13.925C75.7918 13.4223 76.281 13.2588 76.7946 13.2588C77.511 13.2588 78.2392 13.6794 78.2512 14.4268V14.5205C78.0002 14.3804 77.4628 14.1705 76.8066 14.1705C75.4814 14.1705 74.1319 14.883 74.1319 16.2143C74.1319 17.4295 75.2186 18.2118 76.4361 18.2118C77.3677 18.2118 77.8807 17.8036 78.2037 17.3242H78.2512V18.0251H79.5882V14.5439C79.5882 12.932 78.3589 12.0328 76.7709 12.0328ZM68.21 13.3367H66.2398V10.2235H68.21C69.2457 10.2235 69.8335 11.0632 69.8335 11.7801C69.8335 12.4839 69.2457 13.3367 68.21 13.3367ZM68.1745 8.96044H64.8554V18.0403H66.2398V14.6004H68.1745C69.7096 14.6004 71.2189 13.5123 71.2189 11.7801C71.2189 10.0477 69.7096 8.96044 68.1745 8.96044ZM50.0751 17.0105C49.1183 17.0105 48.3173 16.2267 48.3173 15.1503C48.3173 14.0622 49.1183 13.2661 50.0751 13.2661C51.0201 13.2661 51.761 14.0622 51.761 15.1503C51.761 16.2267 51.0201 17.0105 50.0751 17.0105ZM51.6653 12.7395H51.6178C51.3068 12.3771 50.7092 12.0487 49.9557 12.0487C48.3766 12.0487 46.9298 13.4063 46.9298 15.1503C46.9298 16.8819 48.3766 18.2278 49.9557 18.2278C50.7092 18.2278 51.3068 17.9002 51.6178 17.5255H51.6653V17.9699C51.6653 19.1524 51.0201 19.7836 49.9794 19.7836C49.13 19.7836 48.6038 19.1872 48.3885 18.6839L47.1808 19.1757C47.5273 19.9949 48.4487 21.001 49.9794 21.001C51.6059 21.001 52.9814 20.0648 52.9814 17.7832V12.2362H51.6653V12.7395ZM53.9375 18.0403H55.3251V8.95968H53.9375V18.0403ZM57.3702 15.0449C57.3346 13.8508 58.3153 13.2429 59.0206 13.2429C59.5713 13.2429 60.0375 13.5117 60.1926 13.8981L57.3702 15.0449ZM61.6759 14.015C61.4123 13.3242 60.6113 12.0487 58.9729 12.0487C57.3465 12.0487 55.9954 13.301 55.9954 15.1387C55.9954 16.8702 57.3346 18.2278 59.1281 18.2278C60.5756 18.2278 61.4123 17.3619 61.7598 16.8587L60.6833 16.1563C60.324 16.6712 59.8341 17.0105 59.1281 17.0105C58.423 17.0105 57.9203 16.6944 57.5974 16.0749L61.8192 14.3658L61.6759 14.015ZM28.0414 12.9974V14.3077H31.2462C31.1503 15.0449 30.8994 15.5832 30.5172 15.9572C30.0502 16.414 29.3205 16.9168 28.0414 16.9168C26.0674 16.9168 24.5249 15.3609 24.5249 13.4296C24.5249 11.499 26.0674 9.94312 28.0414 9.94312C29.1059 9.94312 29.8831 10.352 30.457 10.8786L31.4019 9.95481C30.6003 9.20588 29.5364 8.63212 28.0414 8.63212C25.3384 8.63212 23.0662 10.7857 23.0662 13.4296C23.0662 16.0749 25.3384 18.2278 28.0414 18.2278C29.5001 18.2278 30.6003 17.7592 31.4613 16.8819C32.3462 16.0161 32.6217 14.7995 32.6217 13.816C32.6217 13.5117 32.5979 13.2313 32.5496 12.9974H28.0414ZM36.2651 17.0105C35.309 17.0105 34.4835 16.2383 34.4835 15.1387C34.4835 14.0266 35.309 13.2661 36.2651 13.2661C37.222 13.2661 38.0475 14.0266 38.0475 15.1387C38.0475 16.2383 37.222 17.0105 36.2651 17.0105ZM36.2651 12.0487C34.5191 12.0487 33.096 13.3482 33.096 15.1387C33.096 16.9168 34.5191 18.2278 36.2651 18.2278C38.0112 18.2278 39.435 16.9168 39.435 15.1387C39.435 13.3482 38.0112 12.0487 36.2651 12.0487ZM43.1794 17.0105C42.2225 17.0105 41.397 16.2383 41.397 15.1387C41.397 14.0266 42.2225 13.2661 43.1794 13.2661C44.1364 13.2661 44.9611 14.0266 44.9611 15.1387C44.9611 16.2383 44.1364 17.0105 43.1794 17.0105ZM43.1794 12.0487C41.4335 12.0487 40.0102 13.3482 40.0102 15.1387C40.0102 16.9168 41.4335 18.2278 43.1794 18.2278C44.9254 18.2278 46.3485 16.9168 46.3485 15.1387C46.3485 13.3482 44.9254 12.0487 43.1794 12.0487Z" fill="#525D7B"/>
<path d="M7.97411 10.3587L0.0703125 18.5665C0.0710416 18.5679 0.0710415 18.5701 0.0718327 18.5715C0.314527 19.4628 1.14596 20.1187 2.13331 20.1187C2.52824 20.1187 2.89869 20.0141 3.21642 19.831L3.24163 19.8164L12.138 14.7939L7.97411 10.3587Z" fill="#EB3131"/>
<path d="M15.9725 8.96073L15.965 8.95557L12.124 6.77724L7.79688 10.5448L12.1395 14.7925L15.9598 12.636C16.6293 12.2814 17.0845 11.5908 17.0845 10.7947C17.0845 10.0029 16.636 9.31592 15.9725 8.96073Z" fill="#F6B60B"/>
<path d="M0.0727123 2.98805C0.0252097 3.15942 0 3.3396 0 3.52554V18.0291C0 18.2151 0.0252097 18.3952 0.0735034 18.5659L8.24826 10.5681L0.0727123 2.98805Z" fill="#5778C5"/>
<path d="M8.03278 10.7778L12.1231 6.77636L3.23721 1.73559C2.91428 1.546 2.53716 1.43717 2.13405 1.43717C1.14675 1.43717 0.313813 2.09442 0.0710416 2.98633C0.0710416 2.98709 0.0703125 2.98785 0.0703125 2.98861L8.03278 10.7778Z" fill="#3BAD49"/>
<path d="M23.6195 1.26516H24.3303V5.78955H23.6195V1.26516ZM23.7069 0.645865C23.6313 0.569971 23.5938 0.481629 23.5938 0.380234C23.5938 0.275044 23.6313 0.185487 23.7069 0.111869C23.782 0.0382519 23.8716 0.0012145 23.975 0.0012145C24.0826 0.0012145 24.1742 0.0382519 24.2498 0.111869C24.3249 0.185487 24.3628 0.275044 24.3628 0.380234C24.3628 0.481629 24.3249 0.569971 24.2498 0.645865C24.1742 0.72176 24.0826 0.759555 23.975 0.759555C23.8716 0.759555 23.782 0.72176 23.7069 0.645865Z" fill="#525D7B"/>
<path d="M25.4961 1.26517H26.3357L28.4283 4.5889H28.4671L28.4283 3.71687V1.26517H29.1323V5.78955H28.396L26.2001 2.29506H26.1613L26.2001 3.16709V5.78955H25.4961V1.26517Z" fill="#525D7B"/>
<path d="M31.7681 5.1323C32.2936 5.1323 32.7016 4.99023 32.9921 4.70593C33.2827 4.42163 33.4279 4.02864 33.4279 3.52728C33.4279 3.02607 33.2827 2.63309 32.9921 2.34879C32.7016 2.06434 32.2936 1.92226 31.7681 1.92226H31.019V5.1323H31.7681ZM30.3086 1.26517H31.7875C32.2655 1.26517 32.6822 1.35988 33.0373 1.54931C33.3925 1.73905 33.6659 2.00544 33.8575 2.34879C34.0491 2.69229 34.1448 3.08497 34.1448 3.52728C34.1448 3.9696 34.0491 4.36258 33.8575 4.70593C33.6659 5.04927 33.3925 5.31566 33.0373 5.50525C32.6822 5.69483 32.2655 5.78955 31.7875 5.78955H30.3086V1.26517Z" fill="#525D7B"/>
<path d="M35.0609 1.26516H35.7717V5.78955H35.0609V1.26516ZM35.1482 0.645865C35.0727 0.569971 35.0352 0.481629 35.0352 0.380234C35.0352 0.275044 35.0727 0.185487 35.1482 0.111869C35.2233 0.0382519 35.313 0.0012145 35.4164 0.0012145C35.524 0.0012145 35.6156 0.0382519 35.691 0.111869C35.7663 0.185487 35.8042 0.275044 35.8042 0.380234C35.8042 0.481629 35.7663 0.569971 35.691 0.645865C35.6156 0.72176 35.524 0.759555 35.4164 0.759555C35.313 0.759555 35.2233 0.72176 35.1482 0.645865Z" fill="#525D7B"/>
<path d="M38.543 3.37564C38.7669 3.37564 38.9552 3.30613 39.1083 3.16709C39.261 3.0282 39.3375 2.85334 39.3375 2.64265C39.3375 2.44882 39.2675 2.27927 39.1276 2.13386C38.9876 1.98859 38.8015 1.91604 38.5689 1.91604H37.6518V3.37564H38.543ZM36.9414 1.26517H38.5624C38.8423 1.26517 39.0953 1.32406 39.3213 1.442C39.5474 1.55994 39.7259 1.72433 39.8575 1.93501C39.9886 2.1457 40.0544 2.38355 40.0544 2.64903C40.0544 2.9523 39.9543 3.22097 39.7542 3.45457C39.5539 3.68833 39.303 3.84558 39.0016 3.92543L38.9951 3.957L40.2675 5.7516V5.78955H39.4473L38.2137 4.01392H37.6518V5.78955H36.9414V1.26517Z" fill="#525D7B"/>
<path d="M40.9984 1.26516H41.7094V5.78955H40.9984V1.26516ZM41.0858 0.645865C41.0104 0.569971 40.9727 0.481629 40.9727 0.380234C40.9727 0.275044 41.0104 0.185487 41.0858 0.111869C41.161 0.0382519 41.2505 0.0012145 41.3539 0.0012145C41.4616 0.0012145 41.5532 0.0382519 41.6287 0.111869C41.7038 0.185487 41.7417 0.275044 41.7417 0.380234C41.7417 0.481629 41.7038 0.569971 41.6287 0.645865C41.5532 0.72176 41.4616 0.759555 41.3539 0.759555C41.2505 0.759555 41.161 0.72176 41.0858 0.645865Z" fill="#525D7B"/>
<path d="M42.875 1.26517H43.7146L45.8071 4.5889H45.8458L45.8071 3.71687V1.26517H46.5111V5.78955H45.7748L43.579 2.29506H43.5402L43.579 3.16709V5.78955H42.875V1.26517Z" fill="#525D7B"/>
</svg>
