<svg width="165" height="40" viewBox="0 0 165 40" fill="none" xmlns="http://www.w3.org/2000/svg">
<path d="M138.107 34.3607H140.764V17.0658H138.107V34.3607ZM162.044 23.2955L158.998 30.7941H158.907L155.744 23.2955H152.882L157.623 33.7755L154.92 39.6056H157.692L164.999 23.2955H162.044ZM146.973 32.3961C146.101 32.3961 144.888 31.9728 144.888 30.9272C144.888 29.5919 146.399 29.0813 147.705 29.0813C148.873 29.0813 149.422 29.3263 150.133 29.6595C149.927 31.2619 148.507 32.3961 146.973 32.3961ZM147.293 22.9179C145.369 22.9179 143.375 23.741 142.55 25.5645L144.91 26.522C145.415 25.5645 146.353 25.2531 147.339 25.2531C148.713 25.2531 150.11 26.0542 150.133 27.4779V27.6563C149.652 27.3894 148.621 26.9896 147.362 26.9896C144.819 26.9896 142.23 28.3467 142.23 30.8825C142.23 33.1973 144.315 34.6874 146.651 34.6874C148.438 34.6874 149.422 33.9097 150.042 32.9966H150.133V34.3318H152.698V27.7008C152.698 24.6306 150.34 22.9179 147.293 22.9179ZM130.869 25.4014H127.089V19.4715H130.869C132.856 19.4715 133.983 21.071 133.983 22.4365C133.983 23.7771 132.856 25.4014 130.869 25.4014ZM130.8 17.0658H124.433V34.3607H127.089V27.8086H130.8C133.746 27.8086 136.641 25.7359 136.641 22.4365C136.641 19.1367 133.746 17.0658 130.8 17.0658ZM96.0759 32.3991C94.2401 32.3991 92.7034 30.9062 92.7034 28.8559C92.7034 26.7834 94.2401 25.267 96.0759 25.267C97.8888 25.267 99.3103 26.7834 99.3103 28.8559C99.3103 30.9062 97.8888 32.3991 96.0759 32.3991ZM99.1267 24.264H99.0356C98.4389 23.5736 97.2924 22.9482 95.8467 22.9482C92.8171 22.9482 90.0413 25.5341 90.0413 28.8559C90.0413 32.1541 92.8171 34.7178 95.8467 34.7178C97.2924 34.7178 98.4389 34.0938 99.0356 33.3801H99.1267V34.2265C99.1267 36.4788 97.8888 37.6813 95.8923 37.6813C94.2627 37.6813 93.2531 36.5452 92.84 35.5865L90.5229 36.5233C91.1878 38.0837 92.9555 40 95.8923 40C99.0127 40 101.652 38.2167 101.652 33.8709V23.3053H99.1267V24.264ZM103.486 34.3607H106.148V17.0643H103.486V34.3607ZM110.072 28.6552C110.003 26.3807 111.885 25.2227 113.238 25.2227C114.295 25.2227 115.189 25.7348 115.487 26.4709L110.072 28.6552ZM118.333 26.6935C117.827 25.3777 116.29 22.9482 113.147 22.9482C110.026 22.9482 107.434 25.3335 107.434 28.8338C107.434 32.1319 110.003 34.7178 113.444 34.7178C116.222 34.7178 117.827 33.0686 118.494 32.1099L116.428 30.7721C115.739 31.7528 114.799 32.3991 113.444 32.3991C112.092 32.3991 111.127 31.7971 110.508 30.6171L118.608 27.3617L118.333 26.6935ZM53.803 24.7552V27.2509H59.9516C59.7676 28.6552 59.2863 29.6804 58.553 30.3928C57.6571 31.263 56.257 32.2206 53.803 32.2206C50.0159 32.2206 47.0565 29.2571 47.0565 25.5784C47.0565 21.901 50.0159 18.9375 53.803 18.9375C55.8454 18.9375 57.3365 19.7164 58.4375 20.7194L60.2504 18.9598C58.7125 17.5333 56.6713 16.4404 53.803 16.4404C48.6173 16.4404 44.2578 20.5424 44.2578 25.5784C44.2578 30.6171 48.6173 34.7178 53.803 34.7178C56.6017 34.7178 58.7125 33.8252 60.3644 32.1541C62.0621 30.505 62.5907 28.1877 62.5907 26.3145C62.5907 25.7348 62.5449 25.2008 62.4523 24.7552H53.803ZM69.5807 32.3991C67.7463 32.3991 66.1626 30.9283 66.1626 28.8338C66.1626 26.7155 67.7463 25.267 69.5807 25.267C71.4165 25.267 73.0002 26.7155 73.0002 28.8338C73.0002 30.9283 71.4165 32.3991 69.5807 32.3991ZM69.5807 22.9482C66.2308 22.9482 63.5006 25.4234 63.5006 28.8338C63.5006 32.2206 66.2308 34.7178 69.5807 34.7178C72.9306 34.7178 75.6623 32.2206 75.6623 28.8338C75.6623 25.4234 72.9306 22.9482 69.5807 22.9482ZM82.846 32.3991C81.0102 32.3991 79.4265 30.9283 79.4265 28.8338C79.4265 26.7155 81.0102 25.267 82.846 25.267C84.6821 25.267 86.2644 26.7155 86.2644 28.8338C86.2644 30.9283 84.6821 32.3991 82.846 32.3991ZM82.846 22.9482C79.4964 22.9482 76.7659 25.4234 76.7659 28.8338C76.7659 32.2206 79.4964 34.7178 82.846 34.7178C86.1959 34.7178 88.9261 32.2206 88.9261 28.8338C88.9261 25.4234 86.1959 22.9482 82.846 22.9482Z" fill="#525D7B"/>
<path d="M15.3046 19.7291L0.140808 35.3628C0.142207 35.3654 0.142207 35.3697 0.143725 35.3723C0.609346 37.07 2.2045 38.3193 4.09877 38.3193C4.85646 38.3193 5.56719 38.1201 6.17677 37.7715L6.22514 37.7437L23.2933 28.1769L15.3046 19.7291Z" fill="#EB3131"/>
<path d="M30.6424 17.0668L30.6281 17.0569L23.2589 12.9078L14.957 20.084L23.2887 28.1748L30.6179 24.0673C31.9025 23.3919 32.7758 22.0764 32.7758 20.5599C32.7758 19.0519 31.9153 17.7433 30.6424 17.0668Z" fill="#F6B60B"/>
<path d="M0.139502 5.69034C0.0483662 6.01675 0 6.35994 0 6.71412V34.3399C0 34.6941 0.048366 35.037 0.14102 35.3623L15.8247 20.1285L0.139502 5.69034Z" fill="#5778C5"/>
<path d="M15.4172 20.5278L23.2648 12.906L6.21666 3.3046C5.5971 2.94349 4.87358 2.73619 4.1002 2.73619C2.20601 2.73619 0.607977 3.98808 0.142207 5.68696C0.142207 5.68841 0.140808 5.68985 0.140808 5.6913L15.4172 20.5278Z" fill="#3BAD49"/>
<path d="M45.3072 2.40756H46.671V11.0254H45.3072V2.40756ZM45.4749 1.22795C45.3299 1.08339 45.2578 0.915117 45.2578 0.721985C45.2578 0.521624 45.3299 0.351041 45.4749 0.210817C45.6191 0.0705938 45.7909 4.673e-05 45.9893 4.673e-05C46.1956 4.673e-05 46.3714 0.0705938 46.5164 0.210817C46.6605 0.351041 46.7332 0.521624 46.7332 0.721985C46.7332 0.915117 46.6605 1.08339 46.5164 1.22795C46.3714 1.37251 46.1956 1.4445 45.9893 1.4445C45.7909 1.4445 45.6191 1.37251 45.4749 1.22795Z" fill="#525D7B"/>
<path d="M48.9102 2.40756H50.521L54.5358 8.73844H54.6102L54.5358 7.07744V2.40756H55.8864V11.0254H54.4739L50.2608 4.36924H50.1864L50.2608 6.03025V11.0254H48.9102V2.40756Z" fill="#525D7B"/>
<path d="M60.9369 9.7735C61.945 9.7735 62.7278 9.50288 63.2852 8.96136C63.8427 8.41983 64.1213 7.6713 64.1213 6.71633C64.1213 5.76165 63.8427 5.01312 63.2852 4.47159C62.7278 3.92978 61.945 3.65916 60.9369 3.65916H59.4996V9.7735H60.9369ZM58.1367 2.40756H60.9741C61.8911 2.40756 62.6905 2.58797 63.3718 2.94879C64.0534 3.31019 64.5779 3.8176 64.9454 4.47159C65.313 5.12587 65.4967 5.87383 65.4967 6.71633C65.4967 7.55883 65.313 8.30736 64.9454 8.96136C64.5779 9.61535 64.0534 10.1228 63.3718 10.4839C62.6905 10.845 61.8911 11.0254 60.9741 11.0254H58.1367V2.40756Z" fill="#525D7B"/>
<path d="M67.2565 2.40756H68.6202V11.0254H67.2565V2.40756ZM67.4238 1.22795C67.2791 1.08339 67.207 0.915117 67.207 0.721985C67.207 0.521624 67.2791 0.351041 67.4238 0.210817C67.568 0.0705938 67.7401 4.673e-05 67.9385 4.673e-05C68.1449 4.673e-05 68.3206 0.0705938 68.4653 0.210817C68.6098 0.351041 68.6824 0.521624 68.6824 0.721985C68.6824 0.915117 68.6098 1.08339 68.4653 1.22795C68.3206 1.37251 68.1449 1.4445 67.9385 1.4445C67.7401 1.4445 67.568 1.37251 67.4238 1.22795Z" fill="#525D7B"/>
<path d="M73.9361 6.4275C74.3656 6.4275 74.7269 6.29508 75.0207 6.03025C75.3135 5.7657 75.4603 5.43263 75.4603 5.03133C75.4603 4.66212 75.326 4.33918 75.0576 4.0622C74.7891 3.78551 74.4319 3.64731 73.9858 3.64731H72.2262V6.4275H73.9361ZM70.8633 2.40756H73.9733C74.5102 2.40756 74.9957 2.51974 75.4293 2.74438C75.863 2.96903 76.2056 3.28215 76.4579 3.68345C76.7095 4.08475 76.8356 4.5378 76.8356 5.04348C76.8356 5.62114 76.6437 6.13288 76.2597 6.57784C75.8755 7.02309 75.3942 7.32262 74.8159 7.47469L74.8034 7.53483L77.2446 10.9531V11.0254H75.671L73.3042 7.64325H72.2262V11.0254H70.8633V2.40756Z" fill="#525D7B"/>
<path d="M78.651 2.40756H80.015V11.0254H78.651V2.40756ZM78.8187 1.22795C78.6739 1.08339 78.6016 0.915117 78.6016 0.721985C78.6016 0.521624 78.6739 0.351041 78.8187 0.210817C78.9628 0.0705938 79.1347 4.673e-05 79.333 4.673e-05C79.5397 4.673e-05 79.7154 0.0705938 79.8602 0.210817C80.0043 0.351041 80.077 0.521624 80.077 0.721985C80.077 0.915117 80.0043 1.08339 79.8602 1.22795C79.7154 1.37251 79.5397 1.4445 79.333 1.4445C79.1347 1.4445 78.9628 1.37251 78.8187 1.22795Z" fill="#525D7B"/>
<path d="M82.2499 2.40756H83.8607L87.8753 8.73844H87.9497L87.8753 7.07744V2.40756H89.2259V11.0254H87.8134L83.6006 4.36924H83.5262L83.6006 6.03025V11.0254H82.2499V2.40756Z" fill="#525D7B"/>
</svg>
