<svg width="48" height="48" viewBox="0 0 48 48" fill="none" xmlns="http://www.w3.org/2000/svg">
<path d="M40.8992 40.9011H33.7866V29.7622C33.7866 27.1058 33.7393 23.6878 30.0872 23.6878C26.3831 23.6878 25.8154 26.5807 25.8154 29.5706V40.9011H18.7052V17.9942H25.5339V21.1237H25.6285C27.0217 18.744 29.6094 17.3224 32.3651 17.4241C39.5746 17.4241 40.9016 22.1668 40.9016 28.3335L40.8992 40.9011ZM10.6795 14.8624C8.39935 14.8624 6.55201 13.0149 6.55201 10.7347C6.55201 8.45439 8.39935 6.60698 10.6795 6.60698C12.9597 6.60698 14.8071 8.45439 14.8071 10.7347C14.8071 13.0149 12.9597 14.8624 10.6795 14.8624ZM14.2347 40.9011H7.11497V17.9942H14.2347V40.9011ZM44.4449 0.00268854H3.54093C1.60844 -0.0186004 0.0236535 1.53076 0 3.46332V44.5367C0.0236535 46.4717 1.60844 48.021 3.54093 47.9997H44.4449C46.3821 48.0234 47.974 46.474 48 44.5367V3.46095C47.9716 1.52366 46.3797 -0.0256968 44.4449 0.000322989" fill="#002B4B"/>
</svg>
