<svg width="44" height="44" viewBox="0 0 44 44" fill="none" xmlns="http://www.w3.org/2000/svg">
<path fill-rule="evenodd" clip-rule="evenodd" d="M22 3.66675C26.3761 3.66675 30.5729 5.40514 33.6673 8.49949C36.7616 11.5938 38.5 15.7907 38.5 20.1667C38.5 25.8024 35.4273 30.4151 32.1897 33.7242C30.5721 35.3597 28.807 36.8424 26.917 38.1536L26.136 38.6852L25.7693 38.9291L25.0782 39.3691L24.4622 39.7449L23.6995 40.1886C23.1818 40.4841 22.5961 40.6395 22 40.6395C21.4039 40.6395 20.8182 40.4841 20.3005 40.1886L19.5378 39.7449L18.5845 39.1582L18.2325 38.9291L17.4808 38.4286C15.4419 37.049 13.5427 35.4734 11.8103 33.7242C8.57267 30.4132 5.5 25.8024 5.5 20.1667C5.5 15.7907 7.23839 11.5938 10.3327 8.49949C13.4271 5.40514 17.6239 3.66675 22 3.66675ZM22 7.33341C18.5964 7.33341 15.3322 8.68549 12.9255 11.0922C10.5187 13.4989 9.16667 16.7631 9.16667 20.1667C9.16667 24.4237 11.4987 28.1601 14.4302 31.1594C15.6906 32.4354 17.053 33.6065 18.5038 34.6611L19.3435 35.2587C19.6148 35.4482 19.8758 35.6242 20.1263 35.7867L20.8413 36.2451L21.4702 36.6282L22 36.9381L22.8342 36.4449L23.507 36.0232C23.8651 35.7959 24.2483 35.5411 24.6565 35.2587L25.4962 34.6611C26.947 33.6065 28.3094 32.4354 29.5698 31.1594C32.5013 28.1619 34.8333 24.4237 34.8333 20.1667C34.8333 16.7631 33.4813 13.4989 31.0745 11.0922C28.6678 8.68549 25.4036 7.33341 22 7.33341ZM22 12.8334C23.9449 12.8334 25.8102 13.606 27.1854 14.9813C28.5607 16.3566 29.3333 18.2218 29.3333 20.1667C29.3333 22.1117 28.5607 23.9769 27.1854 25.3522C25.8102 26.7275 23.9449 27.5001 22 27.5001C20.0551 27.5001 18.1898 26.7275 16.8146 25.3522C15.4393 23.9769 14.6667 22.1117 14.6667 20.1667C14.6667 18.2218 15.4393 16.3566 16.8146 14.9813C18.1898 13.606 20.0551 12.8334 22 12.8334ZM22 16.5001C21.0275 16.5001 20.0949 16.8864 19.4073 17.574C18.7196 18.2617 18.3333 19.1943 18.3333 20.1667C18.3333 21.1392 18.7196 22.0718 19.4073 22.7595C20.0949 23.4471 21.0275 23.8334 22 23.8334C22.9725 23.8334 23.9051 23.4471 24.5927 22.7595C25.2804 22.0718 25.6667 21.1392 25.6667 20.1667C25.6667 19.1943 25.2804 18.2617 24.5927 17.574C23.9051 16.8864 22.9725 16.5001 22 16.5001Z" fill="#002B4B"/>
</svg>
