<svg width="100" height="100" viewBox="0 0 100 100" fill="none" xmlns="http://www.w3.org/2000/svg">
<path d="M50.001 99C43.386 99 36.969 97.705 30.928 95.15C25.093 92.682 19.853 89.149 15.352 84.649C10.851 80.149 7.318 74.908 4.85 69.074C2.295 63.034 1 56.617 1 50.001C1 43.385 2.295 36.969 4.85 30.928C7.318 25.093 10.851 19.853 15.352 15.352C19.853 10.851 25.093 7.318 30.928 4.85C36.968 2.295 43.385 1 50.001 1C56.617 1 63.033 2.295 69.074 4.85C74.909 7.318 80.149 10.851 84.65 15.352C89.151 19.853 92.684 25.093 95.152 30.928C97.707 36.968 99.002 43.385 99.002 50.001C99.002 56.617 97.707 63.033 95.152 69.074C92.684 74.909 89.151 80.149 84.65 84.649C80.149 89.149 74.909 92.683 69.074 95.15C63.034 97.705 56.617 99 50.001 99Z" fill="#002B4B"/>
<path d="M50 2C56.481 2 62.767 3.269 68.683 5.771C74.399 8.188 79.532 11.65 83.941 16.059C88.35 20.468 91.811 25.601 94.229 31.317C96.731 37.233 98 43.519 98 50C98 56.481 96.731 62.767 94.229 68.683C91.812 74.399 88.35 79.532 83.941 83.941C79.532 88.35 74.399 91.811 68.683 94.229C62.767 96.731 56.481 98 50 98C43.519 98 37.233 96.731 31.317 94.229C25.601 91.812 20.468 88.35 16.059 83.941C11.65 79.532 8.189 74.399 5.771 68.683C3.269 62.767 2 56.481 2 50C2 43.519 3.269 37.233 5.771 31.317C8.188 25.601 11.65 20.468 16.059 16.059C20.468 11.65 25.601 8.189 31.317 5.771C37.233 3.269 43.519 2 50 2ZM50 0C22.386 0 0 22.386 0 50C0 77.614 22.386 100 50 100C77.614 100 100 77.614 100 50C100 22.386 77.614 0 50 0Z" fill="url(#paint0_linear_1051_34611)"/>
<path d="M47.0604 44.9469C47.0604 45.1638 46.8845 45.3397 46.6676 45.3397C46.4506 45.3397 46.2747 45.1638 46.2747 44.9469C46.2747 44.7299 46.4506 44.554 46.6676 44.554C46.8845 44.554 47.0604 44.7299 47.0604 44.9469Z" fill="#F8C875" stroke="url(#paint1_linear_1051_34611)" stroke-width="0.09625"/>
<path d="M63.5797 59.0683C68.0943 45.7263 68.4688 37.1616 67.4257 34.7282C67.4145 34.7022 67.393 34.6848 67.3659 34.6769L67.0927 34.5973M67.0927 34.5973L61.731 33.0416C61.685 33.0283 61.6361 33.0509 61.6164 33.0946L59.3557 38.1303M67.0927 34.5973L61.3277 47.7363L61.3267 47.7373M60.2327 56.6753C61.0867 56.9873 62.0437 57.4693 62.8487 58.2143C63.1277 58.4733 63.3717 58.7593 63.5787 59.0683C64.3937 60.2833 64.6307 61.8313 64.2107 63.2733L62.5347 69.0313C62.2187 70.1153 61.0847 70.7383 60.0007 70.4233L58.4337 69.9674M58.4337 69.9674C57.6677 71.6854 55.7146 72.6683 53.7986 72.1103L38.3266 67.6063M58.4337 69.9674C58.5887 69.6213 58.6946 69.2473 58.7436 68.8503L61.6336 45.2363C61.9596 42.5693 61.0676 39.9983 59.3566 38.1303C58.4646 37.1563 57.3516 36.3743 56.0706 35.8683C55.8136 35.7663 55.5486 35.6763 55.2786 35.5973L51.6996 34.5553C51.4026 34.4683 51.1026 34.3983 50.8036 34.3443C49.4786 34.1023 48.1486 34.1683 46.8996 34.5043C44.4536 35.1613 42.3206 36.8523 41.1646 39.2773L36.2066 49.6793M47.7058 28.9593L42.2668 27.3703M42.2668 27.3703L41.9508 27.2783M42.2668 27.3703L40.0797 41.5513V41.5523M41.9507 27.2793C39.7848 28.7096 35.5068 36.0811 32.1448 49.7123C32.1257 49.7899 32.2038 49.8583 32.2781 49.8292C32.5642 49.717 32.8632 49.6322 33.1717 49.5753C34.2507 49.3793 35.3167 49.4853 36.2047 49.6803M46.8977 34.5043L47.7057 28.9593M56.0696 35.8683C56.3656 35.5393 56.5947 35.1393 56.7257 34.6863C57.1957 33.0723 56.2677 31.3823 54.6537 30.9123C53.0397 30.4423 51.3497 31.3703 50.8797 32.9843C50.7467 33.4413 50.7257 33.9043 50.8007 34.3433M60.9676 50.5273C60.9676 50.5273 59.6056 53.1233 58.0476 52.6693L49.1936 50.0923L49.0516 50.0513L40.1976 47.4743C38.6396 47.0203 38.8836 44.0993 38.8836 44.0993M48.7076 45.0804C48.4306 46.0314 48.9776 47.0274 49.9286 47.3044C50.8796 47.5814 51.8756 47.0344 52.1526 46.0834M52.7146 41.8354L58.4826 43.5144M57.2097 44.7063L57.6287 43.2664M44.2437 39.3693L50.0116 41.0483M35.5787 63.1113C44.0157 59.2163 53.2647 62.0503 52.8927 62.0383C46.1387 61.8113 41.0647 64.9353 38.3017 67.5453M32.4437 55.0393C32.7007 54.9453 32.9587 54.8543 33.2157 54.7673C34.8207 54.2243 35.9937 53.9983 37.8007 53.8203C43.8007 53.2253 50.3757 54.3273 53.9377 55.0303C54.2837 55.0983 54.2577 55.5043 53.9057 55.5213C47.5467 55.8193 41.4787 59.1733 35.5777 63.1123" stroke="url(#paint2_linear_1051_34611)" stroke-width="1.44375" stroke-miterlimit="10" stroke-linecap="round"/>
<path d="M28.9968 85.8243C28.5156 85.8243 28.1441 85.6903 27.8822 85.4223C27.6192 85.1544 27.4883 84.7798 27.4883 84.2986V75.6395C27.4883 75.1472 27.6223 74.7706 27.8903 74.5076C28.1583 74.2457 28.5329 74.1138 29.014 74.1138H33.0482C34.3597 74.1138 35.3738 74.4335 36.0905 75.0731C36.8062 75.7126 37.1645 76.6008 37.1645 77.7378C37.1645 78.4707 37.0031 79.1072 36.6803 79.6483C36.3575 80.1893 35.8926 80.6055 35.2865 80.8949C34.6795 81.1842 33.9334 81.3293 33.0482 81.3293L33.1791 81.0339H33.9658C34.4359 81.0339 34.851 81.1466 35.2124 81.3699C35.5728 81.5943 35.8743 81.9354 36.1149 82.3952L36.9351 83.8712C37.1097 84.1879 37.1919 84.4976 37.1808 84.798C37.1696 85.0985 37.0518 85.3452 36.8285 85.536C36.6042 85.7269 36.2793 85.8233 35.853 85.8233C35.4266 85.8233 35.0794 85.736 34.8114 85.5604C34.5435 85.3858 34.3059 85.1127 34.0978 84.7402L32.6056 82.0013C32.4746 81.7608 32.3071 81.5943 32.1051 81.5009C31.9031 81.4085 31.6706 81.3618 31.4077 81.3618H30.5053V84.2976C30.5053 84.7787 30.3794 85.1533 30.1276 85.4213C29.8759 85.6893 29.4993 85.8233 28.9958 85.8233L28.9968 85.8243ZM30.5053 79.2321H32.5061C33.0857 79.2321 33.5283 79.1174 33.8349 78.8879C34.1404 78.6585 34.2937 78.3032 34.2937 77.8221C34.2937 77.3409 34.1404 77.016 33.8349 76.7805C33.5283 76.546 33.0857 76.4283 32.5061 76.4283H30.5053V79.2321Z" fill="#FFFEFD"/>
<path d="M42.7261 85.8579C41.8298 85.8579 41.0481 85.6884 40.3812 85.3493C39.7142 85.0103 39.1945 84.524 38.8229 83.8896C38.4514 83.2561 38.2656 82.507 38.2656 81.6431C38.2656 80.9873 38.3692 80.3996 38.5773 79.8798C38.7844 79.3611 39.0859 78.9175 39.4797 78.551C39.8736 78.1845 40.3436 77.9064 40.8897 77.7145C41.4359 77.5237 42.048 77.4272 42.7261 77.4272C43.6225 77.4272 44.4041 77.5968 45.0711 77.9358C45.738 78.2749 46.2547 78.7591 46.6212 79.3875C46.9876 80.0158 47.1704 80.768 47.1704 81.6421C47.1704 82.2877 47.0658 82.8724 46.8587 83.3972C46.6506 83.9221 46.3532 84.3677 45.9654 84.7342C45.5776 85.1006 45.1066 85.3798 44.5554 85.5706C44.0032 85.7615 43.3941 85.8579 42.7271 85.8579H42.7261ZM42.7261 83.7099C43.0215 83.7099 43.2834 83.6358 43.5128 83.4886C43.7423 83.3414 43.9199 83.1171 44.0458 82.8166C44.1717 82.5161 44.2346 82.1253 44.2346 81.6441C44.2346 80.9122 44.0925 80.3843 43.8082 80.0615C43.524 79.7387 43.1626 79.5773 42.7261 79.5773C42.4307 79.5773 42.1688 79.6484 41.9394 79.7905C41.71 79.9326 41.5293 80.1539 41.3983 80.4544C41.2674 80.7548 41.2014 81.1518 41.2014 81.6431C41.2014 82.3649 41.3435 82.8897 41.6277 83.2176C41.912 83.5454 42.2784 83.7099 42.7261 83.7099Z" fill="#FFFEFD"/>
<path d="M51.5316 85.8581C50.8321 85.8581 50.2576 85.7292 49.8099 85.4724C49.3612 85.2155 49.0252 84.8298 48.8009 84.3161C48.5765 83.8025 48.4648 83.1518 48.4648 82.365V78.9207C48.4648 78.4395 48.5907 78.0761 48.8425 77.8304C49.0942 77.5848 49.4546 77.462 49.9246 77.462C50.3946 77.462 50.755 77.5848 51.0067 77.8304C51.2585 78.0761 51.3844 78.4395 51.3844 78.9207V82.4463C51.3844 82.8401 51.4666 83.1345 51.63 83.3315C51.7945 83.5284 52.0513 83.6268 52.4005 83.6268C52.7944 83.6268 53.1162 83.4847 53.3679 83.2005C53.6197 82.9163 53.7456 82.5386 53.7456 82.0686V78.9197C53.7456 78.4385 53.8714 78.0751 54.1232 77.8294C54.3749 77.5838 54.7353 77.4609 55.2053 77.4609C55.6753 77.4609 56.0357 77.5838 56.2875 77.8294C56.5392 78.0751 56.6651 78.4385 56.6651 78.9197V84.3476C56.6651 85.3313 56.1951 85.8236 55.2551 85.8236C54.7962 85.8236 54.4409 85.6977 54.1892 85.446C53.9374 85.1942 53.8115 84.8288 53.8115 84.3476V83.3964L54.0745 84.2004C53.8339 84.7364 53.4979 85.1465 53.0654 85.4307C52.633 85.715 52.1224 85.8571 51.5316 85.8571V85.8581Z" fill="#FFFEFD"/>
<path d="M62.6004 85.8579C61.7802 85.8579 61.1051 85.732 60.5752 85.4803C60.0453 85.2285 59.6484 84.8489 59.3865 84.3403C59.1246 83.8317 58.9926 83.1952 58.9926 82.4298V79.7569H58.4353C58.0851 79.7569 57.8151 79.6646 57.6232 79.4778C57.4324 79.292 57.3359 79.024 57.3359 78.6738C57.3359 78.3236 57.4314 78.0586 57.6232 77.8789C57.8141 77.6983 58.0851 77.6079 58.4353 77.6079H58.9926V76.5908C58.9926 76.1096 59.1185 75.7441 59.3703 75.4924C59.622 75.2406 59.9824 75.1147 60.4524 75.1147C60.9224 75.1147 61.2828 75.2406 61.5345 75.4924C61.7863 75.7441 61.9122 76.1106 61.9122 76.5908V77.6079H63.2572C63.6176 77.6079 63.8937 77.6983 64.0856 77.8789C64.2764 78.0596 64.3728 78.3246 64.3728 78.6738C64.3728 79.023 64.2774 79.292 64.0856 79.4778C63.8947 79.6636 63.6186 79.7569 63.2572 79.7569H61.9122V82.3313C61.9122 82.7364 62.0076 83.0338 62.1994 83.2246C62.3903 83.4165 62.6938 83.5119 63.11 83.5119C63.2633 83.5119 63.4105 83.4957 63.5526 83.4632C63.6947 83.4307 63.8257 83.4145 63.9465 83.4145C64.1211 83.4033 64.2632 83.4551 64.3728 83.5698C64.4825 83.6845 64.5373 83.9444 64.5373 84.3484C64.5373 84.6763 64.4886 84.9524 64.3901 85.1767C64.2916 85.4011 64.117 85.5625 63.8653 85.661C63.712 85.7158 63.5049 85.7615 63.242 85.8C62.9791 85.8386 62.7669 85.8579 62.6024 85.8579H62.6004Z" fill="#FFFEFD"/>
<path d="M69.6667 85.8574C68.683 85.8574 67.8323 85.6848 67.1167 85.3407C66.401 84.9966 65.8508 84.5073 65.4681 83.8728C65.0854 83.2394 64.8945 82.4902 64.8945 81.6263C64.8945 80.7624 65.0773 80.0661 65.4437 79.4367C65.8102 78.8083 66.3127 78.316 66.9522 77.9607C67.5917 77.6054 68.3216 77.4277 69.1419 77.4277C69.7428 77.4277 70.29 77.5232 70.7823 77.715C71.2746 77.9069 71.6949 78.185 72.0451 78.5515C72.3953 78.9179 72.6603 79.3575 72.841 79.8712C73.0217 80.3848 73.111 80.9594 73.111 81.5928C73.111 81.8121 73.0511 81.9725 72.9303 82.077C72.8095 82.1816 72.6187 82.2324 72.3568 82.2324H67.339V80.8548H70.9792L70.7173 81.068C70.7173 80.664 70.6625 80.3361 70.5529 80.0843C70.4432 79.8326 70.2818 79.6417 70.0687 79.5108C69.8555 79.3798 69.5905 79.3138 69.2738 79.3138C68.9348 79.3138 68.6424 79.393 68.3967 79.5514C68.1511 79.7097 67.9623 79.9422 67.8313 80.2488C67.7004 80.5553 67.6344 80.9381 67.6344 81.3969V81.5441C67.6344 82.3207 67.807 82.8749 68.1511 83.2089C68.4952 83.5429 69.0282 83.7094 69.7499 83.7094C69.9905 83.7094 70.2666 83.6789 70.5783 83.619C70.8899 83.5591 71.1873 83.4739 71.4716 83.3652C71.7558 83.2556 72.0015 83.2373 72.2096 83.3074C72.4167 83.3784 72.5791 83.4992 72.6938 83.6677C72.8085 83.8373 72.8714 84.0281 72.8826 84.2413C72.8938 84.4545 72.844 84.6626 72.7354 84.8646C72.6258 85.0666 72.4451 85.2229 72.1944 85.3316C71.8116 85.5062 71.4046 85.6381 70.9721 85.7254C70.5397 85.8127 70.1052 85.8564 69.6687 85.8564L69.6667 85.8574Z" fill="#FFFEFD"/>
<path d="M32.6409 27.9952C32.5368 28.0737 32.4299 28.1504 32.3186 28.2262C32.2081 28.302 32.0931 28.3768 31.9753 28.4508C31.8575 28.5247 31.7361 28.5978 31.611 28.6708C31.4859 28.7429 31.3599 28.8123 31.2339 28.8781C31.1079 28.9438 30.982 29.0059 30.8541 29.0652C30.7272 29.1237 30.5994 29.1794 30.4707 29.2314C30.3419 29.2834 30.215 29.3318 30.09 29.3756C29.9649 29.4195 29.8398 29.4596 29.7175 29.4953C29.5942 29.5309 29.4728 29.5628 29.3523 29.5902C29.1952 29.6258 29.0428 29.6404 28.8958 29.6313C28.7488 29.6222 28.6064 29.5902 28.4694 29.5336C28.3325 29.4779 28.2046 29.4067 28.0878 29.32C27.9709 29.2332 27.8641 29.1301 27.7682 29.0114C27.6724 28.8927 27.5929 28.7685 27.5308 28.6407C27.4688 28.512 27.4249 28.3787 27.3976 28.2408C27.3711 28.1029 27.3674 27.9687 27.3866 27.84C27.4058 27.7113 27.4487 27.5871 27.5135 27.4684C27.5792 27.3497 27.6724 27.2484 27.7929 27.1644C27.9134 27.0804 28.064 27.0128 28.2366 26.9681C28.3516 26.9389 28.4703 26.9078 28.5872 26.8722C28.704 26.8366 28.8218 26.7964 28.9405 26.7535C29.0583 26.7097 29.177 26.6632 29.2966 26.612C29.4162 26.5609 29.5358 26.5061 29.6563 26.4486C29.7768 26.3902 29.8937 26.3308 30.006 26.2715C30.1183 26.2112 30.2269 26.1501 30.3319 26.088C30.4369 26.0259 30.5373 25.962 30.635 25.8972C30.7318 25.8323 30.8258 25.7666 30.9153 25.699C31.0559 25.5931 31.1837 25.4909 31.296 25.3914C31.4092 25.2918 31.5078 25.196 31.5927 25.1019C31.6776 25.0079 31.748 24.9166 31.8036 24.8271C31.8603 24.7377 31.9013 24.65 31.9296 24.5642C31.9661 24.4501 31.9872 24.3396 31.9917 24.2328C31.9963 24.126 31.9853 24.0228 31.9579 23.9233C31.9305 23.8238 31.8867 23.7288 31.8256 23.6366C31.7452 23.5152 31.6512 23.4193 31.5434 23.3499C31.4357 23.2805 31.3143 23.2385 31.1782 23.223C31.0879 23.213 30.9838 23.2148 30.8669 23.2303C30.7501 23.2458 30.6195 23.275 30.4762 23.317C30.3328 23.36 30.1758 23.4156 30.006 23.4869C29.8535 23.5499 29.7165 23.6083 29.5896 23.664C29.4627 23.7197 29.3431 23.7717 29.2281 23.8228C29.1131 23.8749 29.0008 23.9251 28.8848 23.979C28.7698 24.0319 28.6511 24.0876 28.5242 24.1479C28.3973 24.2081 28.2603 24.2739 28.1097 24.3487C27.9627 24.4227 27.8175 24.4902 27.6751 24.5532C27.5327 24.6162 27.3912 24.6728 27.2524 24.724C27.1136 24.7751 26.9767 24.8207 26.8415 24.8609C26.7064 24.9011 26.5731 24.9349 26.4407 24.9623C26.3093 24.9906 26.1787 25.0125 26.05 25.028C25.9212 25.0435 25.7943 25.0536 25.6693 25.0572C25.5442 25.0609 25.42 25.0572 25.2977 25.049C25.1552 25.038 25.0146 25.0198 24.8759 24.9924C24.7371 24.965 24.6001 24.9294 24.465 24.8846C24.3299 24.8399 24.1975 24.786 24.066 24.724C23.9355 24.661 23.8058 24.5898 23.6799 24.5094C23.5529 24.4291 23.4288 24.3387 23.3064 24.2392C23.1841 24.1396 23.0645 24.031 22.9467 23.9123C22.8545 23.8183 22.7669 23.7224 22.6856 23.6247C22.6044 23.527 22.5295 23.4257 22.4601 23.3225C22.3907 23.2194 22.3277 23.1134 22.2702 23.0048C22.2127 22.8962 22.1616 22.7857 22.1168 22.6725C22.0721 22.5593 22.0337 22.4424 22.0009 22.3237C21.9689 22.205 21.9424 22.0854 21.9223 21.9631C21.9023 21.8407 21.8886 21.7184 21.8813 21.5942C21.874 21.4701 21.873 21.3441 21.8785 21.2181C21.884 21.0912 21.8959 20.9634 21.9141 20.8337C21.9324 20.7041 21.958 20.5735 21.989 20.442C22.0209 20.3106 22.0584 20.1782 22.1022 20.0458C22.146 19.9134 22.1962 19.781 22.2519 19.6487C22.3085 19.5163 22.3706 19.383 22.4391 19.2506C22.5076 19.1182 22.5824 18.9849 22.6637 18.8525C22.745 18.7201 22.8326 18.5878 22.9257 18.4554C23.0033 18.3458 23.0864 18.2363 23.1722 18.1285C23.259 18.0208 23.3494 17.914 23.4452 17.8081C23.5402 17.7022 23.6397 17.5981 23.7438 17.4949C23.8469 17.3917 23.9556 17.2904 24.067 17.19C24.1793 17.0895 24.2952 16.9909 24.4157 16.8932C24.5362 16.7956 24.6604 16.6997 24.7891 16.6057C24.9087 16.518 25.0311 16.4331 25.1562 16.3509C25.2803 16.2688 25.4081 16.1893 25.5369 16.1135C25.6665 16.0369 25.798 15.9638 25.9313 15.8935C26.0646 15.8232 26.2006 15.7557 26.3385 15.6917C26.4763 15.6278 26.6169 15.5658 26.7585 15.5082C26.9009 15.4498 27.0406 15.3978 27.1793 15.3503C27.3181 15.3028 27.4542 15.2617 27.5893 15.2252C27.7244 15.1887 27.8568 15.1586 27.9873 15.133C28.1179 15.1074 28.2466 15.0873 28.3735 15.0727C28.5004 15.0581 28.6246 15.0481 28.7469 15.0435C28.8638 15.0335 28.9752 15.0344 29.0802 15.0463C29.1861 15.0581 29.2856 15.081 29.3806 15.1147C29.4746 15.1485 29.5641 15.1923 29.6472 15.2471C29.7722 15.3293 29.88 15.4242 29.9704 15.5311C30.0617 15.6379 30.1365 15.7566 30.1949 15.888C30.2534 16.0186 30.2908 16.151 30.3082 16.2852C30.3255 16.4194 30.3228 16.5545 30.2999 16.6924C30.2771 16.8302 30.2333 16.959 30.1685 17.0795C30.1037 17.2 30.0178 17.3123 29.911 17.4173C29.8398 17.4867 29.7567 17.5488 29.6618 17.6036C29.5668 17.6583 29.46 17.7049 29.3413 17.7451C29.2226 17.7852 29.0902 17.819 28.9487 17.8428C28.8145 17.8656 28.6748 17.893 28.5342 17.9295C28.3936 17.966 28.2512 18.0098 28.1069 18.0619C27.9627 18.1139 27.8157 18.1733 27.6678 18.2417C27.5564 18.2929 27.4478 18.3458 27.3409 18.4006C27.2341 18.4554 27.13 18.5129 27.0287 18.5722C26.9274 18.6316 26.8278 18.6927 26.732 18.7557C26.6352 18.8187 26.5412 18.8845 26.4499 18.9511C26.3175 19.0488 26.1951 19.1465 26.0838 19.2451C25.9724 19.3437 25.871 19.4432 25.7816 19.5427C25.6921 19.6423 25.6117 19.7418 25.5424 19.8413C25.473 19.9408 25.4154 20.0394 25.368 20.1362C25.3205 20.233 25.2849 20.3279 25.2593 20.422C25.2338 20.516 25.2201 20.6073 25.2164 20.6977C25.2109 20.8328 25.2283 20.9597 25.2685 21.0784C25.3086 21.1971 25.3716 21.3076 25.4556 21.4107C25.5405 21.513 25.64 21.5897 25.7551 21.6408C25.8701 21.6919 25.9998 21.7175 26.1449 21.7184C26.2417 21.7184 26.3522 21.7047 26.4763 21.6755C26.6005 21.6463 26.7402 21.6024 26.8927 21.544C27.046 21.4856 27.2131 21.4135 27.3957 21.3286C27.5582 21.2528 27.7043 21.187 27.8404 21.1259C27.9764 21.0647 28.1033 21.009 28.2275 20.9551C28.3507 20.9013 28.4712 20.8501 28.5954 20.7981C28.7187 20.7461 28.8465 20.6931 28.9825 20.6374C29.1195 20.5817 29.2664 20.5233 29.429 20.4594C29.5915 20.3964 29.7503 20.3398 29.9064 20.2923C30.0626 20.2439 30.215 20.2028 30.3648 20.17C30.5145 20.1362 30.6606 20.1106 30.803 20.0914C30.9454 20.0723 31.0842 20.0604 31.2193 20.0558C31.3545 20.0513 31.4859 20.0531 31.6147 20.0613C31.7425 20.0704 31.8666 20.086 31.9871 20.1079C32.1077 20.1298 32.2245 20.159 32.3377 20.1946C32.4692 20.2357 32.597 20.2859 32.7194 20.3453C32.8417 20.4046 32.9595 20.4722 33.0718 20.5489C33.185 20.6255 33.2927 20.7105 33.3959 20.8045C33.4991 20.8985 33.5986 21.0008 33.6926 21.1113C33.7867 21.2217 33.877 21.3404 33.9629 21.4673C34.0487 21.5942 34.1299 21.7294 34.2075 21.8727C34.2705 21.9886 34.3281 22.1046 34.3801 22.2205C34.4321 22.3365 34.4796 22.4515 34.5225 22.5675C34.5645 22.6825 34.602 22.7985 34.6348 22.9135C34.6677 23.0285 34.6951 23.1436 34.7179 23.2586C34.7407 23.3737 34.759 23.4878 34.7727 23.6019C34.79 23.7443 34.8001 23.8858 34.8037 24.0255C34.8074 24.1652 34.8037 24.3031 34.7946 24.4391C34.7855 24.5751 34.7681 24.7103 34.7453 24.8426C34.7225 24.9759 34.6933 25.1074 34.6576 25.2371C34.622 25.3667 34.58 25.4954 34.5326 25.6214C34.4851 25.7474 34.4312 25.8716 34.371 25.9939C34.3107 26.1163 34.245 26.2368 34.1729 26.3564C34.1007 26.4751 34.0231 26.5929 33.9391 26.7088C33.8716 26.8019 33.8003 26.8932 33.7255 26.9827C33.6506 27.0722 33.5712 27.1607 33.4881 27.2484C33.405 27.3351 33.3183 27.4209 33.227 27.5058C33.1357 27.5908 33.0407 27.6738 32.9421 27.7569C32.8426 27.8391 32.7395 27.9213 32.6326 28.0016L32.6409 27.9952Z" fill="#FFFEFD"/>
<path d="M40.5383 23.7703C40.3913 23.8224 40.2453 23.8662 40.101 23.9027C39.9568 23.9392 39.8134 23.9685 39.671 23.9894C39.5286 24.0104 39.3871 24.0241 39.2456 24.0305C39.104 24.036 38.9634 24.0342 38.8238 24.0251C38.6841 24.0159 38.5435 23.9986 38.4038 23.973C38.2641 23.9475 38.1253 23.9155 37.9884 23.8753C37.8514 23.8352 37.7154 23.7877 37.5803 23.732C37.4451 23.6763 37.3118 23.6133 37.1795 23.5421C37.0471 23.4709 36.9165 23.3924 36.786 23.3056C36.6563 23.2189 36.5276 23.1239 36.3998 23.0217C36.2939 22.9359 36.1898 22.8455 36.0875 22.7496C35.9862 22.6537 35.8867 22.5533 35.789 22.4474C35.6922 22.3415 35.5972 22.231 35.505 22.1142C35.4128 21.9973 35.3233 21.8768 35.2366 21.7499C35.1499 21.623 35.065 21.4906 34.9837 21.3527C34.9025 21.2149 34.8239 21.0715 34.7482 20.9227C34.6797 20.7867 34.6158 20.6525 34.5573 20.5183C34.4989 20.384 34.446 20.2517 34.3985 20.1193C34.351 19.9869 34.309 19.8554 34.2725 19.7249C34.236 19.5943 34.2049 19.4647 34.1803 19.335C34.1547 19.2054 34.1355 19.0776 34.1219 18.9497C34.1082 18.8219 34.0999 18.6959 34.0981 18.5708C34.0963 18.4458 34.0999 18.3225 34.1091 18.2002C34.1191 18.0778 34.1346 17.9573 34.1556 17.8377C34.1775 17.7181 34.2049 17.6003 34.2378 17.4835C34.2716 17.3666 34.3108 17.2516 34.3565 17.1384C34.4021 17.0252 34.4533 16.9138 34.509 16.8051C34.5656 16.6965 34.6267 16.5897 34.6943 16.4856C34.7618 16.3815 34.834 16.2792 34.9116 16.1797C34.9892 16.0802 35.0732 15.9834 35.1617 15.8885C35.2503 15.7935 35.3443 15.7022 35.4439 15.6128C35.5434 15.5233 35.6474 15.4384 35.7561 15.3562C35.8647 15.274 35.9789 15.1955 36.0976 15.1207C36.2162 15.0458 36.3395 14.9746 36.4682 14.907C36.5961 14.8395 36.7293 14.7765 36.8663 14.7162C37.0042 14.6569 37.1457 14.6012 37.2918 14.55C37.4059 14.5099 37.5236 14.4733 37.6442 14.4405C37.7647 14.4076 37.8888 14.3784 38.0167 14.3528C38.1436 14.3273 38.275 14.3054 38.4083 14.2871C38.5416 14.2688 38.6786 14.2579 38.8192 14.2524C38.9589 14.2478 39.1022 14.2497 39.2483 14.2588C39.3944 14.2679 39.5468 14.288 39.6947 14.3063C39.8472 14.3245 39.9924 14.3565 40.1138 14.414C40.2352 14.4706 40.3393 14.5491 40.426 14.6468C40.5119 14.7454 40.5822 14.8522 40.6379 14.9673C40.6936 15.0823 40.7328 15.2047 40.7584 15.3361C40.7839 15.4667 40.7949 15.5954 40.7912 15.7205C40.7885 15.8456 40.7712 15.9688 40.7401 16.0884C40.7091 16.208 40.6625 16.3149 40.6013 16.4071C40.5402 16.4993 40.4626 16.5787 40.3713 16.6444C40.2791 16.7102 40.1731 16.7522 40.0545 16.7704C39.9349 16.7887 39.8006 16.785 39.6546 16.7558C39.5514 16.7357 39.4473 16.7211 39.3432 16.7157C39.2392 16.7102 39.1351 16.712 39.0319 16.723C38.9278 16.733 38.8274 16.7485 38.7315 16.7686C38.6357 16.7887 38.5425 16.8143 38.454 16.8444C38.3043 16.8955 38.1682 16.9567 38.0459 17.027C37.9235 17.0973 37.8149 17.1767 37.7199 17.2653C37.625 17.3538 37.5437 17.4515 37.4771 17.5565C37.4095 17.6615 37.3557 17.7747 37.3164 17.8952C37.2762 18.0158 37.2507 18.1445 37.2379 18.2805C37.2251 18.4166 37.226 18.5599 37.2406 18.7115C37.2507 18.8119 37.2662 18.9151 37.2881 19.02C37.31 19.125 37.3383 19.2319 37.3721 19.3414C37.4059 19.451 37.446 19.5624 37.4917 19.6756C37.5602 19.8463 37.6341 20.0033 37.7136 20.1485C37.793 20.2937 37.877 20.426 37.9665 20.5456C38.0559 20.6652 38.15 20.7721 38.2486 20.867C38.3472 20.962 38.4512 21.0441 38.559 21.1144C38.6676 21.1847 38.7772 21.2404 38.8895 21.2824C39.0018 21.3235 39.1159 21.3509 39.2328 21.3637C39.3496 21.3765 39.4692 21.3756 39.5907 21.36C39.713 21.3445 39.8372 21.3153 39.965 21.2715C40.0426 21.245 40.1193 21.213 40.1951 21.1765C40.2708 21.14 40.3475 21.0971 40.4233 21.0487C40.4991 21.0012 40.573 20.9465 40.6452 20.8862C40.7173 20.825 40.7876 20.7575 40.8561 20.6835C40.9483 20.5831 41.0441 20.51 41.1409 20.4662C41.2377 20.4224 41.3372 20.4078 41.4376 20.4224C41.5381 20.437 41.6339 20.4699 41.7252 20.5219C41.8165 20.574 41.9033 20.6452 41.9854 20.7346C42.0676 20.8241 42.1379 20.9227 42.1972 21.0295C42.2566 21.1364 42.3059 21.2523 42.3433 21.3765C42.3817 21.5006 42.4054 21.6257 42.4155 21.7508C42.4255 21.8759 42.4228 22.001 42.4063 22.1269C42.3899 22.2529 42.3543 22.368 42.2986 22.4739C42.2429 22.5798 42.1616 22.6747 42.074 22.7615C41.9909 22.8446 41.9069 22.934 41.8229 23.0116C41.7389 23.0883 41.654 23.1595 41.5691 23.2244C41.4833 23.2892 41.3975 23.3476 41.3107 23.3997C41.1802 23.4782 41.0505 23.5476 40.9209 23.6096C40.7912 23.6717 40.6634 23.7247 40.5347 23.7703H40.5383Z" fill="#FFFEFD"/>
<path d="M44.8784 22.5705C44.7497 22.5942 44.6283 22.6015 44.5132 22.5915C44.3982 22.5815 44.2886 22.5541 44.1855 22.5102C44.0823 22.4655 43.9846 22.4043 43.8924 22.3249C43.8002 22.2455 43.7162 22.1496 43.6404 22.0364C43.5646 21.9232 43.4971 21.7936 43.4377 21.6475C43.3784 21.5014 43.3272 21.3371 43.2852 21.1554C43.2451 20.9801 43.2049 20.8094 43.1666 20.6414C43.1273 20.4734 43.0899 20.3099 43.0524 20.1483C43.015 19.9867 42.9785 19.8297 42.9429 19.6745C42.9073 19.5193 42.8717 19.3668 42.837 19.2171C42.8023 19.0674 42.7685 18.9204 42.7347 18.7752C42.7009 18.63 42.6681 18.4867 42.6352 18.3461C42.6023 18.2046 42.5704 18.0658 42.5384 17.928C42.5065 17.7901 42.4745 17.6541 42.4435 17.518C42.4124 17.3829 42.3814 17.2487 42.3503 17.1154C42.3193 16.9821 42.2892 16.8497 42.2581 16.7173C42.2271 16.5849 42.197 16.4544 42.1668 16.3229C42.1367 16.1914 42.1057 16.0609 42.0755 15.9294C42.0454 15.7979 42.0144 15.6665 41.9842 15.535C41.9541 15.4035 41.9231 15.2702 41.892 15.1369C41.861 15.0036 41.8299 14.8694 41.7989 14.7343C41.7679 14.5992 41.7359 14.4622 41.7039 14.3244C41.672 14.1865 41.64 14.0468 41.6072 13.9062C41.5743 13.7647 41.5414 13.6223 41.5076 13.4771C41.4739 13.332 41.4401 13.185 41.4054 13.0352C41.3707 12.8855 41.3351 12.733 41.2995 12.5778C41.2639 12.4226 41.2274 12.2647 41.1899 12.104C41.1525 11.9433 41.1151 11.779 41.0758 11.611C41.0365 11.443 40.9973 11.2723 40.9571 11.097C40.9261 10.9609 40.9051 10.8313 40.8959 10.7071C40.8868 10.5829 40.8896 10.4652 40.9032 10.3529C40.9169 10.2406 40.9425 10.1347 40.9799 10.0342C41.0174 9.93381 41.0658 9.83977 41.126 9.75212C41.1863 9.66448 41.2575 9.58413 41.3378 9.51018C41.4182 9.43623 41.5104 9.37141 41.6108 9.31298C41.7122 9.25454 41.8235 9.20433 41.945 9.16233C42.0664 9.11942 42.1979 9.08564 42.3394 9.05916C42.4836 9.03177 42.6224 9.01625 42.753 9.01169C42.8844 9.00712 43.0095 9.01351 43.1273 9.02994C43.2451 9.04729 43.3565 9.07469 43.4596 9.11394C43.5628 9.1532 43.6605 9.20159 43.75 9.26185C43.8394 9.32211 43.9207 9.39149 43.9928 9.47183C44.0649 9.55126 44.1279 9.64074 44.1818 9.74025C44.2357 9.83977 44.2813 9.94842 44.3187 10.0671C44.3553 10.1858 44.3836 10.3145 44.4037 10.4524C44.4274 10.6167 44.4502 10.7719 44.4712 10.9217C44.4931 11.0714 44.5132 11.2138 44.5333 11.3517C44.5534 11.4895 44.5726 11.6228 44.5908 11.7525C44.6091 11.8821 44.6273 12.0081 44.6456 12.1332C44.6639 12.2583 44.6812 12.3806 44.6995 12.5039C44.7168 12.6271 44.7351 12.7504 44.7533 12.8746C44.7716 12.9996 44.7898 13.1256 44.8081 13.2553C44.8264 13.3849 44.8455 13.5182 44.8656 13.6561C44.8857 13.7939 44.9058 13.9364 44.9277 14.0861C44.9496 14.2358 44.9715 14.391 44.9953 14.5554C44.883 14.5718 44.8273 14.58 44.715 14.5964C44.7533 14.4705 44.7972 14.349 44.8483 14.2322C44.8994 14.1153 44.956 14.0039 45.019 13.8971C45.082 13.7903 45.1514 13.6889 45.2272 13.5922C45.303 13.4954 45.3851 13.4041 45.4728 13.3183C45.5613 13.2315 45.6554 13.1512 45.7558 13.0754C45.8562 12.9996 45.9612 12.9302 46.0708 12.8672C46.1803 12.8042 46.2935 12.7476 46.4113 12.6974C46.5291 12.6472 46.6505 12.6043 46.7765 12.5669C46.9025 12.5304 47.0322 12.5002 47.1655 12.4765C47.2988 12.4527 47.4357 12.4363 47.5772 12.4263C47.7233 12.4162 47.8639 12.4126 47.9999 12.4162C48.136 12.4199 48.2665 12.4299 48.3925 12.4464C48.5185 12.4628 48.639 12.4865 48.755 12.5157C48.8709 12.545 48.9814 12.5815 49.0864 12.6235C49.1914 12.6655 49.2909 12.7148 49.3858 12.7696C49.5036 12.838 49.6141 12.9175 49.7163 13.0069C49.8186 13.0964 49.9135 13.1959 50.0003 13.3064C50.087 13.4169 50.1664 13.5374 50.2377 13.667C50.3089 13.7976 50.3728 13.9382 50.4285 14.0888C50.4659 14.1893 50.4997 14.2943 50.5298 14.4029C50.56 14.5115 50.5873 14.6257 50.6111 14.7434C50.6348 14.8612 50.6549 14.9836 50.6722 15.1095C50.6896 15.2355 50.7033 15.367 50.7133 15.5012C50.7243 15.6363 50.7316 15.7751 50.7352 15.9194C50.7398 16.0627 50.7407 16.2106 50.7389 16.3631C50.7371 16.5402 50.7352 16.7082 50.7334 16.868C50.7316 17.0277 50.7298 17.1802 50.7279 17.3272C50.7261 17.4742 50.7243 17.6157 50.7234 17.7536C50.7225 17.8914 50.7206 18.0266 50.7188 18.1598C50.717 18.2931 50.7161 18.4264 50.7142 18.5597C50.7124 18.693 50.7115 18.8282 50.7097 18.966C50.7079 19.1039 50.706 19.2454 50.7051 19.3924C50.7033 19.5394 50.7015 19.6909 50.6996 19.8516C50.6978 20.0114 50.696 20.1794 50.6942 20.3565C50.6923 20.5428 50.6777 20.7135 50.6512 20.8696C50.6248 21.0257 50.5864 21.1672 50.5371 21.2932C50.4878 21.4192 50.4267 21.5315 50.3536 21.6283C50.2815 21.7251 50.1993 21.8063 50.1071 21.8721C50.0149 21.9378 49.9126 21.9871 49.8003 22.0218C49.688 22.0565 49.5657 22.0757 49.4324 22.0793C49.2991 22.083 49.1759 22.072 49.0617 22.0446C48.9476 22.0172 48.8426 21.9734 48.7467 21.9141C48.6509 21.8547 48.5642 21.778 48.4856 21.6858C48.4071 21.5936 48.3396 21.4859 48.282 21.3626C48.2245 21.2394 48.178 21.1006 48.1424 20.9463C48.1067 20.792 48.0812 20.6222 48.0684 20.4368C48.0556 20.2661 48.0438 20.1045 48.0328 19.9502C48.0218 19.7959 48.0109 19.6489 48.0008 19.5074C47.9908 19.3659 47.9808 19.2299 47.9707 19.0966C47.9607 18.9633 47.9515 18.8336 47.9424 18.7049C47.9333 18.5762 47.9241 18.4484 47.9141 18.3196C47.905 18.1909 47.8949 18.0612 47.8858 17.928C47.8758 17.7947 47.8666 17.6586 47.8557 17.5171C47.8456 17.3756 47.8347 17.2286 47.8237 17.0743C47.8128 16.92 47.8009 16.7584 47.7881 16.5877C47.7744 16.3978 47.7525 16.2271 47.7215 16.0755C47.6904 15.9239 47.6521 15.7916 47.6037 15.6774C47.5562 15.5642 47.4996 15.4693 47.4339 15.3935C47.3362 15.2803 47.2184 15.1999 47.0824 15.1515C46.9463 15.1032 46.7911 15.0876 46.6186 15.105C46.4652 15.1205 46.3237 15.1543 46.1949 15.2045C46.0662 15.2547 45.9503 15.3232 45.848 15.4081C45.7448 15.493 45.6554 15.5953 45.5787 15.7139C45.5212 15.8034 45.4737 15.8984 45.4362 15.9988C45.3988 16.0992 45.3705 16.2061 45.3523 16.3183C45.334 16.4306 45.3258 16.5484 45.3267 16.6717C45.3267 16.7949 45.3376 16.9246 45.3568 17.0588C45.3833 17.2396 45.407 17.4085 45.4308 17.5701C45.4536 17.7307 45.4755 17.8832 45.4974 18.0302C45.5184 18.1772 45.5385 18.3178 45.5586 18.4566C45.5787 18.5944 45.5978 18.7305 45.6179 18.8656C45.6371 19.0007 45.6572 19.1368 45.6773 19.2746C45.6974 19.4125 45.7175 19.554 45.7385 19.701C45.7594 19.848 45.7814 20.0004 45.8051 20.1611C45.8279 20.3218 45.8526 20.4916 45.879 20.6724C45.9064 20.8605 45.9192 21.0349 45.9174 21.1955C45.9165 21.3562 45.901 21.5023 45.8727 21.6347C45.8444 21.7671 45.8014 21.8858 45.7467 21.9908C45.691 22.0958 45.6225 22.1861 45.5394 22.2637C45.4572 22.3413 45.3614 22.4053 45.2518 22.4564C45.1423 22.5075 45.019 22.5459 44.8812 22.5714L44.8784 22.5705Z" fill="#FFFEFD"/>
<path d="M55.5269 22.5621C55.3763 22.5357 55.2311 22.5028 55.0905 22.4635C54.9499 22.4252 54.8138 22.3795 54.6824 22.3284C54.5509 22.2773 54.424 22.2198 54.3017 22.1559C54.1793 22.0919 54.0606 22.0216 53.9465 21.944C53.8324 21.8664 53.7219 21.7834 53.6151 21.6921C53.5083 21.6017 53.4069 21.5049 53.3102 21.4026C53.2134 21.3004 53.1212 21.1926 53.0344 21.0785C52.9477 20.9644 52.8646 20.8448 52.787 20.7179C52.7094 20.5919 52.6364 20.4595 52.5679 20.3207C52.4994 20.182 52.4364 20.0377 52.378 19.8862C52.3296 19.7602 52.2849 19.6314 52.2447 19.4991C52.2045 19.3667 52.1689 19.2306 52.1379 19.0919C52.1068 18.9531 52.0804 18.8097 52.0584 18.6637C52.0365 18.5176 52.0192 18.3679 52.0073 18.2154C51.9954 18.0629 51.9881 17.9059 51.9854 17.7461C51.9827 17.5863 51.9854 17.4229 51.9936 17.2567C52.0009 17.1052 52.0119 16.9564 52.0274 16.8112C52.0429 16.666 52.0621 16.5245 52.0858 16.3858C52.1096 16.247 52.1379 16.1128 52.1698 15.9804C52.2027 15.8489 52.2392 15.7211 52.2803 15.596C52.3214 15.4709 52.3679 15.3504 52.4182 15.2326C52.4684 15.1149 52.5232 15.0007 52.5816 14.8912C52.64 14.7816 52.703 14.6757 52.7706 14.5735C52.8381 14.4712 52.9094 14.3735 52.9851 14.2795C53.0609 14.1854 53.1413 14.0951 53.2252 14.0092C53.3092 13.9234 53.3978 13.8413 53.4909 13.7646C53.584 13.687 53.6799 13.6139 53.7803 13.5464C53.8808 13.4788 53.9839 13.4149 54.0908 13.3565C54.1976 13.298 54.3081 13.2442 54.4222 13.1958C54.5363 13.1465 54.6532 13.1026 54.7746 13.0643C54.8951 13.025 55.0193 12.9913 55.1471 12.962C55.2749 12.9328 55.4046 12.91 55.5369 12.8917C55.6693 12.8735 55.8054 12.8607 55.9432 12.8543C56.0811 12.847 56.2217 12.8461 56.3641 12.8497C56.5065 12.8534 56.6517 12.8634 56.7987 12.879C56.9457 12.8945 57.0954 12.9155 57.247 12.9429C57.3903 12.9684 57.53 12.9976 57.666 13.0323C57.8021 13.0661 57.9345 13.1045 58.0632 13.1465C58.1919 13.1885 58.317 13.235 58.4384 13.2852C58.5598 13.3355 58.6776 13.3893 58.7908 13.4478C58.905 13.5062 59.0145 13.5674 59.1204 13.6331C59.2263 13.6988 59.3286 13.7682 59.4263 13.8412C59.524 13.9143 59.618 13.991 59.7084 14.0713C59.8134 14.1654 59.912 14.2621 60.0042 14.3635C60.0964 14.4648 60.1822 14.5698 60.2617 14.6776C60.3411 14.7862 60.4141 14.8976 60.4799 15.0135C60.5465 15.1286 60.6059 15.2473 60.6597 15.3696C60.7136 15.4919 60.7602 15.617 60.8012 15.7458C60.8423 15.8745 60.8761 16.0059 60.9044 16.1411C60.9327 16.2762 60.9537 16.4131 60.9674 16.5528C60.982 16.6925 60.9893 16.834 60.9893 16.9783C60.9893 17.1225 60.9838 17.2677 60.9711 17.4165C60.9583 17.5644 60.9391 17.7151 60.9126 17.8675C60.8871 18.02 60.8542 18.1743 60.8159 18.3313C60.7775 18.4884 60.7328 18.6472 60.6816 18.8079C60.6369 18.9503 60.5885 19.0891 60.5374 19.2242C60.4863 19.3594 60.4324 19.4899 60.3749 19.6177C60.3183 19.7446 60.258 19.8688 60.1959 19.9884C60.1338 20.108 60.0681 20.224 60.0005 20.3363C59.933 20.4486 59.8627 20.5572 59.7896 20.6622C59.6983 20.7937 59.6043 20.9178 59.5075 21.0356C59.4108 21.1534 59.3112 21.2648 59.2099 21.3698C59.1076 21.4748 59.0036 21.5725 58.8967 21.6647C58.7899 21.7569 58.6804 21.8418 58.5681 21.9212C58.4558 22.0006 58.3426 22.0728 58.2266 22.1385C58.1107 22.2042 57.9929 22.2636 57.8733 22.3165C57.7537 22.3695 57.6313 22.4151 57.5072 22.4553C57.383 22.4946 57.257 22.5284 57.1283 22.5548C56.9996 22.5813 56.8699 22.6023 56.7393 22.616C56.6088 22.6297 56.4764 22.637 56.3431 22.6379C56.2098 22.6379 56.0747 22.6333 55.9387 22.6206C55.8026 22.6087 55.6648 22.5895 55.5242 22.5649L55.5269 22.5621ZM55.966 20.1098C56.1002 20.1336 56.2308 20.1363 56.3586 20.1171C56.4864 20.098 56.6106 20.0569 56.732 19.9939C56.8133 19.9519 56.8918 19.8999 56.9667 19.8369C57.0425 19.7739 57.1146 19.7008 57.184 19.6168C57.2534 19.5328 57.3209 19.4388 57.3848 19.3338C57.4323 19.2553 57.4789 19.1695 57.5227 19.0763C57.5665 18.9832 57.6085 18.8837 57.6478 18.776C57.687 18.6691 57.7245 18.5541 57.7601 18.4327C57.7957 18.3113 57.8285 18.1825 57.8587 18.0465C57.8961 17.8812 57.9253 17.7233 57.9472 17.5736C57.9691 17.4238 57.9828 17.2823 57.9892 17.1481C57.9947 17.0148 57.9929 16.8888 57.9828 16.771C57.9728 16.6533 57.9545 16.5437 57.9281 16.4424C57.9016 16.341 57.8669 16.247 57.824 16.1621C57.7528 16.0196 57.6669 15.8964 57.5674 15.7914C57.4679 15.6864 57.3547 15.6006 57.2287 15.5348C57.1027 15.4691 56.9621 15.4216 56.8097 15.3942C56.6554 15.3669 56.5056 15.3623 56.3614 15.3796C56.2171 15.3979 56.0783 15.4381 55.9469 15.5011C55.8583 15.5431 55.7752 15.596 55.6958 15.6608C55.6164 15.7257 55.5424 15.8005 55.4721 15.8873C55.4018 15.974 55.337 16.0717 55.2758 16.1803C55.2302 16.2625 55.1882 16.3511 55.1498 16.4478C55.1115 16.5446 55.0759 16.6487 55.0439 16.7601C55.012 16.8715 54.9837 16.9911 54.9581 17.1171C54.9325 17.244 54.9106 17.3773 54.8915 17.5188C54.8695 17.6849 54.854 17.842 54.8449 17.9917C54.8358 18.1405 54.8339 18.282 54.8376 18.4144C54.8412 18.5468 54.8522 18.671 54.8695 18.7869C54.886 18.9029 54.9097 19.0106 54.9389 19.1101C54.9681 19.2096 55.0037 19.3009 55.0457 19.384C55.1151 19.5219 55.1955 19.6406 55.2868 19.741C55.3781 19.8405 55.4794 19.9209 55.5926 19.9829C55.7058 20.0441 55.83 20.087 55.966 20.1117V20.1098Z" fill="#FFFEFD"/>
<path d="M63.5471 25.2238C63.4074 25.1535 63.275 25.0795 63.149 25.0019C63.023 24.9234 62.9025 24.8412 62.7893 24.7536C62.6761 24.6659 62.5684 24.5737 62.467 24.4769C62.3657 24.3802 62.2698 24.2779 62.1803 24.1711C62.0909 24.0643 62.0069 23.952 61.9293 23.8342C61.8507 23.7164 61.7795 23.595 61.7138 23.469C61.6481 23.343 61.5896 23.2125 61.5367 23.0782C61.4837 22.944 61.4372 22.8043 61.3979 22.661C61.3577 22.5177 61.3239 22.3698 61.2975 22.2173C61.2701 22.0648 61.2491 21.9078 61.2354 21.7462C61.2235 21.6111 61.2171 21.475 61.2153 21.3363C61.2135 21.1975 61.2171 21.0569 61.2263 20.9145C61.2354 20.772 61.25 20.6278 61.2692 20.4808C61.2893 20.3347 61.3148 20.1859 61.3459 20.0362C61.3769 19.8855 61.4134 19.734 61.4563 19.5797C61.4992 19.4254 61.5476 19.2702 61.6024 19.1122C61.6526 18.9689 61.7047 18.8292 61.7613 18.6941C61.817 18.5589 61.8763 18.4284 61.9384 18.3024C62.0005 18.1764 62.0653 18.055 62.1338 17.9381C62.2022 17.8212 62.2744 17.7089 62.3492 17.6003C62.4241 17.4926 62.5026 17.3894 62.5848 17.2908C62.667 17.1922 62.7519 17.0982 62.8395 17.0096C62.9272 16.921 63.0185 16.837 63.1125 16.7585C63.2065 16.68 63.3033 16.6061 63.4037 16.5376C63.5042 16.4691 63.6064 16.4052 63.7132 16.3477C63.8191 16.2892 63.9287 16.2363 64.0401 16.1888C64.1524 16.1413 64.2665 16.0993 64.3825 16.0619C64.4984 16.0254 64.6171 15.9943 64.7376 15.9688C64.8581 15.9432 64.9805 15.924 65.1056 15.9094C65.2297 15.8957 65.3566 15.8866 65.4854 15.8848C65.6141 15.8821 65.7447 15.8848 65.8761 15.8948C66.0085 15.904 66.1418 15.9195 66.276 15.9405C66.4102 15.9615 66.5453 15.9889 66.6823 16.0227C66.8183 16.0564 66.9562 16.0957 67.094 16.1413C67.2319 16.187 67.3707 16.239 67.5104 16.2965C67.6501 16.3541 67.7897 16.4189 67.9294 16.4892C68.0618 16.5558 68.1896 16.6252 68.3129 16.6983C68.4361 16.7713 68.5548 16.8462 68.669 16.9247C68.7831 17.0032 68.8926 17.0845 68.9967 17.1685C69.1017 17.2524 69.2012 17.3392 69.2962 17.4287C69.3911 17.5181 69.4815 17.6103 69.5664 17.7053C69.6513 17.8002 69.7326 17.897 69.8075 17.9965C69.8832 18.0961 69.9535 18.1983 70.0193 18.3024C70.096 18.4238 70.1654 18.5471 70.2265 18.6722C70.2886 18.7972 70.3434 18.9241 70.3909 19.052C70.4383 19.1798 70.4785 19.3094 70.5114 19.4409C70.5442 19.5724 70.5698 19.7047 70.5881 19.838C70.6063 19.9722 70.6173 20.1065 70.6218 20.2434C70.6255 20.3794 70.6228 20.5173 70.6127 20.6561C70.6027 20.7949 70.5844 20.9336 70.5598 21.0724C70.5351 21.2112 70.5022 21.35 70.463 21.4887C70.4237 21.6275 70.3762 21.7663 70.3224 21.905C70.2685 22.0438 70.2073 22.1826 70.1389 22.3214C70.0713 22.4601 69.9955 22.5998 69.9143 22.7386C69.833 22.8783 69.7445 23.0171 69.6495 23.1568C69.5655 23.2809 69.4797 23.3996 69.3911 23.5137C69.3026 23.6279 69.2131 23.7383 69.1218 23.8433C69.0305 23.9483 68.9374 24.0497 68.8424 24.1455C68.7475 24.2414 68.6516 24.3336 68.553 24.4212C68.4553 24.5089 68.3558 24.592 68.2545 24.6705C68.1285 24.7691 68.0016 24.8604 67.8737 24.9444C67.7459 25.0284 67.6172 25.106 67.4885 25.1754C67.3597 25.2448 67.2292 25.3087 67.0986 25.3644C66.9681 25.4201 66.8366 25.4694 66.7051 25.5123C66.5727 25.5552 66.4413 25.5899 66.3089 25.6191C66.1765 25.6483 66.045 25.6693 65.9126 25.6839C65.7803 25.6985 65.6479 25.7067 65.5155 25.7077C65.3831 25.7086 65.2498 25.7031 65.1165 25.6903C64.9832 25.6775 64.8508 25.6584 64.7184 25.6328C64.587 25.6072 64.4555 25.5753 64.325 25.536C64.1944 25.4977 64.0647 25.452 63.9351 25.4C63.8055 25.3479 63.6758 25.2895 63.5462 25.2247L63.5471 25.2238ZM64.6637 22.997C64.7878 23.0591 64.9147 23.1002 65.0444 23.1193C65.174 23.1385 65.3073 23.1358 65.4443 23.1111C65.5356 23.0947 65.6269 23.0682 65.7182 23.0299C65.8095 22.9915 65.9008 22.9431 65.9921 22.8829C66.0834 22.8226 66.1756 22.7523 66.2678 22.6701C66.3363 22.609 66.4056 22.5396 66.4741 22.4638C66.5426 22.3871 66.612 22.304 66.6805 22.2118C66.7489 22.1196 66.8183 22.0219 66.8868 21.9151C66.9553 21.8083 67.0237 21.6941 67.0913 21.5727C67.1744 21.4248 67.2474 21.2815 67.3104 21.1445C67.3734 21.0067 67.4273 20.8752 67.4702 20.7483C67.5131 20.6214 67.5469 20.5 67.5697 20.384C67.5925 20.2681 67.6053 20.1567 67.6081 20.0517C67.6108 19.9467 67.6035 19.8463 67.5852 19.7513C67.5551 19.5934 67.5067 19.4491 67.4392 19.3195C67.3716 19.1898 67.2849 19.0739 67.1799 18.9725C67.0749 18.8712 66.9516 18.7854 66.8101 18.7141C66.6668 18.642 66.5225 18.5945 66.3764 18.569C66.2313 18.5443 66.0843 18.5425 65.9382 18.5644C65.8405 18.579 65.7437 18.6055 65.6488 18.6448C65.5538 18.684 65.4598 18.7342 65.3667 18.7972C65.2745 18.8602 65.1832 18.9351 65.0928 19.0218C65.0252 19.0866 64.9595 19.1606 64.8947 19.2419C64.8298 19.3231 64.7659 19.4135 64.7038 19.5112C64.6418 19.6089 64.5806 19.7148 64.5203 19.8289C64.4601 19.943 64.4007 20.0654 64.3432 20.1959C64.2747 20.3484 64.2154 20.4954 64.1652 20.636C64.115 20.7766 64.073 20.9117 64.0401 21.0395C64.0072 21.1674 63.9826 21.2906 63.9661 21.4066C63.9497 21.5225 63.9424 21.633 63.9433 21.7371C63.9433 21.8411 63.9534 21.9388 63.9707 22.031C63.9999 22.1844 64.0447 22.3214 64.1049 22.4437C64.1652 22.5661 64.2419 22.6729 64.335 22.7651C64.4281 22.8573 64.5368 22.9349 64.6628 22.9979L64.6637 22.997Z" fill="#FFFEFD"/>
<path d="M70.0076 29.6289C69.8898 29.523 69.7821 29.4162 69.6853 29.3076C69.5885 29.1989 69.5018 29.0894 69.426 28.9771C69.3502 28.8648 69.2845 28.7516 69.2288 28.6347C69.1731 28.5187 69.1283 28.4001 69.0927 28.2786C69.058 28.1572 69.0334 28.033 69.0188 27.9061C69.0042 27.7792 69.0005 27.6496 69.0069 27.5163C69.0124 27.4022 69.0252 27.2853 69.0453 27.1666C69.0654 27.047 69.0927 26.9247 69.1274 26.8005C69.1621 26.6754 69.2041 26.5476 69.2543 26.418C69.3046 26.2883 69.3612 26.1541 69.426 26.019C69.4908 25.8829 69.5629 25.7442 69.6433 25.6036C69.7236 25.4621 69.8113 25.3187 69.9071 25.1717C70.003 25.0247 70.1071 24.8759 70.2194 24.7253C70.3271 24.5801 70.4312 24.4386 70.5334 24.3007C70.6357 24.1629 70.7343 24.0287 70.832 23.8981C70.9288 23.7675 71.0237 23.6388 71.1159 23.5137C71.2081 23.3887 71.2994 23.2663 71.388 23.1458C71.4766 23.0253 71.5642 22.9075 71.65 22.7916C71.7359 22.6756 71.8208 22.5606 71.9048 22.4483C71.9888 22.3351 72.0709 22.2237 72.1531 22.1123C72.2353 22.0009 72.3165 21.8914 72.3978 21.7818C72.479 21.6722 72.5594 21.5636 72.6406 21.454C72.721 21.3454 72.8022 21.2358 72.8835 21.1263C72.9647 21.0167 73.046 20.9071 73.1282 20.7958C73.2103 20.6844 73.2925 20.573 73.3765 20.4598C73.4605 20.3466 73.5445 20.2324 73.6312 20.1165C73.7179 20.0005 73.8047 19.8828 73.8933 19.7623C73.9818 19.6417 74.0731 19.5194 74.1653 19.3943C74.2575 19.2692 74.3525 19.1414 74.4493 19.01C74.546 18.8794 74.6456 18.7452 74.7478 18.6073C74.8501 18.4695 74.9541 18.3279 75.0619 18.1828C75.145 18.0705 75.2308 17.971 75.3202 17.8842C75.4097 17.7975 75.5019 17.7236 75.5969 17.6624C75.6918 17.6012 75.7914 17.5528 75.8936 17.5181C75.9959 17.4834 76.1018 17.4606 76.2104 17.4524C76.3191 17.4433 76.4295 17.4478 76.5409 17.4643C76.6523 17.4816 76.7655 17.5108 76.8796 17.5537C76.9938 17.5966 77.1088 17.6523 77.2248 17.7217C77.3407 17.7911 77.4576 17.8733 77.5744 17.9682C77.6949 18.0659 77.8018 18.1654 77.8958 18.2677C77.9898 18.369 78.0711 18.4731 78.1387 18.5781C78.2071 18.6831 78.2619 18.7899 78.3039 18.8977C78.3459 19.0054 78.3751 19.1149 78.3906 19.2254C78.4062 19.3359 78.408 19.4454 78.397 19.5541C78.3852 19.6627 78.3596 19.7714 78.3213 19.8782C78.282 19.985 78.2299 20.0918 78.1633 20.1978C78.0967 20.3037 78.0181 20.4077 77.925 20.5127C77.8063 20.646 77.6913 20.7757 77.579 20.9017C77.4667 21.0277 77.3571 21.1509 77.2512 21.2714C77.1453 21.3919 77.0403 21.5088 76.9381 21.6238C76.8358 21.7389 76.7363 21.8512 76.6386 21.9616C76.5409 22.0721 76.4451 22.1799 76.3501 22.2867C76.2552 22.3935 76.162 22.4985 76.0698 22.6017C75.9776 22.7048 75.8872 22.808 75.7968 22.9093C75.7065 23.0107 75.617 23.112 75.5275 23.2124C75.438 23.3129 75.3495 23.4133 75.2609 23.5128C75.1724 23.6123 75.0838 23.7128 74.9943 23.8132C74.9048 23.9136 74.8154 24.0141 74.725 24.1163C74.6346 24.2186 74.5442 24.3208 74.452 24.424C74.3598 24.5281 74.2667 24.6331 74.1717 24.739C74.0768 24.8458 73.9809 24.9535 73.8832 25.064C73.7855 25.1745 73.6851 25.2868 73.5837 25.4018C73.4815 25.5168 73.3774 25.6337 73.2706 25.7542C73.1638 25.8747 73.0542 25.9971 72.9428 26.124C72.8314 26.2509 72.7155 26.3796 72.5968 26.5129C72.4927 26.6298 72.4051 26.7421 72.3339 26.8498C72.2617 26.9575 72.206 27.0607 72.1659 27.1584C72.1257 27.257 72.101 27.3501 72.0919 27.4387C72.0782 27.572 72.091 27.6925 72.1294 27.8011C72.1677 27.9098 72.2325 28.0066 72.3238 28.0915C72.3795 28.1435 72.4434 28.191 72.5155 28.233C72.5877 28.2759 72.6726 28.3252 72.7438 28.3854C72.8095 28.4411 72.8543 28.5215 72.8753 28.6C72.8963 28.6785 72.8944 28.7634 72.8689 28.8538C72.8524 28.9141 72.8177 28.9853 72.7666 29.0656C72.7155 29.146 72.647 29.2364 72.5621 29.3359C72.4763 29.4354 72.374 29.5449 72.2544 29.6645C72.1494 29.7695 72.0481 29.859 71.9495 29.9348C71.8509 30.0106 71.7559 30.0717 71.6637 30.1192C71.5715 30.1667 71.483 30.1996 71.3971 30.2187C71.2684 30.2479 71.1406 30.2498 71.0137 30.226C70.8868 30.2023 70.7599 30.1512 70.632 30.0754C70.5654 30.0297 70.4686 29.9649 70.3417 29.8828C70.2148 29.8006 70.1034 29.7166 70.0076 29.6299V29.6289Z" fill="#FFFEFD"/>
<defs>
<linearGradient id="paint0_linear_1051_34611" x1="-0.000174054" y1="49.9972" x2="100.003" y2="49.9972" gradientUnits="userSpaceOnUse">
<stop stop-color="#C58537"/>
<stop offset="0.02" stop-color="#C8893B"/>
<stop offset="0.04" stop-color="#D39747"/>
<stop offset="0.07" stop-color="#E6AF5B"/>
<stop offset="0.09" stop-color="#FFCE77"/>
<stop offset="0.14" stop-color="#EFBF71"/>
<stop offset="0.24" stop-color="#C69B61"/>
<stop offset="0.28" stop-color="#B1885A"/>
<stop offset="0.52" stop-color="#FFCE77"/>
<stop offset="0.57" stop-color="#EFC071"/>
<stop offset="0.67" stop-color="#C69E62"/>
<stop offset="0.72" stop-color="#B08C5A"/>
<stop offset="0.76" stop-color="#C09960"/>
<stop offset="0.83" stop-color="#ECBE70"/>
<stop offset="0.85" stop-color="#FFCE77"/>
<stop offset="0.89" stop-color="#F2BE69"/>
<stop offset="0.97" stop-color="#D19545"/>
<stop offset="1" stop-color="#C58537"/>
</linearGradient>
<linearGradient id="paint1_linear_1051_34611" x1="46.2266" y1="44.9468" x2="47.1086" y2="44.9468" gradientUnits="userSpaceOnUse">
<stop stop-color="#C58537"/>
<stop offset="0.02" stop-color="#C8893B"/>
<stop offset="0.04" stop-color="#D39747"/>
<stop offset="0.07" stop-color="#E6AF5B"/>
<stop offset="0.09" stop-color="#FFCE77"/>
<stop offset="0.14" stop-color="#EFBF71"/>
<stop offset="0.24" stop-color="#C69B61"/>
<stop offset="0.28" stop-color="#B1885A"/>
<stop offset="0.52" stop-color="#FFCE77"/>
<stop offset="0.57" stop-color="#EFC071"/>
<stop offset="0.67" stop-color="#C69E62"/>
<stop offset="0.72" stop-color="#B08C5A"/>
<stop offset="0.76" stop-color="#C09960"/>
<stop offset="0.83" stop-color="#ECBE70"/>
<stop offset="0.85" stop-color="#FFCE77"/>
<stop offset="0.89" stop-color="#F2BE69"/>
<stop offset="0.97" stop-color="#D19545"/>
<stop offset="1" stop-color="#C58537"/>
</linearGradient>
<linearGradient id="paint2_linear_1051_34611" x1="32.0976" y1="49.7714" x2="67.9101" y2="49.7714" gradientUnits="userSpaceOnUse">
<stop stop-color="#C58537"/>
<stop offset="0.02" stop-color="#C8893B"/>
<stop offset="0.04" stop-color="#D39747"/>
<stop offset="0.07" stop-color="#E6AF5B"/>
<stop offset="0.09" stop-color="#FFCE77"/>
<stop offset="0.14" stop-color="#EFBF71"/>
<stop offset="0.24" stop-color="#C69B61"/>
<stop offset="0.28" stop-color="#B1885A"/>
<stop offset="0.52" stop-color="#FFCE77"/>
<stop offset="0.57" stop-color="#EFC071"/>
<stop offset="0.67" stop-color="#C69E62"/>
<stop offset="0.72" stop-color="#B08C5A"/>
<stop offset="0.76" stop-color="#C09960"/>
<stop offset="0.83" stop-color="#ECBE70"/>
<stop offset="0.85" stop-color="#FFCE77"/>
<stop offset="0.89" stop-color="#F2BE69"/>
<stop offset="0.97" stop-color="#D19545"/>
<stop offset="1" stop-color="#C58537"/>
</linearGradient>
</defs>
</svg>
