<svg width="106" height="44" viewBox="0 0 106 44" fill="none" xmlns="http://www.w3.org/2000/svg">
<path d="M54.9943 18.9185C54.5359 18.9185 54.057 18.8862 53.5584 18.8231C53.0598 18.7592 52.5867 18.6646 52.1392 18.5376C51.6917 18.4107 51.2902 18.261 50.9354 18.0878C50.6259 17.9381 50.4076 17.7392 50.282 17.4904C50.1557 17.2424 50.1097 16.9797 50.1441 16.703C50.1784 16.4263 50.2755 16.1812 50.4368 15.9677C50.5974 15.7541 50.8091 15.6103 51.0734 15.5347C51.3369 15.4599 51.6348 15.4973 51.9677 15.647C52.4035 15.8547 52.8962 16.0161 53.4467 16.1313C53.9971 16.2465 54.5132 16.3045 54.9943 16.3045C55.7514 16.3045 56.2814 16.204 56.5851 16.0014C56.8887 15.7996 57.0406 15.5487 57.0406 15.2485C57.0406 14.9836 56.9347 14.77 56.7223 14.6086C56.5099 14.4472 56.1346 14.3085 55.5959 14.1932L53.5839 13.7603C52.483 13.5298 51.6632 13.1262 51.1245 12.5487C50.5857 11.9719 50.3163 11.2278 50.3163 10.3163C50.3163 9.71677 50.4397 9.17152 50.6857 8.68131C50.9325 8.1911 51.2822 7.77281 51.7348 7.42643C52.1874 7.08006 52.7261 6.81221 53.351 6.62141C53.9759 6.43134 54.6724 6.33594 55.4404 6.33594C56.0361 6.33594 56.6413 6.40271 57.2545 6.53481C57.8677 6.66763 58.3984 6.86651 58.8452 7.13216C59.1087 7.27086 59.2978 7.46093 59.4124 7.7031C59.527 7.94527 59.573 8.19624 59.5497 8.45602C59.5263 8.71581 59.438 8.94329 59.2832 9.13923C59.1285 9.3359 58.9219 9.46506 58.6642 9.52891C58.4065 9.59275 58.0991 9.54945 57.7443 9.39902C57.4114 9.24931 57.0362 9.13703 56.6179 9.06145C56.1996 8.9866 55.7952 8.94917 55.4053 8.94917C54.9812 8.94917 54.6198 8.99833 54.322 9.09594C54.0234 9.19427 53.7971 9.33517 53.6423 9.5201C53.4876 9.70503 53.4102 9.91785 53.4102 10.1607C53.4102 10.4037 53.5102 10.6077 53.7109 10.775C53.9117 10.9423 54.2811 11.0839 54.8206 11.1991L56.8157 11.6321C57.9276 11.8743 58.7591 12.2728 59.3095 12.8261C59.8599 13.3794 60.1351 14.1008 60.1351 14.9895C60.1351 15.5898 60.0147 16.1313 59.7738 16.6164C59.5329 17.1007 59.189 17.5132 58.7415 17.8537C58.294 18.1942 57.7553 18.4569 57.1253 18.6411C56.4945 18.8253 55.7835 18.9177 54.9929 18.9177L54.9943 18.9185Z" fill="#002B4B"/>
<path d="M65.7946 18.9186C64.8426 18.9186 64.0148 18.7396 63.3096 18.3822C62.6044 18.0248 62.0569 17.5082 61.667 16.8338C61.2772 16.1586 61.0823 15.3661 61.0823 14.4547C61.0823 13.7626 61.191 13.1425 61.4093 12.5943C61.6269 12.0462 61.9452 11.5824 62.3635 11.2015C62.7818 10.8206 63.2804 10.5293 63.86 10.3275C64.4389 10.1257 65.0835 10.0244 65.7946 10.0244C66.1267 10.0244 66.4764 10.0567 66.8436 10.1198C67.2108 10.1837 67.589 10.3018 67.9788 10.4743C68.254 10.5785 68.446 10.737 68.5548 10.9498C68.6636 11.1633 68.7096 11.3908 68.6928 11.633C68.6752 11.8752 68.6066 12.0946 68.4862 12.2905C68.3657 12.4872 68.1993 12.6193 67.9876 12.6883C67.7751 12.7573 67.5371 12.7286 67.2736 12.6017C67.0904 12.5092 66.8984 12.4432 66.6976 12.4028C66.4969 12.3625 66.3049 12.3426 66.1216 12.3426C65.8121 12.3426 65.5398 12.3889 65.3047 12.4813C65.0697 12.5738 64.8718 12.7096 64.7112 12.8879C64.5506 13.0669 64.4272 13.2886 64.3418 13.5542C64.2557 13.8199 64.2126 14.1193 64.2126 14.4539C64.2126 15.1232 64.3783 15.6479 64.7112 16.0287C65.0434 16.4096 65.5135 16.5997 66.1216 16.5997C66.3049 16.5997 66.4939 16.5799 66.6888 16.5395C66.8838 16.4992 67.0787 16.4331 67.2736 16.3406C67.5371 16.2137 67.7722 16.188 67.9788 16.2629C68.1854 16.3377 68.3511 16.4735 68.4774 16.6694C68.6037 16.8653 68.6723 17.0818 68.684 17.3181C68.695 17.5544 68.6439 17.7797 68.5292 17.9933C68.4146 18.2068 68.2197 18.3653 67.9445 18.4695C67.5663 18.6427 67.1962 18.7609 66.8349 18.824C66.4735 18.8871 66.1267 18.9194 65.7946 18.9194V18.9186Z" fill="#002B4B"/>
<path d="M71.3144 18.8842C70.8325 18.8842 70.4602 18.7513 70.1967 18.4864C69.9332 18.2215 69.801 17.8348 69.801 17.3269V7.93076C69.801 7.42293 69.9324 7.03693 70.1967 6.77127C70.461 6.50562 70.8333 6.37354 71.3144 6.37354C71.7954 6.37354 72.1882 6.50636 72.4583 6.77127C72.7277 7.03693 72.8627 7.42293 72.8627 7.93076V11.7027H72.5875C72.8627 11.1604 73.2555 10.7451 73.7658 10.4567C74.2761 10.1683 74.8579 10.0237 75.5113 10.0237C76.1646 10.0237 76.7436 10.1536 77.1794 10.4134C77.6152 10.6731 77.9415 11.0768 78.1598 11.6249C78.3773 12.1731 78.4868 12.8622 78.4868 13.6929V17.3269C78.4868 17.8348 78.3547 18.2215 78.0912 18.4864C77.8269 18.7513 77.4488 18.8842 76.956 18.8842C76.4632 18.8842 76.0843 18.7513 75.8208 18.4864C75.5565 18.2215 75.4251 17.8348 75.4251 17.3269V13.814C75.4251 13.2952 75.3361 12.9261 75.1587 12.7066C74.9805 12.4879 74.7199 12.3779 74.3761 12.3779C73.9176 12.3779 73.5504 12.5246 73.2752 12.8189C73 13.1132 72.8627 13.5087 72.8627 14.0041V17.3262C72.8627 18.3646 72.3466 18.8834 71.3151 18.8834L71.3144 18.8842Z" fill="#002B4B"/>
<path d="M84.5064 18.9184C83.5661 18.9184 82.7463 18.7393 82.0469 18.382C81.3475 18.0246 80.803 17.5109 80.4131 16.8416C80.0233 16.1731 79.8284 15.3827 79.8284 14.4713C79.8284 13.7793 79.9372 13.1592 80.1554 12.611C80.373 12.0628 80.6883 11.5961 81.1015 11.2093C81.514 10.8226 82.0075 10.5291 82.5806 10.3265C83.1536 10.1247 83.7961 10.0234 84.5071 10.0234C85.4474 10.0234 86.2672 10.2025 86.9665 10.5599C87.6659 10.9173 88.2076 11.428 88.5916 12.0914C88.9756 12.7548 89.1676 13.5481 89.1676 14.4706C89.1676 15.1516 89.0588 15.7687 88.8405 16.322C88.6222 16.8754 88.3098 17.3458 87.9032 17.7325C87.4958 18.1192 87.003 18.4135 86.4241 18.6153C85.8452 18.8171 85.2057 18.9184 84.5064 18.9184ZM84.5064 16.6515C84.8159 16.6515 85.0911 16.5738 85.332 16.4182C85.5729 16.2626 85.7591 16.0263 85.8912 15.7086C86.0226 15.3915 86.0891 14.9791 86.0891 14.4713C86.0891 13.6985 85.9401 13.1416 85.6415 12.801C85.343 12.4613 84.9648 12.2903 84.5064 12.2903C84.1968 12.2903 83.9216 12.3651 83.6807 12.5148C83.4398 12.6653 83.2507 12.8987 83.1135 13.2157C82.9762 13.5334 82.9069 13.951 82.9069 14.4706C82.9069 15.2316 83.0558 15.7856 83.3544 16.132C83.6522 16.4784 84.0362 16.6508 84.5064 16.6508V16.6515Z" fill="#002B4B"/>
<path d="M94.8579 18.9184C93.9176 18.9184 93.0978 18.7393 92.3985 18.382C91.6991 18.0246 91.1545 17.5109 90.7647 16.8416C90.3748 16.1731 90.1799 15.3827 90.1799 14.4713C90.1799 13.7793 90.2887 13.1592 90.507 12.611C90.7245 12.0628 91.0399 11.5961 91.4531 11.2093C91.8656 10.8226 92.359 10.5291 92.9321 10.3265C93.5052 10.1247 94.1476 10.0234 94.8586 10.0234C95.7989 10.0234 96.6187 10.2025 97.3181 10.5599C98.0175 10.9173 98.5591 11.428 98.9431 12.0914C99.3271 12.7548 99.5191 13.5481 99.5191 14.4706C99.5191 15.1516 99.4103 15.7687 99.1921 16.322C98.9738 16.8754 98.6613 17.3458 98.2547 17.7325C97.8474 18.1192 97.3546 18.4135 96.7757 18.6153C96.1968 18.8171 95.5573 18.9184 94.8579 18.9184ZM94.8579 16.6515C95.1674 16.6515 95.4427 16.5738 95.6836 16.4182C95.9245 16.2626 96.1106 16.0263 96.2428 15.7086C96.3742 15.3915 96.4406 14.9791 96.4406 14.4713C96.4406 13.6985 96.2917 13.1416 95.9931 12.801C95.6945 12.4613 95.3164 12.2903 94.8579 12.2903C94.5484 12.2903 94.2732 12.3651 94.0323 12.5148C93.7914 12.6653 93.6023 12.8987 93.465 13.2157C93.3278 13.5334 93.2584 13.951 93.2584 14.4706C93.2584 15.2316 93.4074 15.7856 93.7059 16.132C94.0038 16.4784 94.3878 16.6508 94.8579 16.6508V16.6515Z" fill="#002B4B"/>
<path d="M104.146 18.9187C103.045 18.9187 102.234 18.6214 101.713 18.0278C101.191 17.4341 100.93 16.5366 100.93 15.3367V7.93076C100.93 7.42293 101.061 7.03693 101.326 6.77127C101.59 6.50562 101.962 6.37354 102.443 6.37354C102.924 6.37354 103.317 6.50636 103.587 6.77127C103.857 7.03693 103.992 7.42293 103.992 7.93076V15.2333C103.992 15.6604 104.075 15.9715 104.241 16.1675C104.407 16.3641 104.622 16.4617 104.886 16.4617C104.966 16.4617 105.049 16.4529 105.136 16.4361C105.222 16.4184 105.316 16.4045 105.42 16.3928C105.614 16.3928 105.76 16.4676 105.858 16.618C105.955 16.7677 106.004 17.0738 106.004 17.5354C106.004 17.939 105.924 18.242 105.763 18.4439C105.603 18.6457 105.356 18.7755 105.024 18.8335C104.932 18.8445 104.801 18.8622 104.628 18.8856C104.457 18.9084 104.295 18.9201 104.146 18.9201L104.146 18.9187Z" fill="#002B4B"/>
<path d="M51.954 37.5842C51.4415 37.5842 51.0458 37.4408 50.7669 37.1548C50.4873 36.8689 50.3479 36.4688 50.3479 35.9553V26.7089C50.3479 26.1838 50.4903 25.7808 50.7757 25.5006C51.0611 25.2205 51.459 25.0801 51.9715 25.0801H56.2662C57.6627 25.0801 58.7424 25.4216 59.5046 26.1048C60.2667 26.7879 60.6478 27.7365 60.6478 28.9507C60.6478 29.7333 60.4762 30.4127 60.1331 30.9906C59.79 31.5684 59.2951 32.0123 58.649 32.3217C58.0029 32.6311 57.2087 32.7862 56.2662 32.7862L56.4056 32.4709H57.2437C57.7438 32.4709 58.1862 32.5909 58.5709 32.83C58.9549 33.0692 59.2746 33.4342 59.5309 33.9242L60.404 35.5004C60.5901 35.839 60.6777 36.1689 60.6661 36.49C60.6544 36.8111 60.5288 37.0736 60.2908 37.2777C60.0521 37.4818 59.7061 37.5842 59.252 37.5842C58.7979 37.5842 58.4285 37.4906 58.1431 37.304C57.8576 37.1175 57.6043 36.8257 57.3839 36.4286L55.7953 33.5044C55.6559 33.2477 55.4778 33.0699 55.2631 32.9705C55.0478 32.8717 54.8003 32.822 54.5214 32.822H53.5615V35.9568C53.5615 36.471 53.4279 36.8703 53.1599 37.1563C52.892 37.4423 52.4905 37.5856 51.9554 37.5856L51.954 37.5842ZM53.56 30.5444H55.6902C56.3071 30.5444 56.7787 30.4215 57.1043 30.1765C57.4299 29.9315 57.5934 29.5519 57.5934 29.0384C57.5934 28.525 57.4306 28.1776 57.1043 27.9267C56.7779 27.6758 56.3071 27.55 55.6902 27.55H53.56V30.5444Z" fill="#002B4B"/>
<path d="M66.5654 37.6193C65.6113 37.6193 64.7784 37.4379 64.0688 37.0766C63.3585 36.7146 62.8058 36.1953 62.4102 35.518C62.0145 34.8414 61.8167 34.0413 61.8167 33.119C61.8167 32.4183 61.9269 31.7907 62.1481 31.2363C62.3693 30.6819 62.689 30.2095 63.1081 29.8181C63.5271 29.4268 64.0272 29.1292 64.6097 28.9251C65.1915 28.721 65.8435 28.6187 66.5654 28.6187C67.5196 28.6187 68.3518 28.8 69.0621 29.1613C69.7717 29.5234 70.3222 30.0398 70.712 30.7112C71.1018 31.3826 71.2967 32.185 71.2967 33.119C71.2967 33.808 71.1858 34.4326 70.9653 34.9928C70.7441 35.5531 70.4265 36.0292 70.0141 36.4198C69.6009 36.8111 69.1001 37.1088 68.5124 37.3129C67.9248 37.5169 67.2758 37.6193 66.5662 37.6193H66.5654ZM66.5654 35.3256C66.8794 35.3256 67.159 35.2466 67.4035 35.0894C67.6481 34.9314 67.8371 34.693 67.9707 34.3711C68.1043 34.0501 68.1715 33.6332 68.1715 33.119C68.1715 32.3371 68.0204 31.7739 67.7174 31.4294C67.4145 31.0849 67.0305 30.9131 66.5654 30.9131C66.2515 30.9131 65.9719 30.9891 65.7274 31.1405C65.4828 31.2927 65.2908 31.5289 65.1514 31.85C65.012 32.1711 64.9419 32.5946 64.9419 33.1197C64.9419 33.8899 65.093 34.4509 65.3959 34.8005C65.6982 35.1508 66.088 35.3256 66.5654 35.3256Z" fill="#002B4B"/>
<path d="M75.9446 37.6196C75.1992 37.6196 74.5882 37.4821 74.1115 37.2078C73.6341 36.9336 73.2764 36.5218 73.0376 35.9732C72.7989 35.4247 72.6799 34.7298 72.6799 33.8894V30.2119C72.6799 29.6985 72.8135 29.3101 73.0814 29.0475C73.3494 28.785 73.7333 28.6533 74.2334 28.6533C74.7335 28.6533 75.1175 28.785 75.3854 29.0475C75.6533 29.3101 75.7869 29.6985 75.7869 30.2119V33.9772C75.7869 34.3978 75.8745 34.713 76.049 34.9229C76.2235 35.1328 76.4972 35.2382 76.8695 35.2382C77.2886 35.2382 77.6317 35.0868 77.8996 34.7825C78.1675 34.479 78.3011 34.076 78.3011 33.5742V30.2119C78.3011 29.6985 78.4347 29.3101 78.7026 29.0475C78.9705 28.785 79.3545 28.6533 79.8546 28.6533C80.3547 28.6533 80.7387 28.785 81.0066 29.0475C81.2745 29.3101 81.4081 29.6985 81.4081 30.2119V36.0083C81.4081 37.0594 80.9073 37.5845 79.9064 37.5845C79.418 37.5845 79.0392 37.4499 78.772 37.1815C78.5041 36.9131 78.3705 36.5218 78.3705 36.0083V34.9924L78.6501 35.8503C78.3938 36.4223 78.0361 36.8604 77.5762 37.1639C77.1163 37.4675 76.5724 37.6196 75.9439 37.6196H75.9446Z" fill="#002B4B"/>
<path d="M87.7265 37.6193C86.8533 37.6193 86.135 37.4847 85.57 37.2163C85.0049 36.9479 84.5837 36.5419 84.3041 35.9992C84.0245 35.4565 83.8851 34.7763 83.8851 33.9593V31.1047H83.2916C82.9192 31.1047 82.6309 31.0059 82.4272 30.807C82.2235 30.6088 82.1213 30.3228 82.1213 29.9491C82.1213 29.5753 82.2235 29.2923 82.4272 29.0999C82.6309 28.9075 82.9185 28.811 83.2916 28.811H83.8851V27.7256C83.8851 27.2121 84.0187 26.8208 84.2866 26.5524C84.5545 26.284 84.9385 26.1494 85.4386 26.1494C85.9386 26.1494 86.3226 26.284 86.5905 26.5524C86.8585 26.8208 86.9921 27.2121 86.9921 27.7256V28.811H88.4236C88.8076 28.811 89.1018 28.9075 89.3055 29.0999C89.5092 29.2923 89.6114 29.5753 89.6114 29.9491C89.6114 30.3228 89.5092 30.6088 89.3055 30.807C89.1018 31.0059 88.8076 31.1047 88.4236 31.1047H86.9921V33.854C86.9921 34.2863 87.0935 34.6045 87.2979 34.8085C87.5016 35.0133 87.8243 35.115 88.2667 35.115C88.4295 35.115 88.5864 35.0974 88.7383 35.0623C88.8894 35.0272 89.0288 35.0097 89.1573 35.0097C89.3435 34.998 89.4946 35.0535 89.6114 35.1757C89.7275 35.2978 89.7859 35.5758 89.7859 36.0073C89.7859 36.3576 89.7333 36.6524 89.6289 36.8916C89.5238 37.1307 89.3376 37.3033 89.0704 37.4079C88.9076 37.4664 88.6864 37.5154 88.4068 37.5564C88.1272 37.5974 87.9002 37.6178 87.7257 37.6178L87.7265 37.6193Z" fill="#002B4B"/>
<path d="M95.2484 37.6193C94.2009 37.6193 93.2956 37.435 92.5335 37.0678C91.7713 36.6999 91.1859 36.1777 90.7792 35.5004C90.3719 34.8239 90.1682 34.0237 90.1682 33.1014C90.1682 32.1791 90.3631 31.4353 90.753 30.7639C91.1428 30.0924 91.6779 29.5673 92.359 29.1877C93.0401 28.8088 93.8169 28.6187 94.69 28.6187C95.3302 28.6187 95.912 28.721 96.4355 28.9251C96.9589 29.1292 97.4071 29.4268 97.7794 29.8181C98.1517 30.2095 98.4343 30.679 98.6263 31.2276C98.8183 31.7761 98.9146 32.3898 98.9146 33.0663C98.9146 33.3004 98.8504 33.4723 98.7226 33.5827C98.5941 33.6939 98.3912 33.7487 98.1116 33.7487H92.7693V32.2779H96.645L96.3654 32.5053C96.3654 32.0738 96.307 31.7235 96.1909 31.455C96.0741 31.1866 95.9025 30.9825 95.6762 30.8421C95.4492 30.7017 95.1667 30.6322 94.8294 30.6322C94.4688 30.6322 94.1571 30.7171 93.8957 30.886C93.6336 31.0557 93.4329 31.3036 93.2934 31.6306C93.154 31.9575 93.0839 32.3664 93.0839 32.8564V33.0144C93.0839 33.8431 93.2672 34.4355 93.6336 34.7917C94.0001 35.1479 94.5681 35.3256 95.336 35.3256C95.5916 35.3256 95.8858 35.2935 96.2179 35.2291C96.5493 35.1647 96.8669 35.0748 97.1691 34.9577C97.4714 34.8414 97.7334 34.821 97.9546 34.8963C98.1758 34.9724 98.3474 35.1004 98.4693 35.2817C98.5912 35.4631 98.6584 35.6672 98.6701 35.8947C98.6817 36.1221 98.6292 36.3445 98.5131 36.5602C98.3963 36.7767 98.2043 36.9428 97.9371 37.0591C97.5298 37.2456 97.0961 37.386 96.6362 37.4796C96.1763 37.5732 95.7135 37.62 95.2484 37.62V37.6193Z" fill="#002B4B"/>
<path d="M21.9099 43.5604C19.0112 43.5604 16.1993 42.9906 13.5521 41.8664C10.9952 40.7805 8.69908 39.226 6.72675 37.246C4.75443 35.266 3.20628 32.9599 2.1248 30.393C1.00521 27.7354 0.437744 24.9119 0.437744 22.0009C0.437744 19.0898 1.00521 16.2668 2.1248 13.6088C3.20628 11.0414 4.75443 8.73575 6.72675 6.75531C8.69908 4.77487 10.9952 3.22035 13.5521 2.13443C16.1988 1.01023 19.0107 0.44043 21.9099 0.44043C24.809 0.44043 27.6204 1.01023 30.2676 2.13443C32.8245 3.22035 35.1206 4.77487 37.093 6.75531C39.0653 8.73575 40.6134 11.0414 41.6949 13.6088C42.8145 16.2664 43.382 19.0898 43.382 22.0009C43.382 24.9119 42.8145 27.7349 41.6949 30.393C40.6134 32.9604 39.0653 35.266 37.093 37.246C35.1206 39.226 32.8245 40.7809 30.2676 41.8664C27.6209 42.9906 24.809 43.5604 21.9099 43.5604Z" fill="#002B4B"/>
<path d="M21.9101 0.880488C24.7501 0.880488 27.5046 1.43885 30.097 2.53973C32.6017 3.60321 34.851 5.12649 36.783 7.06645C38.715 9.00641 40.2316 11.2649 41.2911 13.78C42.3875 16.383 42.9436 19.1488 42.9436 22.0005C42.9436 24.8521 42.3875 27.618 41.2911 30.221C40.232 32.736 38.715 34.9946 36.783 36.9345C34.851 38.8745 32.6017 40.3973 30.097 41.4613C27.5046 42.5621 24.7501 43.1205 21.9101 43.1205C19.0702 43.1205 16.3156 42.5621 13.7233 41.4613C11.2185 40.3978 8.96927 38.8745 7.03726 36.9345C5.10524 34.9946 3.58864 32.736 2.52908 30.221C1.43271 27.618 0.876639 24.8521 0.876639 22.0005C0.876639 19.1488 1.43271 16.383 2.52908 13.78C3.5882 11.2649 5.10524 9.00641 7.03726 7.06645C8.96927 5.12649 11.2185 3.60365 13.7233 2.53973C16.3156 1.43885 19.0702 0.880488 21.9101 0.880488ZM21.9101 0.000488281C9.80973 0.000488281 0.000244141 9.85033 0.000244141 22.0005C0.000244141 34.1507 9.80973 44.0005 21.9101 44.0005C34.0105 44.0005 43.82 34.1507 43.82 22.0005C43.82 9.85033 34.0105 0.000488281 21.9101 0.000488281Z" fill="url(#paint0_linear_1304_41139)"/>
<path d="M20.1147 18.9369C20.1147 19.0698 20.0075 19.1773 19.8755 19.1773C19.7435 19.1773 19.6363 19.0698 19.6363 18.9369C19.6363 18.8041 19.7435 18.6966 19.8755 18.6966C20.0075 18.6966 20.1147 18.8041 20.1147 18.9369Z" fill="#F8C875" stroke="url(#paint1_linear_1304_41139)" stroke-width="0.0611811"/>
<path d="M30.2183 27.6115C32.9799 19.4167 33.2094 14.1556 32.5717 12.6595C32.5647 12.643 32.551 12.6319 32.5338 12.6269L32.3676 12.5783M32.3676 12.5783L29.0894 11.6232C29.06 11.6146 29.0289 11.6291 29.0164 11.657L27.634 14.7487M32.3676 12.5783L28.8405 20.65L28.8399 20.6506M28.1706 26.1414C28.6931 26.3331 29.2786 26.6292 29.7711 27.0869C29.9418 27.246 30.0911 27.4217 30.2177 27.6115C30.7164 28.3579 30.8614 29.3089 30.6044 30.1948L29.579 33.7321C29.3857 34.398 28.6919 34.7807 28.0287 34.5872L27.07 34.3071M27.07 34.3071C26.6013 35.3625 25.4064 35.9664 24.2342 35.6236L14.7682 32.8566M27.07 34.3071C27.1648 34.0945 27.2296 33.8648 27.2596 33.6209L29.0277 19.1141C29.2272 17.4757 28.6814 15.8963 27.6346 14.7487C27.0889 14.1504 26.4079 13.67 25.6242 13.3591C25.467 13.2964 25.3049 13.2412 25.1397 13.1926L22.95 12.5525C22.7683 12.499 22.5847 12.456 22.4018 12.4229C21.5912 12.2742 20.7774 12.3147 20.0133 12.5212C18.5168 12.9248 17.2118 13.9636 16.5046 15.4534L13.4712 21.8436M20.5065 9.11472L17.1789 8.13855M17.1789 8.13855L16.9855 8.08203M17.1789 8.13855L15.8408 16.8503V16.8509M16.9855 8.08263C15.6606 8.96116 13.0439 13.4883 10.9872 21.8597C10.9751 21.909 11.0247 21.9525 11.072 21.9339C11.2457 21.8659 11.4272 21.8144 11.6144 21.7797C12.2745 21.6593 12.9267 21.7244 13.47 21.8442M20.0121 12.5212L20.5064 9.11472M25.6236 13.3591C25.8047 13.157 25.9448 12.9113 26.025 12.633C26.3125 11.6414 25.7448 10.6032 24.7573 10.3145C23.7698 10.0258 22.7359 10.5959 22.4483 11.5874C22.3669 11.8681 22.3541 12.1526 22.4 12.4223M28.6202 22.3645C28.6202 22.3645 27.787 23.9593 26.8338 23.6804L21.4168 22.0973L21.3299 22.0721L15.9129 20.489C14.9597 20.2101 15.109 18.4156 15.109 18.4156M21.1194 19.0183C20.95 19.6026 21.2846 20.2144 21.8665 20.3846C22.4483 20.5548 23.0577 20.2187 23.2271 19.6345M23.571 17.0248L27.0999 18.0563M26.3211 18.7886L26.5774 17.9039M18.3883 15.5099L21.9173 16.5413M13.087 30.0952C18.2489 27.7024 23.9075 29.4434 23.6799 29.4361C19.5478 29.2966 16.4434 31.2158 14.753 32.8192M11.169 25.1364C11.3263 25.0786 11.4841 25.0227 11.6413 24.9693C12.6233 24.6357 13.3409 24.4969 14.4465 24.3875C18.1174 24.022 22.14 24.699 24.3193 25.1309C24.531 25.1726 24.5151 25.4221 24.2997 25.4325C20.4092 25.6156 16.6967 27.676 13.0864 30.0959" stroke="url(#paint2_linear_1304_41139)" stroke-width="0.917717" stroke-miterlimit="10" stroke-linecap="round"/>
<defs>
<linearGradient id="paint0_linear_1304_41139" x1="0.000167871" y1="21.9993" x2="43.8211" y2="21.9993" gradientUnits="userSpaceOnUse">
<stop stop-color="#C58537"/>
<stop offset="0.02" stop-color="#C8893B"/>
<stop offset="0.04" stop-color="#D39747"/>
<stop offset="0.07" stop-color="#E6AF5B"/>
<stop offset="0.09" stop-color="#FFCE77"/>
<stop offset="0.14" stop-color="#EFBF71"/>
<stop offset="0.24" stop-color="#C69B61"/>
<stop offset="0.28" stop-color="#B1885A"/>
<stop offset="0.52" stop-color="#FFCE77"/>
<stop offset="0.57" stop-color="#EFC071"/>
<stop offset="0.67" stop-color="#C69E62"/>
<stop offset="0.72" stop-color="#B08C5A"/>
<stop offset="0.76" stop-color="#C09960"/>
<stop offset="0.83" stop-color="#ECBE70"/>
<stop offset="0.85" stop-color="#FFCE77"/>
<stop offset="0.89" stop-color="#F2BE69"/>
<stop offset="0.97" stop-color="#D19545"/>
<stop offset="1" stop-color="#C58537"/>
</linearGradient>
<linearGradient id="paint1_linear_1304_41139" x1="19.6057" y1="18.9369" x2="20.1453" y2="18.9369" gradientUnits="userSpaceOnUse">
<stop stop-color="#C58537"/>
<stop offset="0.02" stop-color="#C8893B"/>
<stop offset="0.04" stop-color="#D39747"/>
<stop offset="0.07" stop-color="#E6AF5B"/>
<stop offset="0.09" stop-color="#FFCE77"/>
<stop offset="0.14" stop-color="#EFBF71"/>
<stop offset="0.24" stop-color="#C69B61"/>
<stop offset="0.28" stop-color="#B1885A"/>
<stop offset="0.52" stop-color="#FFCE77"/>
<stop offset="0.57" stop-color="#EFC071"/>
<stop offset="0.67" stop-color="#C69E62"/>
<stop offset="0.72" stop-color="#B08C5A"/>
<stop offset="0.76" stop-color="#C09960"/>
<stop offset="0.83" stop-color="#ECBE70"/>
<stop offset="0.85" stop-color="#FFCE77"/>
<stop offset="0.89" stop-color="#F2BE69"/>
<stop offset="0.97" stop-color="#D19545"/>
<stop offset="1" stop-color="#C58537"/>
</linearGradient>
<linearGradient id="paint2_linear_1304_41139" x1="10.9572" y1="21.9002" x2="32.8677" y2="21.9002" gradientUnits="userSpaceOnUse">
<stop stop-color="#C58537"/>
<stop offset="0.02" stop-color="#C8893B"/>
<stop offset="0.04" stop-color="#D39747"/>
<stop offset="0.07" stop-color="#E6AF5B"/>
<stop offset="0.09" stop-color="#FFCE77"/>
<stop offset="0.14" stop-color="#EFBF71"/>
<stop offset="0.24" stop-color="#C69B61"/>
<stop offset="0.28" stop-color="#B1885A"/>
<stop offset="0.52" stop-color="#FFCE77"/>
<stop offset="0.57" stop-color="#EFC071"/>
<stop offset="0.67" stop-color="#C69E62"/>
<stop offset="0.72" stop-color="#B08C5A"/>
<stop offset="0.76" stop-color="#C09960"/>
<stop offset="0.83" stop-color="#ECBE70"/>
<stop offset="0.85" stop-color="#FFCE77"/>
<stop offset="0.89" stop-color="#F2BE69"/>
<stop offset="0.97" stop-color="#D19545"/>
<stop offset="1" stop-color="#C58537"/>
</linearGradient>
</defs>
</svg>
