<svg width="43" height="44" viewBox="0 0 43 44" fill="none" xmlns="http://www.w3.org/2000/svg">
<path d="M7.16667 29.3333C7.60551 29.3334 8.02906 29.4983 8.357 29.7966C8.68494 30.095 8.89445 30.5062 8.94579 30.9522L8.95833 31.1667V34.8333H12.5417C12.9983 34.8339 13.4376 35.0128 13.7696 35.3336C14.1017 35.6543 14.3015 36.0927 14.3283 36.5592C14.355 37.0257 14.2067 37.485 13.9136 37.8434C13.6205 38.2017 13.2048 38.432 12.7513 38.4872L12.5417 38.5H8.95833C8.0543 38.5003 7.18357 38.1509 6.52068 37.5219C5.8578 36.8929 5.45176 36.0308 5.38396 35.1083L5.375 34.8333V31.1667C5.375 30.6804 5.56376 30.2141 5.89977 29.8703C6.23577 29.5265 6.69149 29.3333 7.16667 29.3333ZM35.8333 29.3333C36.3085 29.3333 36.7642 29.5265 37.1002 29.8703C37.4362 30.2141 37.625 30.6804 37.625 31.1667V34.8333C37.625 35.8058 37.2475 36.7384 36.5755 37.4261C35.9035 38.1137 34.992 38.5 34.0417 38.5H30.4583C29.9832 38.5 29.5274 38.3068 29.1914 37.963C28.8554 37.6192 28.6667 37.1529 28.6667 36.6667C28.6667 36.1804 28.8554 35.7141 29.1914 35.3703C29.5274 35.0265 29.9832 34.8333 30.4583 34.8333H34.0417V31.1667C34.0417 30.6804 34.2304 30.2141 34.5664 29.8703C34.9024 29.5265 35.3582 29.3333 35.8333 29.3333ZM28.0252 12.9158C28.3354 12.7801 28.6768 12.7368 29.01 12.7908C29.3432 12.8448 29.6547 12.9939 29.9087 13.2211C30.1627 13.4483 30.3489 13.7442 30.4458 14.0749C30.5428 14.4055 30.5465 14.7575 30.4565 15.0902L30.3777 15.323L22.7757 33.473C22.6337 33.8112 22.3955 34.0978 22.0921 34.2955C21.7887 34.4933 21.4342 34.593 21.0746 34.5817C20.7151 34.5704 20.3672 34.4487 20.0762 34.2323C19.7853 34.0159 19.5647 33.7149 19.4432 33.3685L19.3822 33.1632L17.7339 25.8518L10.5905 24.1652C10.24 24.0821 9.92205 23.8929 9.67806 23.6223C9.43407 23.3517 9.27535 23.0122 9.22257 22.648C9.16979 22.2839 9.2254 21.9118 9.38215 21.5804C9.5389 21.249 9.78954 20.9736 10.1014 20.79L10.2878 20.6947L28.0252 12.9158ZM12.5417 5.5C13.0168 5.5 13.4726 5.69315 13.8086 6.03697C14.1446 6.38079 14.3333 6.8471 14.3333 7.33333C14.3333 7.81956 14.1446 8.28588 13.8086 8.6297C13.4726 8.97351 13.0168 9.16667 12.5417 9.16667H8.95833V12.8333C8.95833 13.3196 8.76957 13.7859 8.43357 14.1297C8.09756 14.4735 7.64185 14.6667 7.16667 14.6667C6.69149 14.6667 6.23577 14.4735 5.89977 14.1297C5.56376 13.7859 5.375 13.3196 5.375 12.8333V9.16667C5.375 8.19421 5.75253 7.26158 6.42453 6.57394C7.09654 5.88631 8.00797 5.5 8.95833 5.5H12.5417ZM34.0417 5.5C34.992 5.5 35.9035 5.88631 36.5755 6.57394C37.2475 7.26158 37.625 8.19421 37.625 9.16667V12.8333C37.625 13.3196 37.4362 13.7859 37.1002 14.1297C36.7642 14.4735 36.3085 14.6667 35.8333 14.6667C35.3582 14.6667 34.9024 14.4735 34.5664 14.1297C34.2304 13.7859 34.0417 13.3196 34.0417 12.8333V9.16667H30.4583C29.9832 9.16667 29.5274 8.97351 29.1914 8.6297C28.8554 8.28588 28.6667 7.81956 28.6667 7.33333C28.6667 6.8471 28.8554 6.38079 29.1914 6.03697C29.5274 5.69315 29.9832 5.5 30.4583 5.5H34.0417Z" fill="#002B4B"/>
</svg>
