<svg width="230" height="27" viewBox="0 0 230 27" fill="none" xmlns="http://www.w3.org/2000/svg">
<path d="M10.1876 26.9961C9.22671 26.9961 8.22366 26.9296 7.17845 26.7978C6.13323 26.6661 5.14168 26.4678 4.20507 26.2031C3.26847 25.9383 2.42641 25.6262 1.68147 25.2655C1.03237 24.9534 0.576201 24.539 0.311703 24.021C0.0472042 23.5043 -0.048626 22.9568 0.0229292 22.38C0.0944844 21.8031 0.298926 21.2928 0.636258 20.8476C0.972312 20.4025 1.41698 20.1032 1.97025 19.9459C2.52225 19.7899 3.14708 19.8679 3.84474 20.18C4.75707 20.6123 5.79079 20.95 6.94461 21.1904C8.09716 21.4309 9.17943 21.5511 10.1876 21.5511C11.7733 21.5511 12.885 21.3414 13.5213 20.9206C14.1576 20.4997 14.4758 19.9766 14.4758 19.3511C14.4758 18.7986 14.2535 18.3535 13.8088 18.0171C13.3641 17.6807 12.577 17.3916 11.4488 17.1512L7.23211 16.2494C4.92573 15.7685 3.20713 14.9269 2.07886 13.7246C0.949313 12.5222 0.384537 10.972 0.384537 9.07132C0.384537 7.82168 0.642646 6.68587 1.15887 5.66262C1.67509 4.64065 2.40852 3.76961 3.35791 3.04822C4.30729 2.32683 5.43557 1.76788 6.74528 1.37137C8.055 0.974861 9.51421 0.776611 11.1242 0.776611C12.3726 0.776611 13.6414 0.914749 14.9268 1.19103C16.2123 1.4673 17.3239 1.883 18.2606 2.43555C18.8126 2.72334 19.2099 3.12113 19.4502 3.62508C19.6904 4.13031 19.7862 4.65345 19.7389 5.19449C19.6904 5.73553 19.5051 6.21007 19.1806 6.61937C18.856 7.02867 18.4241 7.29854 17.8836 7.43157C17.3431 7.56331 16.7004 7.47378 15.9555 7.16169C15.2578 6.8496 14.472 6.61553 13.5941 6.4582C12.7163 6.30216 11.8691 6.22413 11.0526 6.22413C10.1633 6.22413 9.40688 6.32646 8.78205 6.53111C8.15722 6.73576 7.68316 7.02994 7.35861 7.41494C7.03406 7.79994 6.87178 8.24505 6.87178 8.749C6.87178 9.25295 7.08134 9.68144 7.50172 10.0293C7.92211 10.3785 8.69644 10.6727 9.82599 10.9132L14.0069 11.8149C16.3375 12.3201 18.0791 13.149 19.2329 14.304C20.3868 15.4577 20.963 16.9606 20.963 18.8127C20.963 20.0636 20.7113 21.193 20.2066 22.2035C19.7019 23.2139 18.9812 24.0734 18.0446 24.782C17.108 25.4919 15.9785 26.0381 14.6572 26.4231C13.336 26.8081 11.8461 26.9999 10.1876 26.9999V26.9961Z" fill="#002B4B"/>
<path d="M32.8212 26.9962C30.8266 26.9962 29.0914 26.6227 27.613 25.8783C26.1359 25.1339 24.9872 24.0569 24.1707 22.6499C23.3542 21.243 22.9453 19.5904 22.9453 17.691C22.9453 16.2482 23.1728 14.9564 23.6302 13.8142C24.0864 12.672 24.7534 11.7037 25.6299 10.9107C26.5065 10.1177 27.5517 9.51013 28.7656 9.08932C29.9782 8.66851 31.3301 8.45874 32.8199 8.45874C33.5163 8.45874 34.2485 8.52525 35.0177 8.65699C35.7869 8.79002 36.5791 9.03559 37.3969 9.39629C37.9732 9.61245 38.3757 9.94373 38.6044 10.3876C38.8318 10.8327 38.929 11.3072 38.8932 11.8124C38.8574 12.3177 38.713 12.7743 38.46 13.1836C38.2083 13.5929 37.8595 13.8692 37.4148 14.0137C36.9701 14.1582 36.4718 14.0981 35.9185 13.8334C35.5339 13.6415 35.1314 13.5034 34.711 13.4189C34.2906 13.3345 33.8881 13.2923 33.5035 13.2923C32.8544 13.2923 32.2833 13.3882 31.7913 13.5801C31.2981 13.7732 30.8841 14.0559 30.5481 14.4281C30.212 14.8016 29.9539 15.2633 29.7737 15.8172C29.5936 16.371 29.5028 16.9952 29.5028 17.6923C29.5028 19.0865 29.8504 20.1813 30.5481 20.9744C31.2444 21.7674 32.2296 22.1652 33.5035 22.1652C33.8881 22.1652 34.2843 22.123 34.6931 22.0385C35.102 21.9541 35.5096 21.816 35.9185 21.6241C36.4705 21.3594 36.9637 21.3056 37.3969 21.4617C37.8288 21.6177 38.1776 21.9004 38.4421 22.3097C38.7066 22.719 38.851 23.1692 38.874 23.6617C38.8983 24.1554 38.7897 24.6235 38.5495 25.0686C38.3092 25.5137 37.9003 25.8437 37.3241 26.0612C36.5306 26.4219 35.7562 26.6675 34.9998 26.8005C34.2434 26.9322 33.5163 26.9987 32.8199 26.9987L32.8212 26.9962Z" fill="#002B4B"/>
<path d="M44.3902 26.9244C43.3807 26.9244 42.6 26.6481 42.048 26.0943C41.4947 25.5417 41.2188 24.7359 41.2188 23.6781V4.0944C41.2188 3.03661 41.4947 2.23081 42.048 1.67825C42.6013 1.1257 43.382 0.848145 44.3902 0.848145C45.3983 0.848145 46.2225 1.12442 46.7873 1.67825C47.3521 2.23209 47.6344 3.03661 47.6344 4.0944V11.9568H47.0582C47.6344 10.8274 48.4573 9.96146 49.5268 9.3603C50.5963 8.75914 51.8153 8.45856 53.1851 8.45856C54.5548 8.45856 55.7675 8.72844 56.6811 9.27076C57.5934 9.81181 58.2783 10.6534 58.7357 11.7956C59.1919 12.9378 59.4206 14.3742 59.4206 16.1061V23.6794C59.4206 24.7372 59.1433 25.543 58.5913 26.0955C58.0381 26.6481 57.2458 26.9257 56.2121 26.9257C55.1784 26.9257 54.3862 26.6494 53.8329 26.0955C53.2796 25.543 53.0036 24.7372 53.0036 23.6794V16.358C53.0036 15.276 52.8171 14.5072 52.4452 14.0493C52.0721 13.5927 51.5265 13.3638 50.8059 13.3638C49.845 13.3638 49.0758 13.6707 48.4995 14.2834C47.9232 14.8961 47.6344 15.7211 47.6344 16.7546V23.6794C47.6344 25.8436 46.5534 26.9257 44.3902 26.9257V26.9244Z" fill="#002B4B"/>
<path d="M72.0335 26.9962C70.0632 26.9962 68.3446 26.6227 66.8803 25.8783C65.4147 25.1339 64.2723 24.0633 63.4558 22.6678C62.6394 21.2737 62.2305 19.6262 62.2305 17.7268C62.2305 16.284 62.4579 14.9922 62.9154 13.85C63.3715 12.7078 64.0321 11.7344 64.8972 10.9286C65.7622 10.1228 66.7947 9.51013 67.9971 9.08932C69.1982 8.66851 70.5436 8.45874 72.0335 8.45874C74.0038 8.45874 75.7212 8.83223 77.1868 9.57664C78.6524 10.3223 79.787 11.3865 80.5933 12.7692C81.3983 14.1518 81.8008 15.8057 81.8008 17.7281C81.8008 19.1466 81.5721 20.4333 81.1159 21.587C80.6598 22.7407 80.0043 23.7205 79.152 24.5263C78.2984 25.3321 77.266 25.9448 76.0521 26.3656C74.8382 26.7864 73.4991 26.9962 72.0335 26.9962ZM72.0335 22.2713C72.6826 22.2713 73.2589 22.1089 73.7636 21.784C74.2684 21.4591 74.6581 20.9667 74.9353 20.3054C75.2113 19.6441 75.3493 18.7846 75.3493 17.7268C75.3493 16.1165 75.0363 14.9564 74.4127 14.2465C73.7879 13.5379 72.9944 13.1823 72.0335 13.1823C71.3844 13.1823 70.8081 13.3384 70.3034 13.6504C69.7987 13.9638 69.4026 14.4499 69.1138 15.1111C68.825 15.7724 68.6819 16.6435 68.6819 17.7255C68.6819 19.3129 68.9937 20.4666 69.6185 21.188C70.2434 21.9093 71.0471 22.27 72.0335 22.27V22.2713Z" fill="#002B4B"/>
<path d="M93.7288 26.9962C91.7585 26.9962 90.0399 26.6227 88.5756 25.8783C87.11 25.1339 85.9677 24.0633 85.1512 22.6678C84.3347 21.2737 83.9258 19.6262 83.9258 17.7268C83.9258 16.284 84.1532 14.9922 84.6107 13.85C85.0668 12.7078 85.7274 11.7344 86.5925 10.9286C87.4575 10.1228 88.49 9.51013 89.6924 9.08932C90.8935 8.66851 92.239 8.45874 93.7288 8.45874C95.6992 8.45874 97.4165 8.83223 98.8821 9.57664C100.348 10.3223 101.482 11.3865 102.289 12.7692C103.094 14.1518 103.496 15.8057 103.496 17.7281C103.496 19.1466 103.267 20.4333 102.811 21.587C102.355 22.7407 101.7 23.7205 100.847 24.5263C99.9938 25.3321 98.9613 25.9448 97.7474 26.3656C96.5335 26.7864 95.1944 26.9962 93.7288 26.9962ZM93.7288 22.2713C94.378 22.2713 94.9542 22.1089 95.4589 21.784C95.9637 21.4591 96.3534 20.9667 96.6307 20.3054C96.9067 19.6441 97.0447 18.7846 97.0447 17.7268C97.0447 16.1165 96.7316 14.9564 96.1081 14.2465C95.4832 13.5379 94.6897 13.1823 93.7288 13.1823C93.0797 13.1823 92.5035 13.3384 91.9987 13.6504C91.494 13.9638 91.0979 14.4499 90.8091 15.1111C90.5204 15.7724 90.3773 16.6435 90.3773 17.7255C90.3773 19.3129 90.689 20.4666 91.3139 21.188C91.9387 21.9093 92.7424 22.27 93.7288 22.27V22.2713Z" fill="#002B4B"/>
<path d="M113.192 26.9961C110.886 26.9961 109.185 26.377 108.093 25.1389C106.999 23.9007 106.453 22.032 106.453 19.5302V4.09318C106.453 3.0354 106.729 2.22959 107.282 1.67703C107.836 1.12448 108.616 0.846924 109.625 0.846924C110.633 0.846924 111.457 1.1232 112.022 1.67703C112.586 2.23087 112.869 3.0354 112.869 4.09318V19.314C112.869 20.2042 113.043 20.8527 113.391 21.262C113.739 21.6713 114.19 21.8747 114.743 21.8747C114.911 21.8747 115.086 21.8568 115.266 21.821C115.446 21.7852 115.644 21.7545 115.86 21.7302C116.269 21.7302 116.574 21.8862 116.779 22.1996C116.983 22.5117 117.085 23.1499 117.085 24.1118C117.085 24.9534 116.917 25.5853 116.581 26.0048C116.243 26.4256 115.727 26.6955 115.031 26.817C114.838 26.8413 114.562 26.8771 114.202 26.9257C113.841 26.973 113.504 26.9973 113.192 26.9973V26.9961Z" fill="#002B4B"/>
<path d="M133.05 26.9246C131.992 26.9246 131.176 26.6304 130.599 26.0407C130.023 25.4524 129.734 24.6287 129.734 23.5696V4.52564C129.734 3.44355 130.028 2.61472 130.617 2.03658C131.206 1.45972 132.028 1.17065 133.086 1.17065H141.952C144.836 1.17065 147.063 1.87414 148.638 3.28111C150.211 4.68807 150.999 6.6412 150.999 9.14177C150.999 10.7534 150.644 12.154 149.936 13.3435C149.227 14.5343 148.206 15.4475 146.872 16.0845C145.538 16.7215 143.898 17.04 141.952 17.04L142.241 16.3902H143.971C145.004 16.3902 145.917 16.6371 146.711 17.1295C147.504 17.6232 148.164 18.374 148.693 19.3832L150.494 22.6295C150.879 23.3278 151.059 24.0058 151.035 24.667C151.011 25.3283 150.752 25.8693 150.26 26.2902C149.767 26.711 149.053 26.9207 148.116 26.9207C147.18 26.9207 146.416 26.7276 145.828 26.3439C145.239 25.9602 144.716 25.3577 144.26 24.5404L140.98 18.5173C140.691 17.989 140.325 17.622 139.881 17.4173C139.436 17.2127 138.925 17.1103 138.349 17.1103H136.367V23.5657C136.367 24.6235 136.091 25.4473 135.538 26.0369C134.985 26.6253 134.155 26.9207 133.051 26.9207L133.05 26.9246ZM136.366 12.4251H140.763C142.035 12.4251 143.009 12.1731 143.683 11.6679C144.355 11.1627 144.692 10.3812 144.692 9.32339C144.692 8.26561 144.355 7.55062 143.683 7.0326C143.009 6.51586 142.037 6.25749 140.763 6.25749H136.366V12.4251Z" fill="#002B4B"/>
<path d="M163.217 26.9962C161.247 26.9962 159.528 26.6227 158.064 25.8783C156.598 25.1339 155.456 24.0633 154.639 22.6678C153.823 21.2737 153.414 19.6262 153.414 17.7268C153.414 16.284 153.642 14.9922 154.099 13.85C154.555 12.7078 155.216 11.7344 156.081 10.9286C156.946 10.1228 157.978 9.51013 159.181 9.08932C160.382 8.66851 161.727 8.45874 163.217 8.45874C165.187 8.45874 166.905 8.83223 168.37 9.57664C169.836 10.3223 170.971 11.3865 171.777 12.7692C172.582 14.1518 172.984 15.8057 172.984 17.7281C172.984 19.1466 172.756 20.4333 172.3 21.587C171.843 22.7407 171.188 23.7205 170.336 24.5263C169.482 25.3321 168.45 25.9448 167.236 26.3656C166.022 26.7864 164.683 26.9962 163.217 26.9962ZM163.217 22.2713C163.866 22.2713 164.443 22.1089 164.947 21.784C165.452 21.4591 165.842 20.9667 166.119 20.3054C166.395 19.6441 166.533 18.7846 166.533 17.7268C166.533 16.1165 166.22 14.9564 165.596 14.2465C164.971 13.5379 164.178 13.1823 163.217 13.1823C162.568 13.1823 161.992 13.3384 161.487 13.6504C160.982 13.9638 160.586 14.4499 160.297 15.1111C160.009 15.7724 159.866 16.6435 159.866 17.7255C159.866 19.3129 160.177 20.4666 160.802 21.188C161.427 21.9093 162.231 22.27 163.217 22.27V22.2713Z" fill="#002B4B"/>
<path d="M182.572 26.9962C181.034 26.9962 179.773 26.7135 178.788 26.1482C177.802 25.5841 177.063 24.7361 176.571 23.6054C176.077 22.476 175.832 21.0447 175.832 19.3129V11.7383C175.832 10.6805 176.108 9.88108 176.661 9.34003C177.213 8.79899 178.007 8.52783 179.041 8.52783C180.074 8.52783 180.866 8.79771 181.42 9.34003C181.972 9.88108 182.249 10.6805 182.249 11.7383V19.4932C182.249 20.3592 182.429 21.0076 182.789 21.4412C183.15 21.8736 183.715 22.091 184.484 22.091C185.349 22.091 186.058 21.7789 186.61 21.1534C187.162 20.528 187.439 19.6992 187.439 18.6644V11.7396C187.439 10.6818 187.715 9.88236 188.269 9.34131C188.821 8.80027 189.614 8.52911 190.648 8.52911C191.681 8.52911 192.474 8.79899 193.027 9.34131C193.579 9.88236 193.856 10.6818 193.856 11.7396V23.6783C193.856 25.8425 192.823 26.9246 190.756 26.9246C189.747 26.9246 188.966 26.6483 188.414 26.0945C187.861 25.5419 187.585 24.7361 187.585 23.6783V21.5871L188.161 23.3547C187.632 24.5327 186.894 25.4345 185.944 26.0599C184.995 26.6841 183.872 26.9975 182.575 26.9975L182.572 26.9962Z" fill="#002B4B"/>
<path d="M206.898 26.9961C205.097 26.9961 203.612 26.7198 202.447 26.166C201.281 25.6134 200.41 24.7782 199.834 23.659C199.257 22.5411 198.968 21.1406 198.968 19.4573V13.5787H197.743C196.974 13.5787 196.38 13.3754 195.959 12.9661C195.539 12.5581 195.328 11.9684 195.328 11.1984C195.328 10.4284 195.539 9.84644 195.959 9.44865C196.38 9.05214 196.974 8.85388 197.743 8.85388H198.968V6.61809C198.968 5.5603 199.244 4.75449 199.798 4.20194C200.351 3.64938 201.143 3.37183 202.177 3.37183C203.211 3.37183 204.003 3.6481 204.556 4.20194C205.108 4.75577 205.385 5.5603 205.385 6.61809V8.85388H208.341C209.134 8.85388 209.74 9.05214 210.16 9.44865C210.581 9.84516 210.792 10.4284 210.792 11.1984C210.792 11.9684 210.581 12.5568 210.16 12.9661C209.74 13.3754 209.133 13.5787 208.341 13.5787H205.385V19.2411C205.385 20.1314 205.595 20.7863 206.017 21.2071C206.437 21.6279 207.104 21.8376 208.016 21.8376C208.352 21.8376 208.677 21.8018 208.99 21.7289C209.302 21.6573 209.591 21.6215 209.855 21.6215C210.24 21.5972 210.551 21.711 210.792 21.9643C211.032 22.2163 211.152 22.788 211.152 23.6769C211.152 24.3983 211.043 25.0059 210.827 25.4983C210.612 25.992 210.227 26.3463 209.675 26.5625C209.338 26.6827 208.881 26.7851 208.305 26.8695C207.729 26.9539 207.26 26.9961 206.9 26.9961H206.898Z" fill="#002B4B"/>
<path d="M222.433 26.9962C220.271 26.9962 218.402 26.6176 216.829 25.8604C215.255 25.1032 214.047 24.0275 213.206 22.632C212.366 21.2378 211.945 19.5904 211.945 17.691C211.945 15.7916 212.348 14.2593 213.153 12.8766C213.958 11.494 215.063 10.4119 216.469 9.63036C217.874 8.84885 219.478 8.45874 221.279 8.45874C222.601 8.45874 223.803 8.66978 224.884 9.08932C225.965 9.51013 226.89 10.1228 227.659 10.9286C228.429 11.7344 229.011 12.7027 229.407 13.8321C229.803 14.9628 230.002 16.2252 230.002 17.6194C230.002 18.1003 229.869 18.4546 229.605 18.6836C229.341 18.9125 228.921 19.0263 228.344 19.0263H217.316V15.9963H225.317L224.741 16.4644C224.741 15.5754 224.621 14.854 224.381 14.3002C224.14 13.7477 223.786 13.3268 223.317 13.0378C222.849 12.7487 222.266 12.6055 221.569 12.6055C220.825 12.6055 220.182 12.7807 219.641 13.1286C219.101 13.4778 218.686 13.9881 218.398 14.6609C218.109 15.335 217.965 16.1753 217.965 17.1858V17.5107C217.965 19.2182 218.343 20.4384 219.1 21.1713C219.856 21.9055 221.028 22.2713 222.613 22.2713C223.141 22.2713 223.748 22.2048 224.433 22.0731C225.118 21.9413 225.772 21.7546 226.397 21.5141C227.022 21.2737 227.562 21.2315 228.018 21.3875C228.475 21.5435 228.83 21.8083 229.082 22.1805C229.333 22.554 229.471 22.9748 229.496 23.4429C229.52 23.9111 229.411 24.369 229.171 24.8128C228.931 25.2579 228.535 25.6007 227.981 25.8412C227.141 26.2262 226.245 26.5153 225.297 26.7071C224.347 26.899 223.392 26.9962 222.431 26.9962H222.433Z" fill="#002B4B"/>
</svg>
