<svg width="261" height="30" viewBox="0 0 261 30" fill="none" xmlns="http://www.w3.org/2000/svg">
<path d="M11.5607 29.9956C10.4703 29.9956 9.3321 29.9195 8.146 29.7688C6.9599 29.6181 5.8347 29.3913 4.77186 29.0884C3.70901 28.7855 2.75346 28.4284 1.90811 28.0158C1.17151 27.6588 0.653865 27.1847 0.353716 26.592C0.0535667 26.0009 -0.0551801 25.3746 0.0260197 24.7147C0.10722 24.0547 0.339217 23.4709 0.722016 22.9616C1.10337 22.4524 1.60796 22.11 2.23581 21.9301C2.86221 21.7515 3.57126 21.8408 4.36296 22.1978C5.39825 22.6924 6.5713 23.0787 7.88065 23.3538C9.18855 23.6289 10.4167 23.7664 11.5607 23.7664C13.3602 23.7664 14.6217 23.5265 15.3438 23.0451C16.0659 22.5636 16.4269 21.9652 16.4269 21.2496C16.4269 20.6175 16.1746 20.1083 15.67 19.7234C15.1654 19.3386 14.2722 19.0079 12.9919 18.7328L8.2069 17.7012C5.58966 17.151 3.63941 16.1882 2.35906 14.8127C1.07727 13.4372 0.436367 11.6637 0.436367 9.48931C0.436367 8.0597 0.729266 6.76031 1.31506 5.58969C1.90086 4.42054 2.73316 3.42405 3.81051 2.59876C4.88786 1.77348 6.1682 1.13403 7.65445 0.680416C9.1407 0.226802 10.7966 0 12.6236 0C14.0402 0 15.4801 0.158032 16.9388 0.474099C18.3975 0.790165 19.659 1.26573 20.7218 1.89786C21.3482 2.2271 21.7992 2.68217 22.0718 3.2587C22.3444 3.83669 22.4531 4.43517 22.3995 5.05414C22.3444 5.6731 22.1341 6.21598 21.7658 6.68422C21.3975 7.15247 20.9074 7.46122 20.2941 7.6134C19.6807 7.76411 18.9514 7.66169 18.106 7.30465C17.3143 6.94761 16.4226 6.67983 15.4264 6.49985C14.4303 6.32133 13.4689 6.23207 12.5424 6.23207C11.5332 6.23207 10.6748 6.34913 9.96575 6.58326C9.2567 6.81738 8.71875 7.15393 8.35045 7.59437C7.98215 8.03482 7.798 8.54404 7.798 9.12057C7.798 9.69709 8.0358 10.1873 8.51285 10.5853C8.9899 10.9848 9.8686 11.3213 11.1504 11.5964L15.8948 12.628C18.5396 13.206 20.5159 14.1542 21.8253 15.4756C23.1346 16.7954 23.7886 18.5148 23.7886 20.6336C23.7886 22.0647 23.5029 23.3567 22.9302 24.5127C22.3574 25.6687 21.5396 26.652 20.4768 27.4627C19.4139 28.2748 18.1321 28.8996 16.6328 29.3401C15.1335 29.7805 13.4428 30 11.5607 30V29.9956Z" fill="#0B05BA"/>
<path d="M37.2422 29.9948C34.9787 29.9948 33.0096 29.5675 31.332 28.7159C29.6558 27.8643 28.3523 26.6322 27.4257 25.0226C26.4992 23.413 26.0352 21.5225 26.0352 19.3495C26.0352 17.6989 26.2933 16.221 26.8124 14.9143C27.33 13.6076 28.0869 12.4999 29.0816 11.5927C30.0763 10.6855 31.2624 9.99041 32.6399 9.50899C34.0159 9.02757 35.55 8.7876 37.2407 8.7876C38.031 8.7876 38.8618 8.86369 39.7347 9.0144C40.6076 9.16658 41.5066 9.44753 42.4346 9.86017C43.0886 10.1075 43.5453 10.4864 43.8049 10.9942C44.063 11.5034 44.1732 12.0463 44.1326 12.6243C44.092 13.2023 43.9281 13.7247 43.641 14.1929C43.3554 14.6612 42.9595 14.9772 42.4549 15.1426C41.9503 15.3079 41.3848 15.2392 40.757 14.9363C40.3205 14.7168 39.8638 14.5587 39.3867 14.4622C38.9097 14.3656 38.4529 14.3173 38.0165 14.3173C37.2799 14.3173 36.6317 14.427 36.0735 14.6465C35.5138 14.8675 35.044 15.1909 34.6626 15.6167C34.2813 16.044 33.9884 16.5722 33.7839 17.2058C33.5795 17.8394 33.4765 18.5535 33.4765 19.351C33.4765 20.9459 33.8709 22.1985 34.6626 23.1057C35.4529 24.0129 36.5708 24.468 38.0165 24.468C38.4529 24.468 38.9024 24.4197 39.3664 24.3232C39.8304 24.2266 40.293 24.0685 40.757 23.8491C41.3834 23.5462 41.9431 23.4847 42.4346 23.6632C42.9247 23.8417 43.3206 24.1651 43.6207 24.6334C43.9209 25.1016 44.0847 25.6167 44.1108 26.18C44.1384 26.7449 44.0151 27.2804 43.7425 27.7896C43.4699 28.2989 43.0059 28.6764 42.352 28.9251C41.4515 29.3378 40.5728 29.6187 39.7144 29.7709C38.856 29.9216 38.031 29.9977 37.2407 29.9977L37.2422 29.9948Z" fill="#0B05BA"/>
<path d="M50.3723 29.9137C49.2268 29.9137 48.3409 29.5977 47.7145 28.9641C47.0866 28.3319 46.7734 27.4101 46.7734 26.2V3.79581C46.7734 2.58568 47.0866 1.66383 47.7145 1.03169C48.3423 0.39956 49.2283 0.0820312 50.3723 0.0820312C51.5164 0.0820312 52.4516 0.398097 53.0925 1.03169C53.7334 1.66529 54.0539 2.58568 54.0539 3.79581V12.7905H53.3999C54.0539 11.4985 54.9877 10.5078 56.2013 9.8201C57.415 9.13237 58.7983 8.7885 60.3527 8.7885C61.907 8.7885 63.2831 9.09724 64.3198 9.71767C65.3551 10.3366 66.1323 11.2995 66.6514 12.6062C67.1691 13.9129 67.4286 15.5561 67.4286 17.5374V26.2014C67.4286 27.4115 67.114 28.3334 66.4876 28.9655C65.8597 29.5977 64.9607 29.9152 63.7877 29.9152C62.6146 29.9152 61.7156 29.5991 61.0878 28.9655C60.46 28.3334 60.1468 27.4115 60.1468 26.2014V17.8257C60.1468 16.5877 59.9351 15.7083 59.5131 15.1845C59.0897 14.6621 58.4706 14.4001 57.6528 14.4001C56.5624 14.4001 55.6895 14.7513 55.0355 15.4522C54.3816 16.1531 54.0539 17.097 54.0539 18.2793V26.2014C54.0539 28.6773 52.8272 29.9152 50.3723 29.9152V29.9137Z" fill="#0B05BA"/>
<path d="M81.7455 29.9948C79.5096 29.9948 77.5593 29.5675 75.8976 28.7159C74.2345 27.8643 72.9382 26.6395 72.0116 25.0431C71.0851 23.4481 70.6211 21.5634 70.6211 19.3905C70.6211 17.7399 70.8792 16.262 71.3983 14.9553C71.9159 13.6486 72.6656 12.535 73.6472 11.6132C74.6289 10.6913 75.8005 9.99041 77.1649 9.50899C78.5279 9.02757 80.0548 8.7876 81.7455 8.7876C83.9814 8.7876 85.9302 9.21487 87.5933 10.0665C89.2565 10.9196 90.544 12.137 91.459 13.7188C92.3725 15.3006 92.8292 17.1926 92.8292 19.3919C92.8292 21.0147 92.5697 22.4867 92.052 23.8066C91.5344 25.1265 90.7905 26.2473 89.8234 27.1692C88.8548 28.0911 87.6832 28.792 86.3057 29.2734C84.9282 29.7548 83.4086 29.9948 81.7455 29.9948ZM81.7455 24.5895C82.4821 24.5895 83.136 24.4036 83.7088 24.032C84.2815 23.6603 84.7238 23.0969 85.0384 22.3404C85.3516 21.5839 85.5082 20.6006 85.5082 19.3905C85.5082 17.5482 85.153 16.221 84.4454 15.4089C83.7363 14.5982 82.8359 14.1915 81.7455 14.1915C81.0089 14.1915 80.3549 14.37 79.7822 14.727C79.2094 15.0855 78.7599 15.6416 78.4322 16.3981C78.1045 17.1546 77.9421 18.1511 77.9421 19.389C77.9421 21.2049 78.2959 22.5248 79.005 23.3501C79.714 24.1754 80.6261 24.588 81.7455 24.588V24.5895Z" fill="#0B05BA"/>
<path d="M106.367 29.9948C104.131 29.9948 102.18 29.5675 100.519 28.7159C98.8556 27.8643 97.5593 26.6395 96.6327 25.0431C95.7062 23.4481 95.2422 21.5634 95.2422 19.3905C95.2422 17.7399 95.5003 16.262 96.0194 14.9553C96.537 13.6486 97.2867 12.535 98.2683 11.6132C99.25 10.6913 100.422 9.99041 101.786 9.50899C103.149 9.02757 104.676 8.7876 106.367 8.7876C108.602 8.7876 110.551 9.21487 112.214 10.0665C113.878 10.9196 115.165 12.137 116.08 13.7188C116.994 15.3006 117.45 17.1926 117.45 19.3919C117.45 21.0147 117.191 22.4867 116.673 23.8066C116.155 25.1265 115.412 26.2473 114.444 27.1692C113.476 28.0911 112.304 28.792 110.927 29.2734C109.549 29.7548 108.03 29.9948 106.367 29.9948ZM106.367 24.5895C107.103 24.5895 107.757 24.4036 108.33 24.032C108.903 23.6603 109.345 23.0969 109.66 22.3404C109.973 21.5839 110.129 20.6006 110.129 19.3905C110.129 17.5482 109.774 16.221 109.066 15.4089C108.357 14.5982 107.457 14.1915 106.367 14.1915C105.63 14.1915 104.976 14.37 104.403 14.727C103.831 15.0855 103.381 15.6416 103.053 16.3981C102.726 17.1546 102.563 18.1511 102.563 19.389C102.563 21.2049 102.917 22.5248 103.626 23.3501C104.335 24.1754 105.247 24.588 106.367 24.588V24.5895Z" fill="#0B05BA"/>
<path d="M128.448 29.9952C125.831 29.9952 123.901 29.287 122.661 27.8705C121.42 26.4541 120.801 24.3162 120.801 21.4541V3.79386C120.801 2.58374 121.114 1.66187 121.742 1.02974C122.37 0.397607 123.256 0.0800781 124.4 0.0800781C125.544 0.0800781 126.479 0.396143 127.12 1.02974C127.761 1.66334 128.081 2.58374 128.081 3.79386V21.2068C128.081 22.2252 128.278 22.9671 128.674 23.4353C129.069 23.9036 129.581 24.1363 130.208 24.1363C130.398 24.1363 130.597 24.1158 130.801 24.0748C131.006 24.0338 131.231 23.9987 131.476 23.9709C131.94 23.9709 132.286 24.1494 132.518 24.5079C132.75 24.865 132.866 25.5951 132.866 26.6955C132.866 27.6584 132.675 28.3812 132.293 28.8612C131.911 29.3426 131.325 29.6513 130.535 29.7903C130.316 29.8181 130.002 29.8591 129.594 29.9147C129.185 29.9689 128.802 29.9967 128.448 29.9967V29.9952Z" fill="#0B05BA"/>
<path d="M150.985 29.9132C149.785 29.9132 148.858 29.5766 148.204 28.9021C147.55 28.229 147.223 27.2866 147.223 26.075V4.28836C147.223 3.05044 147.556 2.10223 148.225 1.44083C148.893 0.780898 149.825 0.450195 151.026 0.450195H161.088C164.36 0.450195 166.888 1.25499 168.674 2.86459C170.459 4.47419 171.353 6.70861 171.353 9.56931C171.353 11.413 170.95 13.0153 170.147 14.3762C169.342 15.7385 168.184 16.7832 166.67 17.5119C165.156 18.2407 163.296 18.605 161.088 18.605L161.415 17.8617H163.379C164.55 17.8617 165.587 18.1441 166.487 18.7074C167.388 19.2723 168.136 20.1312 168.736 21.2857L170.781 24.9995C171.217 25.7985 171.422 26.574 171.394 27.3305C171.367 28.087 171.074 28.706 170.515 29.1874C169.956 29.6688 169.145 29.9088 168.082 29.9088C167.019 29.9088 166.152 29.6878 165.485 29.2489C164.817 28.8099 164.224 28.1207 163.706 27.1856L159.984 20.2951C159.656 19.6908 159.24 19.2708 158.737 19.0367C158.232 18.8026 157.652 18.6855 156.999 18.6855H154.75V26.0706C154.75 27.2807 154.436 28.2231 153.809 28.8977C153.181 29.5708 152.24 29.9088 150.987 29.9088L150.985 29.9132ZM154.748 13.3255H159.738C161.182 13.3255 162.287 13.0373 163.051 12.4593C163.814 11.8813 164.196 10.9872 164.196 9.77709C164.196 8.56696 163.814 7.749 163.051 7.15637C162.287 6.56521 161.183 6.26963 159.738 6.26963H154.748V13.3255Z" fill="#0B05BA"/>
<path d="M185.218 29.9948C182.982 29.9948 181.032 29.5675 179.37 28.7159C177.707 27.8643 176.411 26.6395 175.484 25.0431C174.558 23.4481 174.094 21.5634 174.094 19.3905C174.094 17.7399 174.352 16.262 174.871 14.9553C175.389 13.6486 176.138 12.535 177.12 11.6132C178.102 10.6913 179.273 9.99041 180.638 9.50899C182.001 9.02757 183.527 8.7876 185.218 8.7876C187.454 8.7876 189.403 9.21487 191.066 10.0665C192.729 10.9196 194.017 12.137 194.932 13.7188C195.845 15.3006 196.302 17.1926 196.302 19.3919C196.302 21.0147 196.042 22.4867 195.525 23.8066C195.007 25.1265 194.263 26.2473 193.296 27.1692C192.327 28.0911 191.156 28.792 189.778 29.2734C188.401 29.7548 186.881 29.9948 185.218 29.9948ZM185.218 24.5895C185.955 24.5895 186.609 24.4036 187.181 24.032C187.754 23.6603 188.196 23.0969 188.511 22.3404C188.824 21.5839 188.981 20.6006 188.981 19.3905C188.981 17.5482 188.626 16.221 187.918 15.4089C187.209 14.5982 186.309 14.1915 185.218 14.1915C184.482 14.1915 183.828 14.37 183.255 14.727C182.682 15.0855 182.233 15.6416 181.905 16.3981C181.577 17.1546 181.415 18.1511 181.415 19.389C181.415 21.2049 181.769 22.5248 182.478 23.3501C183.187 24.1754 184.099 24.588 185.218 24.588V24.5895Z" fill="#0B05BA"/>
<path d="M207.176 29.9954C205.43 29.9954 203.999 29.672 202.881 29.0252C201.763 28.3799 200.924 27.4098 200.365 26.1162C199.806 24.8242 199.527 23.1868 199.527 21.2055V12.54C199.527 11.3299 199.841 10.4153 200.468 9.79636C201.095 9.1774 201.995 8.86719 203.168 8.86719C204.341 8.86719 205.24 9.17593 205.868 9.79636C206.495 10.4153 206.809 11.3299 206.809 12.54V21.4118C206.809 22.4024 207.014 23.1443 207.423 23.6404C207.831 24.135 208.472 24.3837 209.345 24.3837C210.327 24.3837 211.132 24.0267 211.758 23.3111C212.384 22.5956 212.699 21.6474 212.699 20.4636V12.5415C212.699 11.3313 213.012 10.4168 213.64 9.79783C214.267 9.17886 215.167 8.86865 216.34 8.86865C217.513 8.86865 218.412 9.1774 219.04 9.79783C219.666 10.4168 219.981 11.3313 219.981 12.5415V26.1996C219.981 28.6755 218.808 29.9134 216.463 29.9134C215.318 29.9134 214.432 29.5974 213.805 28.9638C213.178 28.3316 212.864 27.4098 212.864 26.1996V23.8072L213.518 25.8294C212.918 27.1771 212.08 28.2087 211.003 28.9242C209.925 29.6383 208.651 29.9968 207.179 29.9968L207.176 29.9954Z" fill="#0B05BA"/>
<path d="M234.786 29.9954C232.741 29.9954 231.057 29.6793 229.734 29.0457C228.412 28.4136 227.423 27.4581 226.769 26.1777C226.115 24.8988 225.787 23.2965 225.787 21.3709V14.6457H224.397C223.524 14.6457 222.85 14.413 222.373 13.9448C221.895 13.478 221.656 12.8034 221.656 11.9225C221.656 11.0416 221.895 10.3758 222.373 9.92075C222.85 9.46714 223.524 9.24033 224.397 9.24033H225.787V6.68253C225.787 5.47241 226.1 4.55055 226.728 3.91841C227.356 3.28628 228.255 2.96875 229.428 2.96875C230.601 2.96875 231.5 3.28482 232.128 3.91841C232.755 4.55201 233.069 5.47241 233.069 6.68253V9.24033H236.423C237.323 9.24033 238.011 9.46714 238.488 9.92075C238.965 10.3744 239.204 11.0416 239.204 11.9225C239.204 12.8034 238.965 13.4765 238.488 13.9448C238.011 14.413 237.322 14.6457 236.423 14.6457H233.069V21.1236C233.069 22.142 233.307 22.8912 233.785 23.3726C234.263 23.854 235.019 24.094 236.055 24.094C236.436 24.094 236.804 24.053 237.16 23.9696C237.513 23.8877 237.841 23.8467 238.141 23.8467C238.578 23.8189 238.932 23.9491 239.204 24.2389C239.477 24.5271 239.613 25.1812 239.613 26.1982C239.613 27.0235 239.49 27.7185 239.245 28.2819C239 28.8467 238.563 29.252 237.937 29.4993C237.554 29.6369 237.036 29.7539 236.382 29.8505C235.728 29.9471 235.196 29.9954 234.787 29.9954H234.786Z" fill="#0B05BA"/>
<path d="M252.413 29.9948C249.96 29.9948 247.839 29.5617 246.054 28.6954C244.267 27.8291 242.897 26.5985 241.943 25.0021C240.989 23.4071 240.512 21.5225 240.512 19.3495C240.512 17.1765 240.968 15.4235 241.882 13.8417C242.795 12.2599 244.05 11.022 245.645 10.128C247.24 9.23389 249.059 8.7876 251.104 8.7876C252.603 8.7876 253.968 9.02904 255.194 9.50899C256.421 9.99041 257.471 10.6913 258.344 11.6132C259.217 12.535 259.878 13.6427 260.327 14.9348C260.777 16.2283 261.002 17.6726 261.002 19.2675C261.002 19.8177 260.851 20.2231 260.552 20.485C260.252 20.7469 259.775 20.8771 259.121 20.8771H246.606V17.4107H255.686L255.032 17.9462C255.032 16.9292 254.896 16.104 254.623 15.4704C254.35 14.8382 253.949 14.3568 253.417 14.0261C252.885 13.6954 252.223 13.5315 251.433 13.5315C250.588 13.5315 249.858 13.732 249.245 14.13C248.632 14.5295 248.16 15.1133 247.834 15.883C247.507 16.6541 247.343 17.6155 247.343 18.7715V19.1432C247.343 21.0966 247.772 22.4926 248.63 23.331C249.489 24.171 250.818 24.5895 252.618 24.5895C253.217 24.5895 253.905 24.5134 254.683 24.3627C255.46 24.2119 256.202 23.9983 256.911 23.7232C257.62 23.4481 258.234 23.3998 258.751 23.5784C259.269 23.7569 259.672 24.0598 259.958 24.4856C260.243 24.9128 260.4 25.3943 260.427 25.9298C260.455 26.4654 260.332 26.9892 260.059 27.497C259.787 28.0062 259.337 28.3984 258.709 28.6735C257.755 29.1139 256.739 29.4446 255.663 29.6641C254.585 29.8836 253.501 29.9948 252.41 29.9948H252.413Z" fill="#0B05BA"/>
</svg>
