<svg width="44" height="44" viewBox="0 0 44 44" fill="none" xmlns="http://www.w3.org/2000/svg">
<path d="M20.713 4.02425C21.4365 3.75356 22.227 3.71827 22.9717 3.92342L23.287 4.02425L36.1203 8.83675C36.771 9.08075 37.339 9.50464 37.758 10.059C38.1771 10.6134 38.4299 11.2755 38.4872 11.9681L38.5 12.2706V22.1027C38.4999 25.0735 37.6978 27.9892 36.1783 30.5419C34.6588 33.0947 32.4782 35.1898 29.8668 36.6062L29.3792 36.8611L23.2302 39.9356C22.8916 40.1046 22.5218 40.202 22.1439 40.2215C21.7659 40.2411 21.388 40.1824 21.0338 40.0492L20.7698 39.9356L14.6208 36.8611C11.9636 35.5324 9.71442 33.511 8.11067 31.0102C6.50693 28.5094 5.60813 25.622 5.50917 22.6527L5.5 22.1027V12.2706C5.50001 11.576 5.69732 10.8957 6.06895 10.3089C6.44057 9.72205 6.97124 9.25286 7.59917 8.95592L7.87967 8.83675L20.713 4.02425ZM22 7.45808L9.16667 12.2706V22.1027C9.16671 24.4036 9.78533 26.6621 10.9578 28.6418C12.1302 30.6216 13.8133 32.2497 15.8308 33.3558L16.2617 33.5812L22 36.4504L27.7383 33.5812C29.7967 32.5523 31.5405 30.9888 32.7871 29.0545C34.0337 27.1202 34.7373 24.8863 34.8242 22.5867L34.8333 22.1027V12.2706L22 7.45808ZM28.2938 15.8199C28.6238 15.4911 29.0665 15.3002 29.532 15.286C29.9976 15.2718 30.4511 15.4353 30.8005 15.7434C31.1499 16.0514 31.3689 16.4809 31.4131 16.9446C31.4572 17.4083 31.3233 17.8714 31.0383 18.2399L30.8862 18.4123L21.2905 28.0097C20.941 28.3592 20.4753 28.5682 19.9818 28.5969C19.4884 28.6256 19.0016 28.4721 18.6138 28.1656L18.4378 28.0097L14.0305 23.6024C13.6982 23.2733 13.5043 22.8295 13.4884 22.3621C13.4726 21.8946 13.636 21.4388 13.9452 21.0879C14.2544 20.7369 14.6861 20.5175 15.1518 20.4744C15.6175 20.4313 16.0821 20.5678 16.4505 20.8561L16.6228 21.0082L19.8642 24.2496L28.2938 15.8199Z" fill="#002B4B"/>
</svg>
