<svg width="44" height="44" viewBox="0 0 44 44" fill="none" xmlns="http://www.w3.org/2000/svg">
<path fill-rule="evenodd" clip-rule="evenodd" d="M9.16667 9.16707C9.16667 8.68084 8.97351 8.21453 8.6297 7.87071C8.28588 7.52689 7.81956 7.33374 7.33333 7.33374C6.8471 7.33374 6.38079 7.52689 6.03697 7.87071C5.69315 8.21453 5.5 8.68084 5.5 9.16707V34.8337C5.5 35.32 5.69315 35.7863 6.03697 36.1301C6.38079 36.4739 6.8471 36.6671 7.33333 36.6671H36.6667C37.1529 36.6671 37.6192 36.4739 37.963 36.1301C38.3068 35.7863 38.5 35.32 38.5 34.8337C38.5 34.3475 38.3068 33.8812 37.963 33.5374C37.6192 33.1936 37.1529 33.0004 36.6667 33.0004H9.16667V9.16707ZM16.5 22.0004C16.5 21.5142 16.3068 21.0479 15.963 20.704C15.6192 20.3602 15.1529 20.1671 14.6667 20.1671C14.1804 20.1671 13.7141 20.3602 13.3703 20.704C13.0265 21.0479 12.8333 21.5142 12.8333 22.0004V27.5004C12.8333 27.9866 13.0265 28.453 13.3703 28.7968C13.7141 29.1406 14.1804 29.3337 14.6667 29.3337C15.1529 29.3337 15.6192 29.1406 15.963 28.7968C16.3068 28.453 16.5 27.9866 16.5 27.5004V22.0004ZM22 11.0004C22.4862 11.0004 22.9525 11.1936 23.2964 11.5374C23.6402 11.8812 23.8333 12.3475 23.8333 12.8337V27.5004C23.8333 27.9866 23.6402 28.453 23.2964 28.7968C22.9525 29.1406 22.4862 29.3337 22 29.3337C21.5138 29.3337 21.0475 29.1406 20.7036 28.7968C20.3598 28.453 20.1667 27.9866 20.1667 27.5004V12.8337C20.1667 12.3475 20.3598 11.8812 20.7036 11.5374C21.0475 11.1936 21.5138 11.0004 22 11.0004ZM31.1667 18.3337C31.1667 17.8475 30.9735 17.3812 30.6297 17.0374C30.2859 16.6936 29.8196 16.5004 29.3333 16.5004C28.8471 16.5004 28.3808 16.6936 28.037 17.0374C27.6932 17.3812 27.5 17.8475 27.5 18.3337V27.5004C27.5 27.9866 27.6932 28.453 28.037 28.7968C28.3808 29.1406 28.8471 29.3337 29.3333 29.3337C29.8196 29.3337 30.2859 29.1406 30.6297 28.7968C30.9735 28.453 31.1667 27.9866 31.1667 27.5004V18.3337Z" fill="#002B4B"/>
</svg>
